<?xml version="1.0" encoding="UTF-8"?>
<!DOCTYPE svg PUBLIC "-//W3C//DTD SVG 1.1//EN" "http://www.w3.org/Graphics/SVG/1.1/DTD/svg11.dtd">
<!-- Creator: CorelDRAW 2018 (64-Bit) -->
<svg xmlns="http://www.w3.org/2000/svg" xml:space="preserve" width="2.32119in" height="2.88535in" version="1.1" style="shape-rendering:geometricPrecision; text-rendering:geometricPrecision; image-rendering:optimizeQuality; fill-rule:evenodd; clip-rule:evenodd"
viewBox="0 0 2321.2 2885.36"
 xmlns:xlink="http://www.w3.org/1999/xlink">
 <defs>
  <style type="text/css">
   <![CDATA[
    .str0 {stroke:#FEFEFE;stroke-width:55.56;stroke-miterlimit:22.9256}
    .fil0 {fill:#FEFEFE;fill-rule:nonzero}
   ]]>
  </style>
 </defs>
 <g id="Layer_x0020_1">
  <metadata id="CorelCorpID_0Corel-Layer"/>
  <path class="fil0 str0" d="M1182.68 44.81l1101.54 635.97c-374.68,714.84 -749.02,1429.85 -1123.62,2144.73 -374.61,-714.88 -749.21,-1429.76 -1123.62,-2144.75l284.44 -164.25c240.06,-138.61 474.9,-274.23 834.01,-481.47l5.17 -2.98 22.08 12.74zm-66.33 2502.89l0 -1235.72c-339.25,-195.79 -559.48,-322.96 -779.68,-450.11l-150.52 -86.91 930.19 1772.74zm88.5 -1235.73l0 1235.73 930.2 -1772.75 -221.48 127.89c-195.83,113.08 -394.39,227.73 -708.73,409.14zm909.8 -627.19l-954.03 -550.81 -954.05 550.82 954.03 550.81 954.05 -550.82z"/>
 </g>
</svg>
