<?xml version="1.0" encoding="utf-8"?>
<!-- Generator: Adobe Illustrator 23.0.0, SVG Export Plug-In . SVG Version: 6.00 Build 0)  -->
<svg version="1.1" id="OBJECTS" xmlns="http://www.w3.org/2000/svg" xmlns:xlink="http://www.w3.org/1999/xlink" x="0px" y="0px"
	 viewBox="0 0 584.5 414" style="enable-background:new 0 0 584.5 414;" xml:space="preserve">
<style type="text/css">
	.st0{fill:#E8E8E8;}
	.st1{fill:none;stroke:#C1C1C1;stroke-linejoin:round;stroke-dasharray:3.5,3.5;}
	.st2{fill:#D32A2A;}
	.st3{fill:#DDDDDD;}
	.st4{fill:none;stroke:#99BFE3;stroke-linejoin:round;}
	.st5{fill:none;stroke:#CECECE;stroke-linejoin:round;}
	.st6{fill:none;stroke:#BABABA;stroke-linejoin:round;}
	.st7{fill:none;stroke:#DD3737;stroke-linejoin:round;}
	.st8{fill:#FFFFFF;stroke:#C1C1C1;stroke-linejoin:round;}
	.st9{fill:none;stroke:#C1C1C1;stroke-linejoin:round;}
	.st10{fill:none;stroke:#B7B7B7;stroke-linejoin:round;}
	.st11{fill:#2D2D2D;}
	.st12{fill:#FFB9A9;}
	.st13{fill:#E56767;}
	.st14{fill:none;stroke:#2D2D2D;stroke-linejoin:round;}
	.st15{fill:#031628;}
	.st16{fill:none;stroke:#EA8F86;stroke-width:0.75;stroke-linejoin:round;}
	.st17{fill:#1E2E59;}
	.st18{fill:none;stroke:#2F5FA5;stroke-width:0.75;stroke-linejoin:round;}
	.st19{fill:none;stroke:#A84545;stroke-width:0.75;stroke-linejoin:round;}
	.st20{fill:#3F111D;}
	.st21{fill:#FFFFFF;}
	.st22{fill:#C96947;}
	.st23{fill:#611223;}
	.st24{fill:#4063D9;}
	.st25{fill:#0F43AA;}
	.st26{fill:none;stroke:#4063D9;stroke-width:0.75;stroke-linejoin:round;}
	.st27{fill:none;stroke:#262A82;stroke-width:0.75;stroke-linejoin:round;}
	.st28{fill:#262A82;}
	.st29{fill:#BADFF4;}
	.st30{fill:#E0D5D1;}
	.st31{fill:#404058;}
	.st32{fill:none;stroke:#161515;stroke-width:0.75;stroke-linejoin:round;}
	.st33{fill:#A35138;}
	.st34{fill:none;stroke:#77331E;stroke-width:0.75;stroke-linejoin:round;}
	.st35{fill:none;stroke:#A89892;stroke-width:0.75;stroke-linejoin:round;}
	.st36{fill:#FC9854;}
	.st37{fill:none;stroke:#4DA3F7;stroke-width:0.75;stroke-linejoin:round;}
	.st38{fill:#4DA3F7;}
	.st39{fill:none;stroke:#AF3519;stroke-width:0.75;stroke-linejoin:round;}
	.st40{fill:#FFFFFF;stroke:#C6C6C6;stroke-linejoin:round;}
</style>
<title>illustration_home</title>
<path class="st0" d="M376.3,412.5c0,0,19.5-64.4,106.3-23.8c34.7,16.2,46.1,4.1,57.8,2.6c18.2-2.3,25.8,10,31,21.2H376.3z"/>
<path class="st0" d="M223,412.5h52.5c0,0-29.8-56.8-71.3-57.4c-42.3-0.6-54.5,28-73.5,30.3c-24.9,3.1-38.2-13.9-56.3-12.5
	C38.2,375.8,21,412.5,21,412.5H223z"/>
<path class="st1" d="M372.1,38.4h78.1c19.4,0,35.1,15.7,35.1,35.1c0,0,0,0,0,0l0,0c0,19.4-15.7,35.1-35.1,35.1c0,0,0,0,0,0h-352
	c-24.8,0-44.9,20.1-44.9,44.8c0,0,0,0,0,0l0,0c0,24.8,20.1,44.9,44.8,44.9c0,0,0,0,0,0h429c24.9,0,45.1,20.2,45.1,45.1l0,0l0,0
	c0,24.9-20.2,45.1-45.1,45.2c0,0,0,0,0,0H32c-14.3,0-25.8,11.6-25.8,25.8c0,0,0,0,0,0l0,0c0,14.3,11.6,25.8,25.8,25.8h138.2"/>
<circle class="st2" cx="69.7" cy="231" r="12.4"/>
<circle class="st3" cx="513.4" cy="264.9" r="7.3"/>
<circle class="st2" cx="497.7" cy="89.1" r="3.4"/>
<path class="st2" d="M169.5,31.9c0,1.9-1.5,3.4-3.3,3.4c-1.9,0-3.4-1.5-3.4-3.3c0-1.9,1.5-3.4,3.3-3.4c0,0,0,0,0,0
	C168,28.6,169.5,30.1,169.5,31.9z"/>
<path class="st4" d="M515.2,334c0,1.9-1.5,3.4-3.4,3.4s-3.4-1.5-3.4-3.4c0-1.9,1.5-3.4,3.4-3.4C513.7,330.6,515.2,332.1,515.2,334
	C515.2,334,515.2,334,515.2,334z"/>
<path class="st5" d="M458.4,61.3c0,3.1-2.5,5.6-5.6,5.6s-5.6-2.5-5.6-5.6c0-3.1,2.5-5.6,5.6-5.6c0,0,0,0,0,0
	C455.9,55.7,458.4,58.2,458.4,61.3z"/>
<g>
	<circle class="st6" cx="43.4" cy="204.2" r="6.3"/>
	<line class="st6" x1="36.9" y1="298" x2="54.2" y2="298"/>
	<line class="st6" x1="396.8" y1="86.2" x2="405.5" y2="86.2"/>
</g>
<g>
	<path class="st7" d="M544.6,226.4c0,1.9-1.5,3.4-3.4,3.4s-3.4-1.5-3.4-3.4c0-1.9,1.5-3.4,3.4-3.4c0,0,0,0,0,0
		C543.1,223,544.6,224.5,544.6,226.4z"/>
	<path class="st7" d="M68.4,319.3c0,1.9-1.5,3.4-3.4,3.4c-1.9,0-3.4-1.5-3.4-3.4c0-1.9,1.5-3.4,3.4-3.4c0,0,0,0,0,0
		C66.9,315.9,68.4,317.4,68.4,319.3C68.4,319.3,68.4,319.3,68.4,319.3z"/>
	<line class="st7" x1="551.8" y1="306.6" x2="569" y2="306.6"/>
	<line class="st7" x1="374.5" y1="95.3" x2="400.9" y2="95.3"/>
	<line class="st7" x1="61.1" y1="278.8" x2="69.7" y2="278.8"/>
	<line class="st7" x1="134.6" y1="52.7" x2="143.2" y2="52.7"/>
	<line class="st7" x1="149.8" y1="61.3" x2="158.4" y2="61.3"/>
</g>
<g>
	<path class="st8" d="M84.7,413c-11.9-23.1-29.8-31.4-37.5-42.9c-2.3-3.5-4.4-7.2-4.5-11.1c-0.3-4.1,2.2-7.9,6.1-9.3
		c3.5-1.2,7.8-0.4,11.5,1c11.5,4.2,20.2,13,25.5,22.6S96.1,398,95.3,413"/>
	<path class="st9" d="M45.8,351.4c0,0,36.9,18.9,45.2,61.6"/>
	<path class="st8" d="M94,413c-0.1-22.3-5.2-39.1-11.6-58.5c-3.2-9.6-7.2-19.4-9.6-29.2c-1.7-7.1-3.1-16.1,1-21.9
		c4.7-6.5,13.7-3.7,20.3,0.7c7.9,5.2,13.4,13.4,17,21.8c6.3,14.8,7.3,31.2,7.5,46.3c0.2,13.9-2.6,29.2-5.8,40.8"/>
	<path class="st9" d="M81,299.5c0,0,27.7,49.8,22.7,113.5"/>
	<path class="st8" d="M174.3,413c-1.9-16.2-1.7-34,3.7-49.4c5.4-15.4,16.8-29.3,32.1-34.9c2.6-1,5.8-1.7,8.1-0.1
		c2.2,1.4,3,4.2,3.3,6.8c1.7,12.8-3.3,25.5-9.5,36.8c-7,13.2-13,26.9-18.1,40.9"/>
	<path class="st8" d="M373.6,413c-1.5-23.5,1.2-52.2,8.8-70.7c5.9-14.3,15.8-27.8,29.3-36.3c9.7-6.1,28.2-15.9,38.1-5.2
		c14.5,15.7-17.2,41-25.5,51.8c-14,18.1-25.5,37.7-30.1,60.3"/>
	<path class="st8" d="M342.5,413c-1.6-19.6-13.8-37.8-26-53.2s-25.4-31.1-29.6-50.3c-1.3-5.9-1.6-12.5,1.7-17.6
		c5-7.8,16.2-8.9,25-6.3c12.3,3.6,22.5,12.5,29.6,23.2s11.2,23,14.2,35.4c5.3,22.5,7.3,45.7,5.8,68.9"/>
	<path class="st8" d="M496.6,413c1-28.5,6.3-51.9,27.3-72.8c6.6-6.6,18.8-15.1,29.9-10.2c5.5,2.5,5.6,10.8,3,15.9
		c-7,13.6-37.2,29.4-48.3,67.1"/>
	<path class="st8" d="M477.8,413c-9.5-68.1,7.9-95.6,17.9-105.6c6.6-6.6,19.2-16.3,30.4-9.2c13.4,8.4,5.9,27.5-2.3,42
		c-9.3,16.6-21.9,42.1-24,72.8"/>
	<path class="st8" d="M515.5,413c2.1-11.2,12.8-35.4,28.7-43c4.3-2,9.1-2.4,13.7-1.1c4,1.3,6.9,4.7,7.5,8.9c0.7,4.9-2,9-5.7,12
		c-9,7.1-19.6,14-27.7,23.3"/>
	<path class="st9" d="M218.2,328.6c0,0-28.4,30-33.3,83.9"/>
	<path class="st9" d="M294,286.8c0,0,47.8,36.4,61.5,126.2"/>
	<path class="st9" d="M380.4,413.5c0,0,9.1-74.7,69.4-112.6"/>
	<path class="st9" d="M526.1,298.2c0,0-39.3,33.7-38.7,115.3"/>
	<path class="st9" d="M503.1,413c5-28.7,20.2-56.3,50.7-83"/>
	<path class="st9" d="M522.9,413c0,0,11.4-27.7,38.5-42.5"/>
</g>
<rect x="0.5" y="412.5" class="st10" width="583.5" height="1"/>
<g>
	<g>
		<g>
			<polygon class="st11" points="483.8,413.5 454.6,413.5 454.8,409.9 484,409.9 			"/>
			<polyline class="st12" points="480.8,374.3 481.5,398.8 480.1,409.9 460,397.8 458.8,371.5 			"/>
			<path class="st13" d="M460,397.8c-1.2,3.1-2.6,6.1-4.2,9c-0.8,1.1-1.1,2.5-1.1,3.8h29.2c0.5-3-2.4-12.8-2.4-12.8
				S465.5,398.8,460,397.8z"/>
			<line class="st14" x1="467.2" y1="400.2" x2="474.1" y2="400.2"/>
			<line class="st14" x1="466.9" y1="402.5" x2="474.4" y2="402.5"/>
			<line class="st14" x1="466.6" y1="404.9" x2="474.6" y2="404.9"/>
		</g>
		<path class="st15" d="M422.9,111.2c0.7,4,1.3,7.8,5,10.3c2,1.3,4.3,2,6.7,2.1c1.9,0.2,3.9,0,5.8-0.5c1.8-0.6,3.6-1.4,5.2-2.4
			c1.2-0.7,2.5-1.5,2.9-2.8c0.2-0.6,0.2-1.3,0.3-2c0.3-1.1,0.9-2,1.6-2.9c1.3-1.8,2.7-3.7,2.7-5.9c0-0.9-0.1-1.8-0.4-2.7
			c-1-2.6-2.6-4.9-4.8-6.6c-2.2-1.7-4.5-3.1-7-4.4c-1.1-0.6-2.3-1.1-3.5-1.4c-1.2-0.2-2.5-0.1-3.7,0.1c-3.2,0.4-6.3,1.5-8.9,3.4
			c-1.5,1-2.6,2.4-3.2,4.1c-0.8,2.3-0.2,4.8,0.5,7.1C422.3,108.3,422.6,109.8,422.9,111.2z"/>
		<g>
			<path class="st11" d="M434.5,412.8v-2.1h-38.9c-1.3,0-2.6-0.7-3.2-1.8h-0.2v3.4c0,0.1,0,0.2,0.1,0.3l0.1,0.1
				c0.5,0.6,1.3,0.9,2.1,0.9h39.3C434.2,413.5,434.6,413.2,434.5,412.8C434.6,412.8,434.6,412.8,434.5,412.8z"/>
			<path class="st12" d="M435.8,370.2l-2.5,28.6l-0.7,11.2h-37.8c-0.9,0-1.6-0.7-1.6-1.6l0,0c0-0.7,0.4-1.2,1-1.5l17.4-8.1
				l-1.6-31.4"/>
			<path class="st13" d="M411.7,396.8l-18.3,10c-0.7,0.3-1.1,1.1-1.1,1.9l0,0c0.1,1.1,1,2,2.1,2h40.2l-1.2-12.2
				C433.3,398.5,419,401,411.7,396.8z"/>
			<line class="st14" x1="401.1" y1="402.6" x2="403.3" y2="406.1"/>
			<line class="st14" x1="403.3" y1="401.4" x2="405.5" y2="405.2"/>
			<line class="st14" x1="405.5" y1="400.2" x2="407.8" y2="403.9"/>
		</g>
		<path class="st12" d="M382.6,150.5l16.4,16.2l45.3,33.2l-8.2,10.4c0,0-28.8-11.7-50.4-25.1c-7.8-4.9-23.4-21.6-23.4-21.6"/>
		<path class="st12" d="M439.7,197.9c2.7,1.3,7.7,3.4,10.3,4.6c1.6,0.8,4.2,2.3,4.1,3c-0.3,2-4.4-1.3-4.6-0.3
			c-0.1,0.6,3.3,2.1,5.1,2.9c1.6,0.7,3.6,1.9,3.5,2.9c-0.2,1.4-8.9-2.6-8.9-2.6s9,4.6,8.8,5.8c-0.3,1.6-9.4-3-9.4-3s7.7,4.1,7.4,5.3
			s-5.8-2.3-8.2-3.2c1.6,1.1,6.3,4.2,5.6,4.9s-3.9-1.2-4.7-1.5c-4.7-1.9-9.2-4.1-13.5-6.7"/>
		<path class="st16" d="M439.5,202.3c0,0,3.4,3.2,6.9,2.6"/>
		<g>
			<path class="st12" d="M395.3,154.6c0,0-16.2,20.1-21.7,25.9c-4.4,4.6-29.6,10-29.6,10l-0.9,12.8c6.7,0,37-0.4,50.1-13.5
				c10.8-10.8,24-27.4,24-27.4"/>
			<path class="st12" d="M350.6,189.6c-3.3,0.1-7.7,0.5-11,0.5c-1.6,0-4.8,0-5.2,0.7c-0.6,1.3,4.1,1.1,3.8,2
				c-0.2,0.6-3.7,0.4-5.5,0.2c-1.5-0.2-3.5-0.4-4,0.5c-0.5,0.9,8.7,2,8.7,2s-9.7-0.4-10.1,0.7c-0.5,1.5,10,1.9,10,1.9
				s-9.1-0.1-9.5,1s6.8,1.2,9.6,1.5c-1.8,0.1-8.1,0-8.4,0.8c-0.3,0.8,3,1.5,3.9,1.5c5,0.4,15.1,0.1,15.1,0.1"/>
			<path class="st16" d="M339.5,200.1c0,0,3.6-4.6,8.2-4.3"/>
			<line class="st16" x1="376.3" y1="177.5" x2="390.6" y2="160.3"/>
			<line class="st16" x1="393.5" y1="189.6" x2="408.3" y2="173.9"/>
		</g>
		<g>
			<path class="st17" d="M406.8,218.9c-1.2,1.6,0.1,174.2,0.1,174.2h30l9.8-129.9c0,0,3.2-28.7-4.6-53.8"/>
			<path class="st17" d="M476.5,218.9c2.6,3.5,10.2,174.2,10.2,174.2h-30l-16.5-129.9c0,0-3.2-28.7,4.6-53.8"/>
			<path class="st18" d="M444.3,294.6c0,0-4.7-50.8-4.7-65.2"/>
			<path class="st18" d="M433.8,229.4c0,0,0.8,19.6,1.8,24.3c0.5,2.1,5,1.6,5,1.6"/>
			<path class="st18" d="M483.5,393.1c0,0-7.9-150.4-12.8-165.4"/>
			<path class="st18" d="M458.2,231.9c0,0,2.9,7.6,5.1,9.8s9.6,1.5,9.6,1.5"/>
			<line class="st18" x1="434.5" y1="393.1" x2="443.1" y2="281.6"/>
			<path class="st18" d="M406.4,241.1c0,0,6.2,0.5,7.8-0.8c2.2-2.1,4.3-4.4,6.2-6.8"/>
		</g>
		<path class="st13" d="M435.6,130.9c0,0-9.4-5-24.3,3.6c-7.5,4.3-17.3,15.3-24.3,27.6c2.9,4.8,20.9,18.6,27.6,18
			c5.4-6.9,11.2-27.7,11.2-27.7"/>
		<g>
			<path class="st13" d="M407.9,148.9l-3.6,84.6l77.7-1.6c-0.6-18.6-7-64.8-11.2-85.6c-15-18.9-33.4-19.1-33.4-19.1l-14.3,8.8
				L407.9,148.9z"/>
			<path class="st19" d="M406.9,176.1c0,0,1-18,1-27.3"/>
		</g>
		<g>
			<path class="st12" d="M475.8,135.9c0,0,18.9,12.6,30.9,8.2c8.8-3.2,26.7-30.2,26.7-30.2l13.9,5.9c-3.6,7.1-21.2,47.5-43,49
				c-18.3,1.3-39.4-9.4-39.4-9.4"/>
			<path class="st12" d="M529.1,120.5c1.9-3.4,4.7-7.9,6.4-11.3c0.9-1.7,2.6-5.1,3.5-5.1c1.7,0-1.1,4.9,0.1,5
				c0.7,0.1,2.4-3.7,3.1-5.6c0.7-1.7,1.5-3.9,2.7-3.9c1.1,0-2.6,10.2-2.6,10.2s4.8-10.4,6.1-10.3c1.9,0.2-3.4,11.6-3.4,11.6
				s4.8-9.7,6.2-9.5s-2.3,7.8-3.5,10.9c1-1.8,4.3-8.6,5.3-8.5s-0.1,4-0.4,4.9c-2.3,5.5-7.9,16-7.9,16"/>
			<path class="st16" d="M546.1,114.4c0,0-6.7,1.3-9,6.3"/>
		</g>
		<path class="st13" d="M441.7,129c11.7-1.2,23.5,0.8,34.1,5.9c13,6.3,15.1,7.8,15.1,7.8l-10,24.6l-28-12.3"/>
		<g>
			<path class="st12" d="M426.8,108.5c-0.7-0.7-1.9-0.7-2.6,0c-0.7,0.9-1,2-0.7,3.1c0.3,1.6,1.8,3.3,3.6,2.8
				c0.7-0.2,1.2-0.7,1.5-1.4"/>
			<path class="st12" d="M447,108.9c0.1-0.1,0.1-0.1,0.2-0.2c0.7-0.5,1.6-0.3,2.2,0.3c0.5,0.7,0.7,1.5,0.5,2.3
				c-0.1,0.9-0.5,1.7-1.1,2.4c-0.7,0.6-1.6,0.9-2.5,0.7c-0.7-0.2-1.2-0.7-1.4-1.4"/>
			<path class="st12" d="M429.7,119.1l9.2-12.5l4.8,11.3l0.8,11.9c-3.2,6.8-13.1,5.2-14.7,1.3L429.7,119.1"/>
			<path class="st12" d="M426.9,100.5c-1.8,4.6-1.1,21,2.5,23.1s11.6,1.6,14.1-1c2.2-2.3,5.7-16.1,2.6-19.7S429.4,94,426.9,100.5z"
				/>
			<path class="st15" d="M445.4,92.1c-1.1-2.2-3.1-3.7-5.5-4.2c-2.4-0.4-4.9,0.2-6.9,1.7c-1.1,1-2.2,1.8-3.5,2.5
				c-1.5,0.6-3.3,0.4-4.9,0.3s-3.5,0.3-4.5,1.7c-0.6,1-0.8,2.1-0.6,3.3c0,1.7,0.5,3.3,1.3,4.8c0.8,1.5,2.3,2.5,4,2.7
				c2.1,0.2,4.1-1.1,6-2c1.9-0.9,4-1.4,5.8-2.3c1.7-0.9,3.7-0.9,5.3,0.2c1.5,1.1,2.9,2.4,4.1,3.9c0.8,0.9,1.8,1.6,3,2
				c1.2,0.4,2.5-0.2,3.1-1.3c0.2-0.8,0.2-1.7-0.1-2.4c-0.3-1.1-0.6-2.3-0.9-3.4c-0.2-1.1-0.6-2.2-1.2-3.2c-0.5-0.7-1.1-1.4-1.9-1.8
				c-0.7-0.4-1.6-0.6-2.1-1.1C445.7,92.9,445.5,92.5,445.4,92.1L445.4,92.1z"/>
			<path class="st16" d="M431.7,124.8c0,0,7.4,1.1,10.7-1.5"/>
			<path class="st16" d="M435.2,109.5c0,0-2,4.8-1.2,6s2.8,0.5,2.8,0.5"/>
			<path class="st20" d="M439.5,109.5c-0.1,0.3-0.2,0.6-0.2,0.9c0,0.3,0.2,0.6,0.6,0.6c0.1,0,0.2,0,0.2,0c0.8-0.2,0.8-1.9-0.1-1.9
				C439.7,109.1,439.6,109.3,439.5,109.5z"/>
			<path class="st20" d="M429.1,109c-0.1,0.3-0.2,0.7-0.2,1c0,0.3,0.3,0.6,0.6,0.6c0.1,0,0.1,0,0.2,0c0.8-0.2,0.8-1.9-0.2-1.9
				C429.4,108.7,429.2,108.8,429.1,109z"/>
			<path class="st21" d="M432,118.1l6.5-0.2c0,0,0.6,3.8-3.3,3.7c-1.8,0-3.2-1.4-3.3-3.1C432,118.4,432,118.2,432,118.1z"/>
			<path class="st20" d="M438.7,107.1c1.2,0.1,2.4,0.5,3.5,1.1c0.3-0.2,0.4-0.6,0.3-1c-1.1-0.7-2.4-1.2-3.7-1.2
				C438.9,105.9,438.5,106.9,438.7,107.1z"/>
			<path class="st20" d="M430.8,106.8c-0.9-0.1-1.7,0.1-2.5,0.5c-0.2-0.3-0.2-0.6-0.2-0.9c0.8-0.6,1.7-0.8,2.6-0.6
				C430.8,105.8,431,106.7,430.8,106.8z"/>
		</g>
		<line class="st19" x1="474" y1="164.6" x2="458.2" y2="157.3"/>
	</g>
	<path class="st22" d="M282.3,148.1c0,0,11.2,11.1,15.5,10.7c7.2-0.8,47.5-25.3,47.5-25.3l4.5,16.5c0,0-30.2,32.7-48.2,34.8
		c-15.5,1.8-36.5-16.9-36.5-16.9"/>
	<g>
		<path class="st23" d="M353.2,99.2c1.7,0.8,2.9,2.4,3.3,4.3c0.4,1.8,0.4,3.7,0.1,5.6c-0.1,0.5-0.1,1.1,0,1.6
			c0.5,2.5,3.8,3.4,4.6,5.7c0.2,0.7,0.3,1.4,0.3,2.1l0.1,4c0,0-11.8,0.9-18.8,0.8"/>
		<g>
			<polygon class="st11" points="302,413.5 331.2,413.5 331,409.9 301.9,409.9 			"/>
			<polyline class="st12" points="305.1,374.3 304.4,398.8 305.8,409.9 324.8,397.8 327.1,371.5 			"/>
			<path class="st24" d="M324.8,397.8c0,0,3.9,7,5.2,9c0.8,1.1,1.1,2.5,1.1,3.8h-29.2c-0.5-3,2.4-12.8,2.4-12.8
				S319.4,398.8,324.8,397.8z"/>
			<line class="st14" x1="318.6" y1="400.2" x2="311.7" y2="400.2"/>
			<line class="st14" x1="318.9" y1="402.5" x2="311.5" y2="402.5"/>
			<line class="st14" x1="319.2" y1="404.9" x2="311.3" y2="404.9"/>
		</g>
		<g>
			<path class="st11" d="M346,412.8l-0.1-2.1h38.9c1.3,0,2.5-0.7,3.1-1.8h0.2l0.2,3.4c0,0.1,0,0.2-0.1,0.3l-0.1,0.1
				c-0.5,0.6-1.3,0.9-2.1,0.9h-39.3C346.3,413.5,346,413.2,346,412.8z"/>
			<path class="st12" d="M347.3,374.3l0.1,24.3l0.4,11.3h37.8c0.8,0,1.5-0.6,1.5-1.5c0,0,0-0.1,0-0.1l0,0c0-0.7-0.5-1.3-1.1-1.5
				l-17.8-8.1l4-27.2"/>
			<path class="st24" d="M368.3,397.1l18.5,9.7c0.7,0.3,1.2,1.1,1.2,1.9l0,0c0,1.1-0.9,2-2,2h-40.2l1.2-12.3
				C347.1,398.4,361.2,401.3,368.3,397.1z"/>
			<line class="st14" x1="378.7" y1="402.5" x2="376.3" y2="407.1"/>
			<line class="st14" x1="375.7" y1="401" x2="373.3" y2="405.5"/>
			<line class="st14" x1="372.6" y1="399.4" x2="370.2" y2="403.9"/>
		</g>
		<path class="st24" d="M343.9,128.1c0,0,17.9,2.3,25.8,8.6s19.7,19,19.7,19l-16.2,20.4l-14.6-15.8"/>
		<g>
			<path class="st25" d="M360.1,191.4l7.5,6.9c1.5,4.8,12.4,16.5,14.8,53.3c2.7,40.7-2.5,126.1-2.5,126.1h-35L343,232.7l-1.4-52.7"
				/>
			<path class="st25" d="M318.3,195.2c-2.5,6.7-11.7,20.9-15.7,40.4c-6.1,30.1-0.8,142-0.8,142h29.7l17.4-145.5
				c0,0,1.6-12.9,0.8-34.4"/>
			<g>
				<path class="st26" d="M344.3,278.8c0.7-14.4,4.7-61.2,5.4-81.1"/>
				<path class="st26" d="M327.4,195.2c-8.6,11.3-14.3,24.5-16.6,38.5c-3.1,19.2-2.3,143.9-2.3,143.9"/>
				<path class="st26" d="M338.6,197.7c0,0-3.1,11.5-20.6,13.1"/>
				<path class="st26" d="M373.3,209.6c0,0-12.6-6.8-15.1-12"/>
				<path class="st26" d="M354.8,199.5c0,0-0.6,18.4-2.1,20s-4.8,2-4.8,2"/>
				<path class="st26" d="M351.1,377.4c0,0-3.1-108.7-4.7-129.6"/>
			</g>
		</g>
		<g>
			<g>
				<path class="st24" d="M311,144.7c3.4-5.3,21.7-16.1,21.7-16.1c4.4-0.5,8.8-0.6,13.3-0.4c0,0,10.3,8.4,17.4,18
					c5.8,5.6,8.2,9.9,8.3,15.8c0.1,4-1.8,7.4-2.7,13.4c-1,6.5-1.3,22.7-1.3,22.7c-11.1,4.1-33.8,3.7-50.3-0.5
					C315.1,182.4,307.5,150.1,311,144.7z"/>
				<path class="st27" d="M363.3,146.4c5.8,5.6,8.2,9.9,8.3,15.8c0.1,4-1.2,6.1-2,10"/>
			</g>
			<path class="st27" d="M345.1,161.2l-2.6-28.3L345.1,161.2z"/>
			<path class="st28" d="M340.3,141.2c0,0.3,0.3,0.5,0.5,0.5c0.3,0,0.5-0.2,0.5-0.5c0,0,0,0,0,0c0-0.3-0.3-0.5-0.6-0.5
				C340.5,140.7,340.2,140.9,340.3,141.2C340.2,141.2,340.2,141.2,340.3,141.2z"/>
			<path class="st28" d="M341.1,150.5c0,0.3,0.3,0.5,0.6,0.5c0.3,0,0.5-0.2,0.5-0.5c0,0,0,0,0,0c0-0.3-0.3-0.5-0.5-0.5
				C341.3,150,341.1,150.2,341.1,150.5C341.1,150.5,341.1,150.5,341.1,150.5z"/>
			<path class="st28" d="M342,159.8c0,0.3,0.3,0.5,0.5,0.5c0.3,0,0.5-0.2,0.5-0.5c0,0,0,0,0,0c0-0.3-0.3-0.5-0.5-0.5
				C342.2,159.2,342,159.5,342,159.8C342,159.7,342,159.8,342,159.8z"/>
		</g>
		<g>
			<path class="st12" d="M301.1,149c0,0-21.1,18.5-25.4,21.8c-4.3,3.2-40.5,21.4-40.5,21.4l3.2,10.5c0,0,40.9-9.5,53.4-16.8
				c10.1-5.9,29.4-22.9,29.4-22.9"/>
			<path class="st24" d="M332,128.9c-7,1.2-13.7,3.8-19.8,7.4c-7.5,4.5-20.5,19.7-20.5,19.7l19.2,19.2l19.5-17.4"/>
			<line class="st27" x1="313.7" y1="172.8" x2="325.4" y2="162.4"/>
			<path class="st12" d="M240.7,189.3c-2.8,0.8-7.9,2.1-10.7,2.9c-1.6,0.5-4.4,1.5-4.4,2.3c0.1,2,4.5-0.6,4.6,0.5
				c0,0.6-3.5,1.5-5.3,2c-1.6,0.4-3.7,1.3-3.7,2.3c0,1.4,9.1-1.1,9.1-1.1s-9.4,3.1-9.3,4.2c0.1,1.7,9.6-1.4,9.6-1.4s-8,2.8-7.9,4
				c0.1,1.2,5.9-0.9,8.4-1.4c-1.7,0.8-6.3,2.3-6.2,3.2s3.6,0.3,4.5,0c8.3-3.1,14.5-6.2,14.5-6.2"/>
			<path class="st16" d="M240.5,193.8c0,0-3.6,2.6-7,1.4"/>
		</g>
		<g>
			<g>
				<path class="st12" d="M345,119.1l1,9.9c0,0,1.9,3.9-5.5,4.1c-3.3,0.2-6.3-1.5-7.9-4.4l2.7-15.3"/>
				<path class="st12" d="M353,97.2c2,6.3,4.5,19.4-2.8,23.2c-1.7,0.9-4.2,0.6-6.8-0.5c-5.6-2.5-9.2-7-10.2-11
					C332,104,344.9,86.3,353,97.2z"/>
				<path class="st23" d="M324.4,99.5c-1.1,0.6-2.1,1.3-3,2.1c-1.7,2-2,4.7-0.8,7c0.5,0.7,0.9,1.6,1,2.5c0,1.2-1.1,2-2,2.7
					c-4.1,3.1-2.4,9.3-2.4,9.3s11.8,0.5,18.8,0c0.1-4-0.9-8.4,0.2-12.2c1-3.9,3.3-7.3,6.6-9.6c1.6-1.1,3.6-2,4-3.9
					c3,1.3,5.8,3.2,8.2,5.4c1.4-2.5,1.4-5.5,0-8c-1.2-1.8-3-3.2-5.1-3.7c-4.3-4.3-13.5-4-18.9-0.4C326.9,93.4,327,97.6,324.4,99.5z"
					/>
				<path class="st16" d="M349.1,107c0,0,2.6,4.1,2.1,5.1s-2.7,0.4-2.7,0.4"/>
				<path class="st15" d="M343.5,107.1c0,0.1-0.1,0.1-0.1,0.2c-0.1,0.4-0.2,0.9-0.1,1.3c0,0.8,1.3,0.7,1.2-0.1c0-0.5-0.2-1-0.3-1.4
					C343.9,106.6,343.6,106.8,343.5,107.1z"/>
				<path class="st15" d="M352.1,106.1l-0.1,0.2c-0.1,0.4,0,0.9,0.1,1.3c0.1,0.3,0.4,0.5,0.7,0.4s0.5-0.4,0.4-0.7
					c-0.1-0.5-0.3-0.9-0.6-1.4C352.4,105.6,352.3,105.8,352.1,106.1z"/>
				<path class="st15" d="M339.6,106.5c0-0.3,0-0.6,0.1-0.9c0.2-0.6,0.7-1.2,1.3-1.5c0.6-0.4,1.3-0.5,2-0.4c0.2,0,0.5,0.1,0.6,0.3
					c0.1,0.1,0.1,0.1,0.2,0.2h-0.2c-0.2,0-0.4,0.1-0.6,0.1c-0.5,0.2-1,0.4-1.5,0.7c-0.5,0.3-0.9,0.6-1.3,1c-0.2,0.1-0.3,0.3-0.5,0.4
					C339.7,106.4,339.7,106.5,339.6,106.5z"/>
				<path class="st15" d="M350.2,103.9c0-0.1,0-0.1,0.1-0.2c0.1-0.2,0.2-0.3,0.3-0.4c0.5-0.3,1-0.4,1.5-0.2c0.5,0.1,1,0.5,1.3,0.9
					c0.1,0.2,0.2,0.4,0.2,0.7l-0.2-0.1c-0.1,0-0.3-0.1-0.4-0.1c-0.4-0.1-0.7-0.2-1.1-0.3c-0.4-0.1-0.7-0.2-1.1-0.2
					C350.6,103.9,350.4,103.9,350.2,103.9z"/>
				<path class="st16" d="M338.3,116.8c0,0,1.8,2.8,6.9,4.2"/>
				<path class="st12" d="M337.9,110c-0.3-1.3-1.6-2.2-2.9-1.9c-0.3,0.1-0.6,0.2-0.8,0.3c-0.4,0.4-0.7,1-0.7,1.6
					c-0.1,1.5,0.4,3.1,1.5,4.2c0.4,0.4,0.8,0.7,1.4,0.9c1,0.3,2-0.2,2.3-1.1c0.1-0.2,0.1-0.5,0.1-0.8"/>
			</g>
			<path class="st21" d="M351.4,114.4h-7.1c0,0,0.7,3.7,4.1,3.7C351.5,118.1,351.4,114.4,351.4,114.4z"/>
			<polygon class="st21" points="333,126.3 342.5,132.9 339,139.3 330.9,129.3 			"/>
			<polygon class="st21" points="345.8,126.6 342.5,132.9 345.5,138.6 348.4,128.6 			"/>
		</g>
		<polygon class="st29" points="331.2,382.3 300.8,382.3 300.8,374.5 332.3,374.5 		"/>
		<polygon class="st29" points="380,382.3 344.2,382.3 344.2,374.5 380.4,374.5 		"/>
		<path class="st22" d="M354.6,130.2c1.3,2.4,7.4,6.3,8.3,6.1c0.9-0.2-1.1-2.8-1.3-3.4c1.8,0.5,3.4,1.2,5,2.1c1.5,1,3.3,2,4.8,3.1
			c-0.9-2-2.2-3.8-3.8-5.4C363.9,129.9,359.1,128.9,354.6,130.2"/>
	</g>
	<g>
		<path class="st30" d="M241.4,125.3c10.4-2.2,21.2,0.4,29.4,7.1c7.3,6.2,13.8,13.2,19.4,21L269.5,171l-21.9-18.2"/>
		<g>
			<path class="st11" d="M230.5,412.8v-2.1h-38.9c-1.3,0-2.6-0.7-3.2-1.8h-0.2v3.4c0,0.1,0.1,0.2,0.1,0.3l0.1,0.1
				c0.5,0.6,1.3,0.9,2.1,0.9h39.3C230.1,413.5,230.5,413.2,230.5,412.8C230.5,412.8,230.5,412.8,230.5,412.8z"/>
			<path class="st22" d="M231.3,370.2l-3,28.5l0.2,11.3h-37.7c-0.9,0-1.6-0.7-1.6-1.6l0,0c0-0.7,0.4-1.2,1-1.5l17.4-8.1l-1.3-31.4"
				/>
			<path class="st31" d="M207.3,397.1l-18,9.7c-0.7,0.3-1.1,1.1-1.1,1.9l0,0c0.1,1.1,1,2,2.1,2h40.2l-1.9-12.3
				C228.6,398.4,214.6,401.3,207.3,397.1z"/>
			<line class="st14" x1="196.9" y1="402.7" x2="199.2" y2="406.1"/>
			<line class="st14" x1="199.2" y1="401.5" x2="201.4" y2="405.2"/>
			<line class="st14" x1="201.4" y1="400.2" x2="203.7" y2="403.9"/>
		</g>
		<g>
			<path class="st11" d="M260.8,412.8v-2.1h38.9c1.3,0,2.6-0.7,3.2-1.8h0.2v3.4c0,0.1-0.1,0.2-0.1,0.3l-0.1,0.1
				c-0.5,0.6-1.3,0.9-2.1,0.9h-39.3C261.1,413.5,260.7,413.2,260.8,412.8C260.7,412.8,260.7,412.8,260.8,412.8z"/>
			<path class="st22" d="M256.8,370.2l4,28.5l1.8,11.3h37.8c0.9,0,1.6-0.7,1.6-1.6l0,0c0-0.7-0.4-1.2-1-1.5l-19.4-8.1l0.3-31.4"/>
			<path class="st31" d="M281.9,397.1l20.1,9.7c0.7,0.3,1.1,1.1,1.1,1.9l0,0c-0.1,1.1-1,2-2.1,2h-40.2l-0.2-12.3
				C260.6,398.4,274.5,401.3,281.9,397.1z"/>
			<line class="st14" x1="293" y1="402.5" x2="290.5" y2="406.1"/>
			<line class="st14" x1="290.6" y1="401.3" x2="288.2" y2="405.2"/>
			<line class="st14" x1="288.2" y1="400.2" x2="285.9" y2="403.9"/>
		</g>
		<g>
			<g>
				<path class="st31" d="M231.7,208.3c0,14.1,0.9,28.1,2.7,42.1c2.9,20,16,144.4,16,144.4h35.7c0,0-2.9-94.7-7-142.9
					c-0.9-10.4-3.3-31.4-12.3-44.2"/>
				<path class="st32" d="M281,394.8c0,0-2.9-94.7-7-142.9c-0.9-10.4-3.3-31.4-12.3-44.2"/>
				<path class="st31" d="M201.6,213.6c-3.6,46.1,2.2,181.2,2.2,181.2H237l8.5-138.9c0,0,7.5-30.9,0.2-45.9"/>
			</g>
			<path class="st32" d="M242,314.4c0,0-6.1-70.7-8.7-99"/>
			<line class="st32" x1="232" y1="394.8" x2="239.8" y2="289.3"/>
			<path class="st32" d="M255.3,226.4c0,0-0.4,8.3,16.7,11"/>
			<path class="st32" d="M200.6,237.4c0,0,15.6-0.3,17.4-11"/>
			<line class="st32" x1="203.6" y1="389.3" x2="237.3" y2="389.3"/>
			<line class="st32" x1="249.7" y1="389.3" x2="285.7" y2="389.3"/>
		</g>
		<path class="st22" d="M190.4,146.8c0,0-11.2,11.1-15.6,10.7c-7.2-0.8-47.5-30.4-47.5-30.4l-7.6,7.4c0,0,33.3,45,51.3,47
			c15.5,1.8,36.5-16.9,36.5-16.9"/>
		<path class="st30" d="M231.3,125.3c-10.3-1.4-20.8,1.1-29.4,7.1c-7.4,5-14.1,11-20,17.7l19.7,22.3l23.5-19.6"/>
		<g>
			<path class="st12" d="M182.7,148.4c0,0,15.8,17,23.3,19.4c6.1,1.9,30.7-5.8,30.7-5.8l7,10.7c-5.9,3.3-35.2,20.3-51.2,11.1
				c-13.4-7.7-25.6-18.9-25.6-18.9"/>
			<path class="st12" d="M230.6,164.6c2.9-1.5,7-3.4,9.9-4.9c1.4-0.8,4.3-2.3,4.9-1.9c1.2,0.8-3,2.9-2.3,3.5
				c0.4,0.4,3.4-1.5,4.9-2.5s2.9-2,3.7-1.5s-6.6,6-6.6,6s8.3-5.1,9.1-4.4c1.2,1.1-7.8,6.5-7.8,6.5s7.9-4.6,8.8-3.8s-5.3,4.4-7.6,6
				c1.6-0.8,7.1-4,7.8-3.4s-1.9,2.8-2.6,3.2c-4.2,2.8-13.1,7.5-13.1,7.5"/>
			<path class="st16" d="M245.5,168.3c0,0-5.4-2.2-9.3,0.2"/>
		</g>
		<path class="st30" d="M231.1,125.8c0,0-20.6,1.6-27.5,38.1c-2.9,15.4-3.8,62.6-3.8,62.6s39.3,2.6,76.7-0.1
			c0-15.8-4.4-55.4-8.8-74.9c-3-13.3-15.5-20-25.7-26.2"/>
		<g>
			<path class="st15" d="M227.4,95.3c-1.8,2.6-2.8,5.7-2.9,8.9c0,2.4,0.6,5.1,2.6,6.3c0.8,0.5,1.8,0.6,2.6,0.2
				c0.6-0.5,0.9-1.2,1.1-1.9c0.5-2,0.9-4,1-6.1c0.1-1.3,0-2.5-0.3-3.8c-0.3-1.2-1-2.3-2.1-3.1"/>
			<path class="st22" d="M229.8,116.9l-0.2,8.9c0,0,0.7,3.2,6.8,3.4c7.7,0.2,9.2-3.9,9.2-3.9l-1.5-16.5"/>
			<path class="st33" d="M228.9,107.1c-0.1-0.5-0.7-0.6-1.2-0.5c-0.6,0.2-1.1,0.7-1.3,1.4c-0.2,0.6-0.2,1.3-0.1,2
				c0,0.6,0.2,1.2,0.6,1.8c0.7,0.9,2,1.2,3,0.6"/>
			<path class="st22" d="M228.3,98.3c0,0-1.8,15.3,0.8,18c3.8,4.1,10.3,3,13.2,0.4c2.4-2.1,4.4-11.4,4.1-13.9
				C245.3,96.2,231.3,94.3,228.3,98.3z"/>
			<path class="st15" d="M248.5,95.7c-0.8-1.5-0.9-3.4-1.8-4.8c-0.8-1.2-2.1-1.9-3.5-2.1c-1.4-0.3-2.9,0-4.2-0.6
				c-0.8-0.4-1.5-1-2.3-1.5c-2.3-1.1-5.1-0.3-6.5,1.9c-0.2,0.4-0.4,0.7-0.7,1c-0.8,0.5-1.6,0.8-2.6,0.9c-1.1,0.2-2.7,0.9-3.1,2.1
				c-0.5,1.3-0.5,2.7,0.1,4c0.9,2,2.6,2,4.3,2.5c3,0.8,5.9-0.4,8.9-0.5c1.3-0.1,3.4,0.1,4.3,1.1c1.2,1.7,1.9,3.8,2,5.9
				c0.3,2.3-0.8,6.3,0.9,8.2c1-0.7,4.4-1.8,4.8-3.1s0-2.6,0.3-3.8c0.5-1,1.1-1.9,1.7-2.8c1.1-2,0.9-4.4-0.5-6.2
				c-0.5-0.6-1.2-1.1-1.7-1.7C248.7,96,248.6,95.8,248.5,95.7z"/>
			<path class="st34" d="M229.8,117.2c3.1,1.8,6.7,2.2,10.1,1c2.1-0.8,3.5-2.6,3.9-4.8"/>
			<path class="st34" d="M234,104.9c0,0-0.5,4-0.1,4.8s2.5,0.2,2.5,0.2"/>
			<path class="st15" d="M237.8,106c-0.1,0.3,0.1,0.7,0.5,0.8c0.3,0,0.5-0.3,0.6-0.7c0.1-0.3-0.1-0.7-0.5-0.8
				C238.1,105.3,237.9,105.6,237.8,106z"/>
			<path class="st15" d="M229.6,105.3c-0.1,0.3,0.2,0.7,0.5,0.7c0.3,0,0.5-0.3,0.6-0.7s-0.2-0.7-0.5-0.7S229.6,104.9,229.6,105.3z"
				/>
			<path class="st15" d="M240.9,102.8c-0.1-0.2-0.2-0.4-0.3-0.5c0-0.1-0.1-0.1-0.1-0.2c-0.1,0-0.2,0-0.3,0c-0.7,0-1.5,0.1-2.2,0.3
				c-0.3,0.1-0.7,0.2-1,0.3c-0.4,0.2-0.3,0.2-0.1,0.6c0,0.1,0.1,0.2,0.2,0.1c0,0,0,0,0.1,0c1.2-0.3,2.4-0.4,3.6-0.3
				c0.1,0,0.1,0,0.2,0C241,103,241,102.9,240.9,102.8C241,102.8,240.9,102.8,240.9,102.8z"/>
			<path class="st15" d="M229,102.5c0.1-0.2,0.2-0.3,0.3-0.5c0-0.1,0.1-0.1,0.1-0.2c0.1,0,0.1,0,0.2,0c0.6,0,1.2,0.2,1.7,0.4
				c0.3,0.1,0.5,0.2,0.8,0.4c0.3,0.2,0.3,0.2,0.1,0.6c0,0,0,0.1-0.1,0.1c0,0-0.1,0-0.2,0c-0.9-0.4-1.9-0.6-2.9-0.5
				c0,0-0.1,0-0.1-0.1C228.9,102.6,228.9,102.5,229,102.5z"/>
			<path class="st21" d="M232.4,112.2h6.9c0,0,0.1,3.6-4.2,3.6C232.3,115.8,232.4,112.2,232.4,112.2z"/>
			<path class="st22" d="M242.8,108.5c0.4-0.7,1-1.3,1.8-1.5c0.6,0,1.2,0.2,1.7,0.7c2.2,1.9,0.7,6.3-2.3,6.3c-1.1,0-1-1.5-1-1.5"/>
		</g>
		<path class="st35" d="M202.5,171.6c0,0,2.2-23,5.6-29.4"/>
		<path class="st35" d="M271.3,169.9c0,0-2.7-21.3-6.1-27.7"/>
	</g>
	<g>
		<g>
			<path class="st12" d="M104.6,134c0,0-17.9,11.9-29.3,7.8c-8.3-3.1-25.3-28.6-25.3-28.6l-13.2,5.6c3.4,6.7,20.1,44.9,40.8,46.4
				c17.3,1.2,37.3-8.9,37.3-8.9"/>
			<path class="st12" d="M54.1,119.4c-1.8-3.2-4.4-7.5-6.1-10.7c-0.8-1.6-2.5-4.8-3.3-4.8c-1.6,0,1,4.6-0.1,4.7
				c-0.7,0.1-2.3-3.5-3-5.3c-0.6-1.6-1.4-3.7-2.5-3.7s2.4,9.7,2.4,9.7s-4.5-9.9-5.8-9.7C34,99.8,39,110.5,39,110.5s-4.5-9.2-5.8-9
				s2.2,7.4,3.4,10.4c-1-1.7-4.1-8.1-5.1-8s0,3.8,0.4,4.6c2.2,5.2,7.5,15.1,7.5,15.1"/>
			<path class="st16" d="M38,113.6c0,0,6.4,1.3,8.5,6"/>
		</g>
		<g>
			<g>
				<polygon class="st11" points="183.3,413.5 154.1,413.5 154.3,409.9 183.5,409.9 				"/>
				<polyline class="st12" points="180.3,374.3 181,398.8 179.6,409.9 160.5,397.8 158.3,371.5 				"/>
				<path class="st36" d="M160.5,397.8c0,0-3.9,7-5.2,9c-0.8,1.1-1.1,2.5-1.1,3.8h29.2c0.5-3-2.4-12.8-2.4-12.8
					S166,398.8,160.5,397.8z"/>
				<line class="st14" x1="166.7" y1="400.2" x2="173.6" y2="400.2"/>
				<line class="st14" x1="166.4" y1="402.5" x2="173.8" y2="402.5"/>
				<line class="st14" x1="166.1" y1="404.9" x2="174.1" y2="404.9"/>
			</g>
			<g>
				<path class="st11" d="M139.4,412.8l0.1-2.1h-38.9c-1.3,0-2.5-0.7-3.1-1.8h-0.2l-0.2,3.4c0,0.1,0,0.2,0.1,0.3l0.1,0.1
					c0.5,0.6,1.3,0.9,2.1,0.9h39.3C139,413.5,139.4,413.2,139.4,412.8z"/>
				<path class="st12" d="M138.1,374.3l-0.1,24.3l-0.4,11.3H99.8c-0.8,0-1.5-0.7-1.5-1.5c0,0,0-0.1,0-0.1l0,0c0-0.7,0.5-1.2,1.1-1.5
					l17.8-8.1l-4-27.2"/>
				<path class="st36" d="M117,397.1l-18.5,9.7c-0.7,0.3-1.2,1.1-1.2,1.9l0,0c0,1.1,0.9,2,2,2h40.2l-1.2-12.3
					C138.3,398.4,124.1,401.3,117,397.1z"/>
				<line class="st14" x1="106.6" y1="402.5" x2="109" y2="407.1"/>
				<line class="st14" x1="109.7" y1="401" x2="112.1" y2="405.5"/>
				<line class="st14" x1="112.7" y1="399.4" x2="115.1" y2="403.9"/>
			</g>
			<path class="st24" d="M122.1,190.8l-6.4,3.1l-3.3,10.2c-5.3,8.1-13.2,24.3-12.4,47c1.2,33.8,12.2,133.5,12.2,133.5h27.5
				l1.3-152.4l-0.1-52.9"/>
			<path class="st24" d="M162.1,192.7c0,0,1.3,3.7,3.3,9.5c8,9.5,13.5,20.8,16,33c5.9,30.2,2.5,149.5,2.5,149.5h-26.7l-22.1-153
				c0,0-3.8-12.9-2.7-34.5"/>
			<g>
				<path class="st37" d="M140.6,269.4c-1.6-16.2-7.2-42.1-7.5-62"/>
				<path class="st37" d="M112.4,204.1c0,0,15.9,8.6,52.9-2"/>
				<path class="st37" d="M128.9,207.4l-1-0.1c-1.1-0.1-2-1-1.9-2.1c0-0.1,0-0.1,0-0.2l0.4-3.3c0.1-1.1,1.1-2,2.2-2h2.1"/>
				<path class="st38" d="M131.2,203.7c0,0.8-0.6,1.5-1.4,1.5c-0.7-0.1-1.3-0.7-1.2-1.4c0,0,0-0.1,0-0.1c0-0.8,0.6-1.5,1.4-1.5
					C130.7,202.2,131.3,202.9,131.2,203.7C131.2,203.7,131.2,203.7,131.2,203.7z"/>
				<path class="st37" d="M149.9,205.8c0-0.3-1.7-7.7-1.7-7.7"/>
				<path class="st37" d="M117.1,205.8c-0.2-0.2,2.6-8,2.6-8"/>
				<path class="st37" d="M160.3,203.5c0,0,9.3,10.7,12.9,29.7c3.6,19,5.7,151.4,5.7,151.4"/>
				<path class="st37" d="M146.7,206.3c0,0,0.7,7.7,18.3,4.1"/>
				<path class="st37" d="M109.7,208.8c0,0,8.1,3.7,10.7-1.5"/>
				<path class="st37" d="M127.9,207.3c0,0-0.1,18.2,1.4,19.8s5.8,2.3,5.8,2.3"/>
				<path class="st37" d="M137.6,383.5c0,0-1.9-114.2,0.1-135.1"/>
			</g>
		</g>
		<g>
			<path class="st36" d="M168.4,145.4c-3.6-5.4-23.3-17.3-23.3-17.3c-4.4-0.5-8.9-0.7-13.3-0.6c-5.3,5.8-10.2,11.9-14.8,18.3
				c-5.6,5.6-6.3,12.7-6.2,18.5c0.2,8.3,3,20.3,3.7,33.4c11.3,4.1,32.6,3.2,48.7-1.4C163.3,196.3,172,150.7,168.4,145.4z"/>
			<path class="st36" d="M131.8,127.4c0,0-10.9-2.4-27.2,5.6c-12.3,6-14.3,7.4-14.3,7.4l9.5,23.3l26.5-11.6"/>
			<path class="st22" d="M127.3,127.1c-1.8,2.1-8.6,4.6-9.5,4.1s1.7-2.5,2-3c-1.8,0.1-3.6,0.4-5.3,1c-1.7,0.6-3.6,1.1-5.3,1.7
				c1.3-1.7,2.9-3.1,4.8-4.2C118.2,124.8,123.1,124.9,127.3,127.1"/>
			<path class="st36" d="M156.4,157.3l17.1,15l16.4-17.2c0,0-8.2-8.3-15.8-15.9c-14.9-14.9-28.9-11.2-28.9-11.2"/>
			<line class="st39" x1="167.9" y1="167.4" x2="157.7" y2="158.4"/>
			<path class="st39" d="M111.2,158.2c0,0,0.9-7.6,5.8-12.5"/>
			<line class="st39" x1="94.2" y1="138.2" x2="103.4" y2="162"/>
			<line class="st39" x1="170.7" y1="169.9" x2="186.7" y2="152"/>
			<path class="st39" d="M130.2,127.4c0,0-2.6,6.5,6,7c10,0.6,11-6.5,11-6.5"/>
		</g>
		<g>
			<path class="st12" d="M132.4,118.4l-0.7,9.9c0,0-0.8,4.1,5.6,4.1c3.2,0.1,6.2-1.6,7.7-4.4l-1.6-14.4"/>
			<path class="st12" d="M128.8,95.7c-2.8,6-6.7,18.6,0,23.6c1.5,1.1,4.1,1.3,6.8,0.6c5.9-1.6,9.9-5.6,11.4-9.3
				C148.8,105.7,138.1,86.1,128.8,95.7z"/>
			<path class="st21" d="M129.2,114l6.7-0.4c0,0-1,3.4-4,3.4c-1.5,0-2.7-1.1-2.7-2.6C129.1,114.2,129.2,114.1,129.2,114z"/>
			<path class="st11" d="M153.6,98.1c0.9,1.1,2.1,1.9,3.5,2.3c2.5,0.8,4,1.3,5.4,3.7s1.1,6.5,3.7,7.7s5.5-0.1,7.1,2.7
				c-0.9,3.4-6.6,12.3-8.9,15.4c-1.2-1.5-2.9-2.5-4.8-2.7c-1.6-0.4-3.4-0.1-5-0.6c-1.4-0.5-2.7-1.5-3.5-2.8c-0.5-0.9-1-1.7-1.6-2.5
				c-1-1-2.3-1.6-3.7-1.9c-0.9-0.2-1.7-0.5-2.5-1c-1.7-1.1-2.1-3.1-2.2-5c-0.1-2.4-0.1-4.8-0.1-7.1c0-2.6-2.4-3.8-3.9-5.5
				c-0.2-0.2-2.9-4-2.4-4.2c-2.4,0.9-6.8,2.5-8.7,4.3c-1.6-3.8,0.3-8.2,4.1-9.8c1-0.4,2.2-0.6,3.3-0.6c0.8,0,2.4-1,3.3-1.2
				c1.2-0.2,2.4-0.3,3.5-0.2c2.4,0.2,4.8,0.8,6.9,2c1.7,0.9,3.8,2.2,4.6,4C152.2,96.1,152.9,97.2,153.6,98.1z"/>
			<path class="st16" d="M131.5,106c0,0-3.1,3.7-2.7,4.7s2.6,0.9,2.6,0.9"/>
			<path class="st15" d="M136.1,106.8c0,0.1,0.1,0.1,0.1,0.2c0.1,0.4,0.1,0.9,0,1.4c-0.1,0.8-1.4,0.5-1.2-0.3
				c0.1-0.5,0.3-0.9,0.5-1.4C135.7,106.3,135.9,106.5,136.1,106.8z"/>
			<path class="st15" d="M128.7,104.6c0,0.1,0,0.1,0,0.2c0,0.5-0.1,0.9-0.3,1.3c-0.2,0.7-1.4,0.2-1.1-0.5c0.2-0.5,0.4-0.9,0.8-1.3
				C128.4,104,128.6,104.3,128.7,104.6z"/>
			<path class="st15" d="M139,106.7c0.1-0.3,0.1-0.6,0-0.9c-0.2-0.7-0.5-1.3-1.1-1.7c-0.5-0.5-1.2-0.7-1.9-0.7
				c-0.2,0-0.5,0.1-0.7,0.2c-0.1,0-0.2,0.1-0.2,0.1l0.2,0.1c0.2,0.1,0.4,0.1,0.5,0.2c0.5,0.2,0.9,0.6,1.4,0.9
				c0.4,0.4,0.8,0.8,1.2,1.2c0.1,0.2,0.3,0.3,0.4,0.5L139,106.7z"/>
			<path class="st15" d="M130.8,102.8c0-0.1,0-0.1-0.1-0.2c-0.1-0.2-0.2-0.3-0.3-0.4c-0.4-0.4-0.9-0.5-1.5-0.5
				c-0.5,0.1-1,0.3-1.4,0.7c-0.2,0.2-0.3,0.4-0.3,0.6h0.2c0.1,0,0.3-0.1,0.4-0.1c0.4-0.1,0.8-0.1,1.1-0.2c0.4,0,0.7,0,1.1,0
				C130.4,102.7,130.6,102.7,130.8,102.8z"/>
			<path class="st16" d="M140.4,118c-2.4,1.7-5.2,2.6-8.1,2.6"/>
			<path class="st12" d="M140.3,109.7c0.4-1.3,1.8-1.9,3.1-1.5c0.3,0.1,0.6,0.3,0.8,0.5c0.4,0.5,0.6,1.1,0.5,1.7
				c-0.1,1.5-0.8,3-2,3.9c-0.4,0.4-0.9,0.6-1.4,0.7c-1,0.2-2-0.5-2.2-1.6c0-0.2,0-0.5,0-0.7"/>
		</g>
	</g>
</g>
<path class="st40" d="M369,0.5H215.5c-18.3,0-33.1,14.8-33.1,33.1l0,0c0,12.1,6.6,23.3,17.3,29.1c-2.5,5.6-7.7,8.9-11.2,10.4
	c5.1,0.3,13.8-0.9,18.6-7.4c2.7,0.7,5.6,1.1,8.4,1.1h39.2c-1.1,3.6-3,6.9-5.7,9.6c3.8-1.3,9.4-4.4,12.5-9.6H317
	c3.1,5.1,8.7,8.2,12.5,9.6c-2.6-2.7-4.6-6-5.7-9.6H369c1,0,2.1-0.1,3.1-0.2c4.9,5.7,13,6.8,17.8,6.5c-4.1-1.7-7.5-4.6-10-8.2
	c13.3-4.6,22.2-17.2,22.2-31.3l0,0C402.1,15.3,387.3,0.5,369,0.5z"/>
<g>
	<path class="st2" d="M217.4,45.7l-7.4-29h4l3.4,14.7c0.9,3.6,1.6,7.2,2.1,10h0.1c0.5-2.9,1.4-6.3,2.4-10.1l3.9-14.6h3.9l3.5,14.7
		c0.8,3.4,1.6,6.9,2,9.9h0.1c0.6-3.2,1.4-6.4,2.3-10l3.8-14.6h3.8l-8.2,29h-3.9l-3.7-15.1c-0.9-3.7-1.5-6.5-1.9-9.5h-0.1
		c-0.5,2.9-1.2,5.7-2.2,9.5l-4.1,15.1H217.4z"/>
	<path class="st2" d="M251,36c0.1,5.1,3.4,7.2,7.1,7.2c2.7,0,4.3-0.5,5.8-1.1l0.6,2.7c-1.3,0.6-3.6,1.3-6.9,1.3
		c-6.4,0-10.2-4.2-10.2-10.5c0-6.3,3.7-11.2,9.8-11.2c6.8,0,8.6,6,8.6,9.8c0,0.8-0.1,1.4-0.1,1.8H251z M262.1,33.3
		c0-2.4-1-6.1-5.2-6.1c-3.8,0-5.5,3.5-5.8,6.1H262.1z"/>
	<path class="st2" d="M270.4,15.2h3.8v30.5h-3.8V15.2z"/>
	<path class="st2" d="M295.4,44.9c-1,0.5-3.2,1.2-6,1.2c-6.3,0-10.4-4.3-10.4-10.6c0-6.4,4.4-11.1,11.2-11.1c2.2,0,4.2,0.6,5.2,1.1
		l-0.9,2.9c-0.9-0.5-2.3-1-4.4-1c-4.8,0-7.4,3.5-7.4,7.9c0,4.8,3.1,7.8,7.2,7.8c2.2,0,3.6-0.6,4.6-1L295.4,44.9z"/>
	<path class="st2" d="M318.7,35.1c0,7.7-5.3,11.1-10.4,11.1c-5.6,0-10-4.1-10-10.7c0-7,4.6-11.1,10.3-11.1
		C314.6,24.4,318.7,28.8,318.7,35.1z M302.1,35.4c0,4.6,2.6,8,6.3,8c3.6,0,6.3-3.4,6.3-8.1c0-3.5-1.8-8-6.2-8
		C304.1,27.3,302.1,31.4,302.1,35.4z"/>
	<path class="st2" d="M323.4,30.5c0-2.1,0-3.9-0.2-5.6h3.3l0.2,3.4h0.1c1.2-2,3.1-3.8,6.5-3.8c2.8,0,5,1.7,5.9,4.2h0.1
		c0.6-1.2,1.5-2.1,2.3-2.7c1.2-0.9,2.6-1.5,4.6-1.5c2.8,0,6.8,1.8,6.8,9v12.3h-3.7V33.9c0-4-1.5-6.4-4.5-6.4c-2.2,0-3.8,1.6-4.5,3.4
		c-0.2,0.5-0.3,1.2-0.3,1.9v12.9h-3.7V33.2c0-3.3-1.5-5.7-4.3-5.7c-2.4,0-4.1,1.9-4.7,3.8c-0.2,0.6-0.3,1.2-0.3,1.8v12.6h-3.7V30.5z
		"/>
	<path class="st2" d="M361.4,36c0.1,5.1,3.4,7.2,7.1,7.2c2.7,0,4.3-0.5,5.8-1.1l0.6,2.7c-1.3,0.6-3.6,1.3-6.9,1.3
		c-6.4,0-10.2-4.2-10.2-10.5c0-6.3,3.7-11.2,9.8-11.2c6.8,0,8.6,6,8.6,9.8c0,0.8-0.1,1.4-0.1,1.8H361.4z M372.5,33.3
		c0-2.4-1-6.1-5.2-6.1c-3.8,0-5.5,3.5-5.8,6.1H372.5z"/>
</g>
</svg>
