<?xml version="1.0" encoding="UTF-8"?>
<!DOCTYPE svg PUBLIC "-//W3C//DTD SVG 1.1//EN" "http://www.w3.org/Graphics/SVG/1.1/DTD/svg11.dtd">
<!-- Creator: CorelDRAW 2018 (64-Bit) -->
<svg xmlns="http://www.w3.org/2000/svg" xml:space="preserve" width="1.30142in" height="1.41663in" version="1.1" style="shape-rendering:geometricPrecision; text-rendering:geometricPrecision; image-rendering:optimizeQuality; fill-rule:evenodd; clip-rule:evenodd"
viewBox="0 0 672.4 731.93"
 xmlns:xlink="http://www.w3.org/1999/xlink">
 <defs>
  <style type="text/css">
   <![CDATA[
    .fil3 {fill:#40596B}
    .fil0 {fill:#F7D360}
    .fil2 {fill:#F8B64C}
    .fil1 {fill:#FF7058}
   ]]>
  </style>
 </defs>
 <g id="Layer_x0020_1">
  <metadata id="CorelCorpID_0Corel-Layer"/>
  <g id="_2909798623808">
   <path class="fil0" d="M617.95 514.13l-562.37 0c25.77,0 40.34,-13.48 48.61,-35.83 40.01,-107.91 -66.56,-422.39 232.58,-422.39 299.13,0 192.55,314.48 232.56,422.39 8.28,22.35 22.86,35.83 48.61,35.83zm0 0z"/>
   <path class="fil1" d="M445.66 623.31l-217.79 0c0.16,60.01 48.85,108.62 108.9,108.62 10.08,0 19.84,-1.38 29.11,-3.94 45.9,-12.71 79.64,-54.73 79.78,-104.68z"/>
   <path class="fil2" d="M671.27 567.64c0,30.07 -24.38,54.45 -54.45,54.45l-172.28 0 -0 0.29 -217.79 0 -0 -0.29 217.8 -0 -390.08 0c-15.04,0 -28.65,-6.09 -38.51,-15.94 -9.85,-9.85 -15.94,-23.47 -15.94,-38.5 0,-30.07 24.38,-54.44 54.45,-54.44l0.01 0c141.6,0 -54.76,-407.34 225.12,-453.82l19.78 0c-4.29,0.09 -3.11,0.13 0.3,0l6.73 0c-100.24,32.33 -82.41,237.24 -86.22,360.41 -0.98,31.5 24.22,57.58 55.73,57.58l292.29 0c8.28,22.35 22.86,35.83 48.61,35.83 15.04,0 28.65,6.09 38.51,15.95 9.85,9.85 15.94,23.47 15.94,38.5l0 0z"/>
   <path class="fil1" d="M281.14 59.28c-0.08,-1.18 -0.11,-2.36 -0.11,-3.54 0,-30.78 24.96,-55.74 55.74,-55.74 30.78,0 55.74,24.96 55.74,55.74 0,1.19 -0.04,2.39 -0.11,3.57l0 0.19 -111.25 0 0 -0.22z"/>
   <path class="fil0" d="M672.4 568.57c0,30.07 -24.38,54.45 -54.45,54.45l-405.03 0c-15.03,0 -28.64,-6.09 -38.5,-15.94 -9.85,-9.85 -15.94,-23.47 -15.94,-38.5 0,-30.07 24.38,-54.44 54.44,-54.44l405.03 0c15.04,0 28.65,6.09 38.5,15.94 9.85,9.85 15.95,23.47 15.95,38.5l0 0zm0 0z"/>
   <path class="fil1" d="M404.18 656.61c-11.21,34.6 -39.28,61.63 -74.51,71.38 -22.15,-6.12 -41.47,-19.07 -55.55,-36.44 -11.35,-14 -1.11,-34.94 16.91,-34.94l113.15 0zm0 0z"/>
   <path class="fil3" d="M516.55 59.47c0.2,0.11 20.14,11.49 39.75,37.92 26.28,35.4 39.59,79.62 39.59,131.44 0,6.18 5.01,11.2 11.2,11.2 6.18,0 11.2,-5.02 11.2,-11.2 0,-71.34 -24.36,-118.69 -44.8,-145.84 -22.45,-29.84 -45.12,-42.57 -46.08,-43.1 -5.4,-2.98 -12.18,-1.03 -15.18,4.36 -3,5.39 -1.06,12.2 4.31,15.23l0 0zm-499.38 116.36c6.18,0 11.19,-5.01 11.19,-11.19 0,-71.42 42.26,-99.84 44.13,-101.06 5.18,-3.33 6.7,-10.23 3.39,-15.43 -3.32,-5.22 -10.24,-6.75 -15.46,-3.43 -2.22,1.41 -54.45,35.62 -54.45,119.92 0,6.18 5.02,11.19 11.2,11.19zm49.26 64.19c6.18,0 11.2,-5.02 11.2,-11.2 0,-51.82 13.32,-96.04 39.59,-131.44 19.49,-26.26 39.31,-37.66 39.75,-37.92 5.39,-3 7.34,-9.8 4.36,-15.2 -3,-5.41 -9.81,-7.37 -15.22,-4.39 -0.96,0.53 -23.62,13.26 -46.08,43.1 -20.43,27.16 -44.79,74.51 -44.79,145.84 0,6.18 5.01,11.2 11.19,11.2zm534.6 -176.45c1.8,1.18 44.13,29.59 44.13,101.06 0,6.18 5.01,11.19 11.2,11.19 6.18,0 11.19,-5.01 11.19,-11.19 0,-84.3 -52.22,-118.51 -54.45,-119.92 -5.19,-3.31 -12.06,-1.78 -15.4,3.41 -3.34,5.18 -1.84,12.09 3.32,15.46z"/>
  </g>
 </g>
</svg>
