<?xml version="1.0" encoding="UTF-8"?>
<!DOCTYPE svg PUBLIC "-//W3C//DTD SVG 1.1//EN" "http://www.w3.org/Graphics/SVG/1.1/DTD/svg11.dtd">
<!-- Creator: CorelDRAW 2018 (64-Bit) -->
<svg xmlns="http://www.w3.org/2000/svg" xml:space="preserve" width="1.03257in" height="1.44531in" version="1.1" style="shape-rendering:geometricPrecision; text-rendering:geometricPrecision; image-rendering:optimizeQuality; fill-rule:evenodd; clip-rule:evenodd"
viewBox="0 0 1145.77 1603.75"
 xmlns:xlink="http://www.w3.org/1999/xlink">
 <defs>
  <style type="text/css">
   <![CDATA[
    .fil1 {fill:#E6E7E8}
    .fil5 {fill:#40596B}
    .fil3 {fill:#FF7058}
    .fil0 {fill:#FFD15C}
    .fil2 {fill:#40596B;fill-rule:nonzero}
    .fil4 {fill:#40596B;fill-rule:nonzero}
   ]]>
  </style>
 </defs>
 <g id="Layer_x0020_1">
  <metadata id="CorelCorpID_0Corel-Layer"/>
  <g id="_2909792360144">
   <rect class="fil0" x="22.27" y="22.27" width="854.32" height="1559.21" rx="110.44" ry="110.44"/>
   <rect class="fil1" x="104.66" y="1136.16" width="606.22" height="95.19" rx="85.17" ry="19.5"/>
   <path class="fil2" d="M132.71 0l633.43 0c36.52,0 69.7,14.92 93.75,38.97 24.04,24.04 38.96,57.22 38.96,93.74l0 1338.32c0,36.52 -14.92,69.7 -38.96,93.75 -24.04,24.04 -57.23,38.96 -93.75,38.96l-633.43 0c-36.52,0 -69.71,-14.92 -93.75,-38.96 -24.04,-24.04 -38.97,-57.23 -38.97,-93.75l0 -1338.32c0,-36.52 14.93,-69.7 38.97,-93.74 24.04,-24.04 57.22,-38.97 93.75,-38.97zm633.43 44.53l-633.43 0c-24.22,0 -46.27,9.93 -62.26,25.92 -15.99,15.99 -25.92,38.03 -25.92,62.26l0 1338.32c0,24.22 9.93,46.27 25.92,62.26 15.99,15.99 38.03,25.92 62.26,25.92l633.43 0c24.22,0 46.26,-9.93 62.26,-25.92 15.99,-15.99 25.92,-38.03 25.92,-62.26l0 -1338.32c0,-24.22 -9.93,-46.26 -25.92,-62.26 -15.99,-15.99 -38.03,-25.92 -62.26,-25.92z"/>
   <path class="fil3" d="M514.42 1128.68l216.12 -245.59 310.88 0c45.2,0 82.07,-36.87 82.07,-82.07l0 -194.42c0,-45.21 -36.87,-82.07 -82.07,-82.07l-651.23 0c-45.2,0 -82.07,36.87 -82.07,82.07l0 194.42c0,45.21 36.87,82.07 82.07,82.07l129.14 0 -4.91 245.59z"/>
   <path class="fil4" d="M537.82 1068.42l182.69 -207.6 320.92 0c16.46,0 31.41,-6.72 42.24,-17.56 10.84,-10.84 17.56,-25.79 17.56,-42.24l0 -194.42c0,-16.45 -6.72,-31.41 -17.56,-42.24 -10.84,-10.84 -25.79,-17.56 -42.24,-17.56l-651.23 0c-16.45,0 -31.4,6.72 -42.24,17.56 -10.84,10.84 -17.56,25.79 -17.56,42.24l0 194.42c0,16.46 6.72,31.41 17.56,42.24 10.84,10.84 25.79,17.56 42.24,17.56l151.78 0 -4.15 207.6zm202.77 -163.07l-249.56 283.59 5.67 -283.59 -106.51 0c-28.75,0 -54.83,-11.72 -73.73,-30.61 -18.89,-18.89 -30.61,-44.98 -30.61,-73.73l0 -194.42c0,-28.75 11.71,-54.84 30.61,-73.73 18.89,-18.89 44.98,-30.61 73.73,-30.61l651.23 0c28.75,0 54.84,11.71 73.73,30.61 18.89,18.89 30.61,44.99 30.61,73.73l0 194.42c0,28.75 -11.72,54.84 -30.61,73.73 -18.89,18.89 -44.98,30.61 -73.73,30.61l-300.84 0z"/>
   <rect class="fil5" x="238.29" y="22.27" width="422.29" height="74.71" rx="25.99" ry="19.28"/>
   <path class="fil4" d="M483.53 675.08c-12.3,0 -22.27,-9.97 -22.27,-22.27 0,-12.3 9.97,-22.27 22.27,-22.27l484.01 0c12.3,0 22.27,9.97 22.27,22.27 0,12.3 -9.97,22.27 -22.27,22.27l-484.01 0z"/>
   <path class="fil4" d="M483.53 766.04c-12.3,0 -22.27,-9.97 -22.27,-22.27 0,-12.3 9.97,-22.27 22.27,-22.27l484.01 0c12.3,0 22.27,9.97 22.27,22.27 0,12.3 -9.97,22.27 -22.27,22.27l-484.01 0z"/>
   <rect class="fil1" x="209.88" y="1281.45" width="606.22" height="95.19" rx="85.17" ry="19.5"/>
  </g>
 </g>
</svg>
