<svg id="icons" xmlns="http://www.w3.org/2000/svg" viewBox="0 0 48 48"><title>email-mail-open-at</title><g id="email-mail-open-at"><polygon points="46 18.9 46 19 42 21.95 42 16 46 18.9" fill="#60deae"/><polygon points="6 16 6 21.95 2 19 2 18.9 6 16" fill="#60deae"/><path d="M42,22,46,19V46H45L27.46,33.06c-.1-.06-.2-.13-.3-.18Z" fill="#ffd259"/><path d="M27.16,32.88c.1,0,.2.12.3.18L45,46H3s11.3-9.06,17.32-13a4.36,4.36,0,0,1,.41-.24A6.57,6.57,0,0,1,27.16,32.88Z" fill="#ffd259"/><path d="M6,22,20.73,32.8a4.36,4.36,0,0,0-.41.24C14.3,36.94,3,46,3,46H2V19Z" fill="#ffd259"/><polygon points="34 2 42 11 34 11 34 2" fill="#60deae"/><path d="M42,16V22L27.16,32.88a6.57,6.57,0,0,0-6.43-.08L6,22V2H34v9h8Z" fill="#fff"/><polyline points="6 16 2 18.9 2 19 2 46 3 46 45 46 46 46 46 19 46 18.9 42 16" fill="none" stroke="#423e5e" stroke-linecap="round" stroke-linejoin="round" stroke-width="2"/><path d="M45,46,27.46,33.06c-.1-.06-.2-.13-.3-.18a6.57,6.57,0,0,0-6.43-.08,4.36,4.36,0,0,0-.41.24C14.3,36.94,3,46,3,46" fill="none" stroke="#423e5e" stroke-linecap="round" stroke-linejoin="round" stroke-width="2"/><polyline points="21 33 20.73 32.8 6 21.95 2 19" fill="none" stroke="#423e5e" stroke-linejoin="round" stroke-width="2"/><polyline points="27 33 27.16 32.88 42 21.95 46 19" fill="none" stroke="#423e5e" stroke-linejoin="round" stroke-width="2"/><polyline points="34 2 6 2 6 16 6 21.95 6 22" fill="none" stroke="#423e5e" stroke-linejoin="round" stroke-width="2"/><polyline points="42 22 42 21.95 42 16 42 11" fill="none" stroke="#423e5e" stroke-linejoin="round" stroke-width="2"/><line x1="34" y1="2" x2="42" y2="11" fill="none" stroke="#423e5e" stroke-linecap="round" stroke-linejoin="round" stroke-width="2"/><polyline points="39 11 34 11 34 2" fill="none" stroke="#423e5e" stroke-linejoin="round" stroke-width="2"/><path d="M24,25a8,8,0,1,1,8-8" fill="none" stroke="#423e5e" stroke-miterlimit="10" stroke-width="2"/><circle cx="24" cy="17" r="3.56" fill="none" stroke="#423e5e" stroke-miterlimit="10" stroke-width="2"/><path d="M32,18.33a2.22,2.22,0,1,1-4.44,0" fill="none" stroke="#423e5e" stroke-miterlimit="10" stroke-width="2"/><line x1="27.56" y1="18.78" x2="27.56" y2="12.56" fill="none" stroke="#423e5e" stroke-miterlimit="10" stroke-width="2"/><line x1="32" y1="17" x2="32" y2="18.78" fill="none" stroke="#423e5e" stroke-miterlimit="10" stroke-width="2"/><path d="M29.19,23.09A8,8,0,0,1,24,25" fill="none" stroke="#423e5e" stroke-miterlimit="10" stroke-width="2"/></g></svg>