<?xml version="1.0" encoding="UTF-8"?>
<!DOCTYPE svg PUBLIC "-//W3C//DTD SVG 1.1//EN" "http://www.w3.org/Graphics/SVG/1.1/DTD/svg11.dtd">
<!-- Creator: CorelDRAW 2018 (64-Bit) -->
<svg xmlns="http://www.w3.org/2000/svg" xml:space="preserve" width="2.31335in" height="2.13226in" version="1.1" style="shape-rendering:geometricPrecision; text-rendering:geometricPrecision; image-rendering:optimizeQuality; fill-rule:evenodd; clip-rule:evenodd"
viewBox="0 0 530.87 489.31"
 xmlns:xlink="http://www.w3.org/1999/xlink">
 <defs>
  <style type="text/css">
   <![CDATA[
    .str1 {stroke:#C63134;stroke-width:35.58;stroke-linecap:round;stroke-linejoin:round;stroke-miterlimit:2.61313}
    .str2 {stroke:#C63134;stroke-width:35.58;stroke-linecap:round;stroke-linejoin:round;stroke-miterlimit:2.61313}
    .str0 {stroke:#C63134;stroke-width:35.58;stroke-linecap:round;stroke-linejoin:round;stroke-miterlimit:2.61313}
    .str3 {stroke:#C63134;stroke-width:35.58;stroke-linecap:round;stroke-linejoin:round;stroke-miterlimit:2.61313}
    .fil1 {fill:none}
    .fil2 {fill:#FEFEFE}
    .fil3 {fill:#4B4B4D}
    .fil0 {fill:#C63134}
   ]]>
  </style>
 </defs>
 <g id="Layer_x0020_1">
  <metadata id="CorelCorpID_0Corel-Layer"/>
  <g id="_2466599318640">
   <g>
    <circle class="fil0" transform="matrix(-1.66429 -2.24043 2.24043 -1.66429 145.788 52.1189)" r="9.7"/>
    <g>
     <path class="fil1 str0" d="M372.72 21.49c9.51,82.07 -25.5,162.98 -91.82,212.25 -66.32,49.27 -153.89,59.41 -229.72,26.61"/>
     <path class="fil1 str1" d="M298.82 25.18c6.59,56.86 -17.66,112.92 -63.62,147.05 -45.95,34.13 -106.62,41.16 -159.16,18.43"/>
     <path class="fil1 str2" d="M220.86 42.37c3.13,27.01 -8.39,53.64 -30.22,69.86 -21.83,16.22 -50.65,19.55 -75.61,8.76"/>
     <path class="fil1 str3" d="M448.69 17.79c12.74,109.98 -34.17,218.41 -123.05,284.44 -88.88,66.02 -206.23,79.62 -307.85,35.66"/>
    </g>
   </g>
   <g>
    <path class="fil2" d="M239.68 50.95l-6.95 93.29 -39.7 52.6c0,0 -24.81,41.68 -23.82,47.64 0.99,5.95 10.92,59.54 10.92,59.54l41.68 68.48 109.16 21.83 48.63 -33.74 34.73 -48.63 15.88 -73.44 -33.74 -61.53 -34.73 -28.78 -2.98 -60.54 -9.92 -44.66 -30.76 -9.92 -63.51 6.95 -14.89 10.92z"/>
    <g>
     <path class="fil3" d="M380.8 150.73c-5.32,-3.85 -8.5,-10.21 -8.5,-17.02 0,-7.37 0,-64.73 0,-71.7 0,-21.66 -17.62,-39.28 -39.28,-39.28l-68.16 0c-21.67,0 -39.29,17.62 -39.29,39.28l0 71.7c0,6.8 -3.19,13.18 -8.52,17.04 -108.52,78.5 -54.6,251.34 79.95,253.14 137.44,1.97 193.31,-173.94 83.8,-253.16zm-83.42 225.2c-106.64,-1.42 -151.26,-139.32 -63.94,-202.53 12.58,-9.1 20.09,-23.93 20.09,-39.68l0 -10.36 31.42 0 0 82.79c-22.53,6.14 -39.14,26.79 -39.14,51.25l0 39.14c0,18.46 27.96,18.5 27.96,0l0 -39.14c0,-33.5 50.32,-33.53 50.32,0l0 39.14c0,18.46 27.96,18.5 27.96,0l0 -39.14c0,-24.45 -16.61,-45.1 -39.14,-51.25l0 -82.79 31.44 0 0 10.36c0,15.76 7.5,30.58 20.06,39.67 88.12,63.73 42.34,204.46 -67.03,202.54zm-43.85 -313.92c0,-6.24 5.08,-11.32 11.33,-11.32l68.16 0c6.24,0 11.32,5.08 11.32,11.32l0 33.38 -90.82 0 0 -33.38zm0 0z"/>
     <path class="fil3" d="M517 243.4l-39.04 0c-18.47,0 -18.49,27.96 0,27.96l39.04 0c18.47,0 18.49,-27.96 0,-27.96l0 0zm0 0z"/>
     <path class="fil3" d="M119.9 243.4l-39.04 0c-18.47,0 -18.49,27.96 0,27.96l39.04 0c18.47,0 18.49,-27.96 0,-27.96l0 0zm0 0z"/>
     <path class="fil3" d="M435.41 374.09c-13.06,-13.06 -32.85,6.69 -19.77,19.77l27.6 27.6c13,13.01 32.97,-6.56 19.77,-19.77l-27.61 -27.6zm0 0z"/>
     <path class="fil3" d="M284.95 436.41l0 39.04c0,18.47 27.96,18.49 27.96,0l0 -39.04c0,-18.47 -27.96,-18.49 -27.96,0zm0 0z"/>
     <path class="fil3" d="M162.46 374.09l-27.61 27.6c-13.31,13.31 6.97,32.57 19.77,19.77l27.6 -27.6c13.06,-13.06 -6.69,-32.85 -19.77,-19.77zm0 0z"/>
    </g>
   </g>
  </g>
 </g>
</svg>
