<?xml version="1.0" encoding="UTF-8"?>
<!DOCTYPE svg PUBLIC "-//W3C//DTD SVG 1.1//EN" "http://www.w3.org/Graphics/SVG/1.1/DTD/svg11.dtd">
<!-- Creator: CorelDRAW 2018 (64-Bit) -->
<svg xmlns="http://www.w3.org/2000/svg" xml:space="preserve" width="2.26211in" height="1.97599in" version="1.1" style="shape-rendering:geometricPrecision; text-rendering:geometricPrecision; image-rendering:optimizeQuality; fill-rule:evenodd; clip-rule:evenodd"
viewBox="0 0 1682.89 1470.03"
 xmlns:xlink="http://www.w3.org/1999/xlink">
 <defs>
  <style type="text/css">
   <![CDATA[
    .str4 {stroke:#4B4B4D;stroke-width:82.66;stroke-miterlimit:22.9256}
    .str1 {stroke:#C63134;stroke-width:115.35;stroke-linecap:round;stroke-linejoin:round;stroke-miterlimit:2.61313}
    .str2 {stroke:#C63134;stroke-width:115.35;stroke-linecap:round;stroke-linejoin:round;stroke-miterlimit:2.61313}
    .str0 {stroke:#C63134;stroke-width:115.35;stroke-linecap:round;stroke-linejoin:round;stroke-miterlimit:2.61313}
    .str3 {stroke:#C63134;stroke-width:115.35;stroke-linecap:round;stroke-linejoin:round;stroke-miterlimit:2.61313}
    .fil1 {fill:none}
    .fil2 {fill:#FEFEFE}
    .fil0 {fill:#C63134}
   ]]>
  </style>
 </defs>
 <g id="Layer_x0020_1">
  <metadata id="CorelCorpID_0Corel-Layer"/>
  <g id="_2466536747648">
   <circle class="fil0" transform="matrix(-1.66429 -2.24043 2.24043 -1.66429 472.627 168.963)" r="31.45"/>
   <path class="fil1 str0" d="M1208.32 69.68c30.82,266.07 -82.66,528.37 -297.67,688.09 -215.01,159.72 -498.91,192.6 -744.74,86.26"/>
   <path class="fil1 str1" d="M968.75 81.63c21.35,184.33 -57.27,366.06 -206.23,476.72 -148.96,110.66 -345.66,133.44 -515.97,59.76"/>
   <path class="fil1 str2" d="M716 137.37c10.14,87.57 -27.2,173.91 -97.98,226.48 -70.77,52.57 -164.21,63.39 -245.12,28.39"/>
   <path class="fil1 str3" d="M1454.61 57.68c41.29,356.55 -110.77,708.06 -398.9,922.11 -288.14,214.04 -668.59,258.1 -998.02,115.59"/>
   <path class="fil2 str4" d="M1444.91 365.04c-126.81,-126.81 -295.41,-196.64 -474.75,-196.64 -179.33,0 -347.93,69.84 -474.75,196.64 -126.81,126.81 -196.65,295.41 -196.65,474.75 0,119.77 31.94,237.36 92.37,340.05 58.63,99.62 142.44,182.95 242.4,240.98 9.2,5.34 19.25,7.88 29.17,7.88 20.07,0 39.61,-10.39 50.41,-29.01 16.14,-27.8 6.69,-63.43 -21.12,-79.58 -170.73,-99.11 -276.79,-283.15 -276.79,-480.32 0,-306 248.95,-554.95 554.95,-554.95 306,0 554.95,248.95 554.95,554.95 0,129.35 -35.02,237.25 -101.3,312.04 -53.93,60.87 -126.35,95.79 -198.66,95.79 -72.47,0 -154.59,-38.13 -184.78,-139.11 116.81,-24.12 204.89,-127.78 204.89,-251.62l0 -169.66c0,-8.03 -6.52,-14.55 -14.55,-14.55l-77.87 -0 0 -158.84c0,-32.15 -26.06,-58.22 -58.22,-58.22 -32.16,0 -58.23,26.07 -58.23,58.22l0 158.84 -132.44 0 0 -158.84c0,-32.15 -26.06,-58.22 -58.22,-58.22 -32.16,0 -58.22,26.07 -58.22,58.22l0 158.84 -77.88 0c-8.04,0 -14.55,6.52 -14.55,14.55l0 169.66c0,131.27 98.97,239.85 226.2,255.08 13.67,64.22 42.2,119.44 84.46,162.53 56.64,57.76 134.57,89.56 219.42,89.56 105.62,0 209.79,-49.21 285.82,-135.01 59.57,-67.23 130.59,-189.34 130.59,-389.26 -0.01,-179.33 -69.84,-347.93 -196.65,-474.74z"/>
  </g>
 </g>
</svg>
