<?xml version="1.0" encoding="utf-8"?>
<!-- Svg Vector Icons : http://www.onlinewebfonts.com/icon -->
<!DOCTYPE svg PUBLIC "-//W3C//DTD SVG 1.1//EN" "http://www.w3.org/Graphics/SVG/1.1/DTD/svg11.dtd">
<svg version="1.1" xmlns="http://www.w3.org/2000/svg" xmlns:xlink="http://www.w3.org/1999/xlink" x="0px" y="0px" viewBox="0 0 1000 1000" enable-background="new 0 0 1000 1000" xml:space="preserve">
<metadata> Svg Vector Icons : http://www.onlinewebfonts.com/icon </metadata>
<g><path d="M892,500.3H659.6L500,628.9V500.3h-19.6c-54.1,0-98-43.9-98-98V186.7c0-54.1,43.9-98,98-98H892c54.1,0,98,43.9,98,98v215.6C990,456.4,946.1,500.3,892,500.3z M528.8,251c15.3,0,26.8,4.5,32.9,7.5l8-28.7c-9.4-4.5-22.3-8-40.4-8c-37.2,0-59.9,20.4-59.9,47.5c0,23,17.4,37.6,43.7,47c19,6.6,26.6,12.3,26.6,22.1c0,10.4-8.7,17.2-25.2,17.2c-15.3,0-30.3-4.9-39.7-9.9l-7.3,29.4c8.9,4.9,26.8,9.9,44.9,9.9c43.5,0,63.7-22.6,63.7-49.1c0-22.3-12.9-36.9-40.9-47.2c-20.7-7.8-29.4-12.2-29.4-22.3C505.7,258.3,513.2,251,528.8,251z M763.4,224.2h-47l-16.7,52.7c-5.4,17.6-10.8,38.6-15,56.9h-0.9c-3.5-18.6-8.2-38.3-13.4-56.7l-15.5-52.9h-47.7L597,382.7h33.1l3.1-60.2c1-19.7,1.9-44.2,2.6-65.6h0.5c4,20.7,9.2,43.2,14.4,62.1l16.9,61.1h28l19.3-61.8c6.1-18.6,12.7-41.1,17.9-61.3h0.5c0,23,0.7,46.1,1.4,65.1l2.6,60.6h34.8L763.4,224.2z M854.8,251c15.3,0,26.8,4.5,32.9,7.5l8-28.7c-9.4-4.5-22.4-8-40.4-8c-37.2,0-60,20.4-60,47.5c0,23,17.4,37.6,43.7,47c19.1,6.6,26.6,12.3,26.6,22.1c0,10.4-8.7,17.2-25.1,17.2c-15.3,0-30.3-4.9-39.7-9.9l-7.3,29.4c8.9,4.9,26.8,9.9,44.9,9.9c43.5,0,63.7-22.6,63.7-49.1c0-22.3-13-36.9-40.9-47.2c-20.7-7.8-29.4-12.2-29.4-22.3C831.7,258.3,839.2,251,854.8,251z M343.2,147.5v19.2h-294v646.9h431.8v-95.5l39.1-39.1v227.5c0,44.8-36.7,83.1-81.5,83.1h-347c-44.8,0-81.5-38.3-81.5-83.1V91.8C10,47,46.7,10.3,91.5,10.3h347c29.3,0,54.9,15.8,69.3,39.2h-66.6C387.1,49.5,343.2,93.4,343.2,147.5z M270.7,955.5c27,0,48.9-21.9,48.9-48.9c0-27.1-21.9-48.9-48.9-48.9c-27,0-48.9,21.8-48.9,48.9C221.9,933.6,243.7,955.5,270.7,955.5z M319.6,73.8h-97.8c-9,0-16.3,7.3-16.3,16.3c0,9,7.3,16.3,16.3,16.3h97.8c9,0,16.3-7.3,16.3-16.3C335.9,81.1,328.6,73.8,319.6,73.8z"/></g>
</svg>