<?xml version="1.0" encoding="utf-8"?>
<!-- Svg Vector Icons : http://www.onlinewebfonts.com/icon -->
<!DOCTYPE svg PUBLIC "-//W3C//DTD SVG 1.1//EN" "http://www.w3.org/Graphics/SVG/1.1/DTD/svg11.dtd">
<svg version="1.1" xmlns="http://www.w3.org/2000/svg" xmlns:xlink="http://www.w3.org/1999/xlink" x="0px" y="0px" viewBox="0 0 1000 1000" enable-background="new 0 0 1000 1000" xml:space="preserve">
<metadata> Svg Vector Icons : http://www.onlinewebfonts.com/icon </metadata>
<g><g fill="#ffffff" transform="translate(0.000000,511.000000) scale(0.100000,-0.100000)"><path d="M4666.6,4968c-86.5-86.5-31-221.8,95.4-221.8c122,0,175.2,161.9,77.6,230.6C4773,5023.5,4719.8,5021.2,4666.6,4968z"/><path d="M5165.6,4956.9c-64.3-62.1-68.8-93.1-20-161.9c37.7-55.4,157.5-68.8,204-22.2c46.6,46.6,33.3,166.3-22.2,204C5258.7,5025.7,5227.7,5021.2,5165.6,4956.9z"/><path d="M4223,4930.3c-88.7-31-117.5-153-48.8-212.9c57.7-53.2,175.2-48.8,204,4.4C4444.8,4848.3,4351.6,4976.9,4223,4930.3z"/><path d="M5653.5,4892.6c-71-71-71-110.9,0-181.9c42.1-42.1,68.8-51,106.4-39.9c79.8,24.4,104.2,55.4,104.2,130.8s-24.4,106.4-104.2,130.8C5722.2,4943.6,5695.6,4934.8,5653.5,4892.6z"/><path d="M3690.8,4748.5c-55.4-104.2,6.6-224,115.3-224c55.4,0,128.6,79.8,128.6,139.7C3934.7,4777.3,3741.8,4841.6,3690.8,4748.5z"/><path d="M6125.8,4766.2c-53.2-31-53.2-157.5,0-204c115.3-104.2,279.5,44.4,195.2,173C6281.1,4795,6194.6,4808.3,6125.8,4766.2z"/><path d="M3260.5,4555.5c-79.8-77.6-15.5-230.6,93.1-230.6c59.9,0,137.5,73.2,137.5,128.6C3491.2,4568.8,3340.4,4635.4,3260.5,4555.5z"/><path d="M6567.2,4551.1c-82.1-88.7-20-226.2,102-226.2c62.1,0,126.4,71,126.4,137.5c0,55.4-79.8,128.6-139.7,128.6C6627.1,4591,6587.1,4573.3,6567.2,4551.1z"/><path d="M2841.4,4285c-79.8-86.5-15.5-226.2,99.8-226.2c55.4,0,128.6,79.8,128.6,139.7C3069.8,4309.4,2914.6,4367,2841.4,4285z"/><path d="M7004.1,4307.1c-51-33.3-75.4-110.9-53.2-168.5c37.7-104.2,206.2-102,246.2,2.2c33.3,86.5-31,184.1-124.2,184.1C7048.4,4324.9,7017.4,4316,7004.1,4307.1z"/><path d="M2471,3970c-86.5-86.5-31-221.8,95.4-221.8c122,0,175.2,161.9,77.6,230.6C2577.5,4025.5,2524.2,4023.3,2471,3970z"/><path d="M7336.7,3934.6c-82.1-122,55.4-259.5,177.4-177.4c66.5,42.1,77.6,144.2,22.2,199.6C7480.9,4012.2,7378.9,4001.1,7336.7,3934.6z"/><path d="M1692.6,3628.5c-700.8-146.4-1253-700.8-1397.2-1397.2C129.1,1428.5,521.6,627.9,1257.9,266.4C1515.2,140,1739.2,89,2027.5,89c283.9,0,443.5,26.6,667.5,113.1c532.3,204,933.7,658.7,1086.7,1228.6c66.5,248.4,66.5,638.7,0,887.1c-97.6,368.1-321.6,714.1-612.1,949.2c-155.2,124.2-476.8,288.3-665.3,339.3C2322.4,3655.1,1878.9,3666.2,1692.6,3628.5z M2278.1,2912.2c292.7-161.9,370.4-563.3,161.9-838.3c-128.6-168.5-385.9-248.4-601-188.5c-130.8,35.5-303.8,190.7-354.8,314.9c-59.9,144.2-51,337.1,17.7,476.8C1650.4,2967.6,1987.5,3069.6,2278.1,2912.2z M1741.4,1783.4c161.9-79.8,352.6-79.8,521.2,2.2c113.1,55.4,130.8,57.7,226.2,33.3c153-37.7,239.5-99.8,292.7-212.9c44.4-88.7,48.8-126.4,39.9-359.3c-8.9-288.3-44.4-388.1-144.2-428c-33.3-11.1-195.2-33.3-363.7-44.4c-334.9-24.4-900.4,2.2-1002.4,48.8c-95.4,44.4-137.5,188.5-137.5,474.6c0,328.2,46.6,412.5,268.3,499C1583.9,1852.1,1610.5,1852.1,1741.4,1783.4z"/><path d="M7682.7,3646.2c-736.3-144.2-1284.1-638.7-1465.9-1328.4c-73.2-270.6-66.5-665.3,11.1-927c166.3-561.1,554.4-986.9,1075.6-1188.7C7527.5,115.6,7687.1,89,7971,89c1100,0,1945,1015.7,1740.9,2095.8c-104.2,561.1-456.9,1033.5-951.4,1275.2c-122,62.1-283.9,126.4-357,146.4C8272.6,3639.6,7793.6,3666.2,7682.7,3646.2z M8141.8,2947.7c215.1-66.5,361.5-279.4,361.5-527.8c-2.2-321.6-226.2-554.4-532.3-556.7c-177.4,0-279.4,35.5-388.1,135.3c-237.3,219.6-250.6,587.7-28.8,816.1C7709.3,2972.1,7906.7,3016.4,8141.8,2947.7z M7684.9,1781.1c166.3-86.5,361.5-86.5,527.9,0c106.4,55.4,126.4,57.7,210.7,35.5c135.3-37.7,246.2-99.8,288.3-164.1c59.9-93.1,84.3-303.8,59.9-514.5c-33.3-261.7-59.9-308.3-217.3-341.5c-173-39.9-1035.7-39.9-1208.7-2.2c-175.2,39.9-204,102-212.9,463.5c-6.6,246.2-4.4,279.4,39.9,357c53.2,93.1,133.1,150.8,275,195.2C7567.4,1847.7,7551.8,1849.9,7684.9,1781.1z"/><path d="M5172.2,2972.1l-6.6-255l-381.5-11.1c-363.7-11.1-383.7-13.3-436.9-64.3c-122-115.3-122-288.3,0-403.6c53.2-51,73.2-53.2,436.9-64.3l381.5-11.1l11.1-250.6l11.1-248.4l388.1,388.1l388.1,388.1l-392.5,392.5l-392.5,392.5L5172.2,2972.1z"/><path d="M4422.6,1452.9l-388.1-388.1l394.8-394.7l392.5-392.5v248.4v246.2l363.7,8.9c412.5,6.6,452.4,22.2,532.2,184.1c37.7,77.6,39.9,93.1,11.1,173c-57.7,161.9-104.2,179.6-525.6,192.9l-370.4,11.1l-11.1,250.6l-11.1,248.4L4422.6,1452.9z"/><path d="M1863.4-137.2c-46.6-66.5-44.4-119.7,8.9-173c86.5-86.5,221.8-31.1,221.8,93.1C2094-99.5,1929.9-41.8,1863.4-137.2z"/><path d="M7975.4-112.8c-77.6-28.8-106.5-117.5-64.3-184.1c48.8-73.2,115.3-90.9,179.6-48.8C8226-259.2,8128.5-57.4,7975.4-112.8z"/><path d="M2182.7-516.4c-77.6-39.9-102-90.9-77.6-161.9c48.8-133.1,255-106.5,255,31C2360.1-534.2,2273.6-472.1,2182.7-516.4z"/><path d="M7680.5-531.9c-99.8-57.7-53.2-244,59.9-244c95.4,0,141.9,37.7,141.9,119.8C7882.3-538.6,7778.1-474.3,7680.5-531.9z"/><path d="M4733.1-578.5C2810.3-685,1189.2-2328.3,1122.6-4240l-11.1-326l79.8-79.8c64.3-64.3,93.1-77.6,168.5-77.6c51,0,122,15.5,157.5,33.3c66.5,33.3,133.1,135.3,133.1,199.6c0,28.8,77.6,33.3,643.1,33.3h643.1v-122c0-181.9,95.4-259.5,217.3-175.2c42.1,28.8,48.8,53.2,48.8,166.3v130.8h831.7h831.7v-122c0-133.1,48.8-210.7,133.1-210.7c84.3,0,133.1,77.6,133.1,210.7v122H5975h842.7V-4566c0-117.5,62.1-224,130.9-224c86.5,0,133.1,64.3,148.6,199.6l15.5,133.1h616.5c543.3,0,618.8-4.4,618.8-33.3c0-20,15.5-64.3,33.3-99.8c79.8-155.2,319.4-177.4,441.3-42.1l64.3,71l-13.3,323.8c-64.3,1556.8-1131.1,2960.7-2632.5,3464.1C5746.6-609.6,5285.3-549.7,4733.1-578.5z M4866.2-1975.7v-867.1l-292.7,15.5c-346,15.5-691.9,46.6-931.4,79.8l-168.5,24.4l42.1,124.2c66.5,192.9,252.8,570,368.1,742.9c135.3,204,374.8,456.9,534.5,563.3c104.2,68.7,368.1,181.9,432.5,184.1C4859.5-1108.6,4866.2-1498.9,4866.2-1975.7z M5482.7-1221.7c314.9-153,629.8-512.3,862.7-984.7c93.1-188.5,217.3-496.8,204-510.1c-28.8-26.6-1082.2-122-1355-122h-62.1v867.1v867.1l84.3-13.3C5260.9-1126.3,5380.7-1172.9,5482.7-1221.7z M3859.3-1434.6c-197.4-235.1-397-578.8-538.9-924.8c-64.3-159.7-126.4-292.7-137.5-297.2c-64.3-22.2-756.3,208.5-789.5,261.7c-17.7,31.1,235.1,308.3,423.6,467.9c210.7,175.2,454.6,341.5,652,441.3c148.6,75.4,485.7,219.6,516.7,221.8C3994.6-1263.8,3939.2-1341.4,3859.3-1434.6z M6201.2-1339.2c337.1-126.4,680.8-332.7,986.9-594.4c153-133.1,368.1-354.8,414.7-434.7c28.8-46.6-379.2-208.5-709.7-279.5l-68.8-15.5l-59.9,173c-133.1,374.8-397,836.1-623.2,1088.9c-57.7,62.1-97.6,115.3-90.9,115.3S6125.8-1310.4,6201.2-1339.2z M2373.4-2692c153-75.4,405.8-161.9,625.4-212.9c62.1-13.3,115.3-35.5,115.3-46.6c0-11.1-24.4-144.2-55.4-292.7c-48.8-239.5-64.3-363.7-113.1-829.5l-11.1-117.5h-632.1h-629.8v64.3c0,241.7,170.8,836.1,337.1,1162.1c75.4,150.8,190.7,348.2,204,348.2C2216-2616.6,2286.9-2649.9,2373.4-2692z M7866.8-2743c124.2-208.5,206.3-383.7,290.5-623.2c77.6-224,168.5-634.3,168.5-760.7v-64.3H7716c-470.2,0-612.1,6.6-618.7,28.8c-4.4,13.3-24.4,181.9-44.4,370.4c-31,297.2-82,594.3-135.3,802.8c-13.3,55.4-8.9,59.9,82.1,84.3c224,55.4,525.6,159.7,638.7,219.6c66.5,35.5,128.6,66.5,137.5,66.5C7784.7-2616.6,7824.6-2674.3,7866.8-2743z M3901.4-3049.1c146.4-15.5,423.6-37.7,616.5-46.6l348.2-15.5l-4.4-534.5l-6.7-534.5l-813.9-6.6l-816.1-4.4v137.5c0,170.8,48.8,525.6,113.1,836.1l48.8,228.4l124.2-13.3C3579.9-3011.4,3755.1-3031.3,3901.4-3049.1z M6660.3-3075.7c64.3-241.7,157.5-882.7,157.5-1073.4c0-39.9-31.1-42.1-842.7-42.1h-842.7v538.9v538.9l472.4,28.8c257.3,15.5,561.1,39.9,669.8,55.4c110.9,15.5,237.3,31,281.7,33.3C6633.7-2993.6,6640.4-2998.1,6660.3-3075.7z"/><path d="M2475.4-900.1c-57.7-39.9-66.5-166.3-15.5-208.5c53.2-44.4,148.6-33.3,192.9,22.2c53.2,66.5,51,102-15.5,166.3C2575.2-855.7,2544.2-851.3,2475.4-900.1z"/><path d="M7343.4-926.7c-117.5-128.6,62.1-303.8,184.1-181.9c53.2,53.2,55.4,106.4,8.9,173C7494.2-875.7,7394.4-871.3,7343.4-926.7z"/></g></g>
</svg>
