<?xml version="1.0" encoding="UTF-8"?>
<!DOCTYPE svg PUBLIC "-//W3C//DTD SVG 1.1//EN" "http://www.w3.org/Graphics/SVG/1.1/DTD/svg11.dtd">
<!-- Creator: CorelDRAW 2018 (64-Bit) -->
<svg xmlns="http://www.w3.org/2000/svg" xml:space="preserve" width="1.34169in" height="1.34309in" version="1.1" style="shape-rendering:geometricPrecision; text-rendering:geometricPrecision; image-rendering:optimizeQuality; fill-rule:evenodd; clip-rule:evenodd"
viewBox="0 0 328.74 329.08"
 xmlns:xlink="http://www.w3.org/1999/xlink">
 <defs>
  <style type="text/css">
   <![CDATA[
    .fil2 {fill:#40596B}
    .fil4 {fill:#CDD6E0}
    .fil3 {fill:#F2F2F2}
    .fil1 {fill:#F8B64C}
    .fil5 {fill:#FF7058}
    .fil0 {fill:#FFD15C}
   ]]>
  </style>
 </defs>
 <g id="Layer_x0020_1">
  <metadata id="CorelCorpID_0Corel-Layer"/>
  <g id="_2909798672064">
   <path class="fil0" d="M328.74 315.38c0,4.11 -1.37,7.53 -4.11,10.27 -2.74,2.05 -5.48,3.42 -9.59,3.42l-301.34 0c-3.42,0 -6.85,-1.37 -9.59,-3.42 -2.74,-2.74 -4.11,-6.16 -4.11,-10.27l0 -200.67 328.74 0 0 200.67z"/>
   <path class="fil1" d="M324.63 325.66c-2.74,2.05 -5.48,3.42 -9.59,3.42l-301.34 0c-3.42,0 -6.85,-1.37 -9.59,-3.42l160.26 -137.66 160.26 137.66z"/>
   <path class="fil2" d="M328.74 114.72l-46.57 33.56 -108.89 78.08c-5.48,4.11 -13.01,4.11 -18.49,0l-108.21 -78.08 -46.57 -33.56 46.57 -33.56 101.36 -72.6 7.53 -5.48c5.48,-4.11 13.01,-4.11 18.49,0l7.53 5.48 48.63 34.93 23.97 17.12 28.08 20.55 46.57 33.56z"/>
   <path class="fil3" d="M282.17 51.02l0 97.25 -108.89 78.08c-5.48,4.11 -13.01,4.11 -18.49,0l-108.21 -78.08 0 -126.02c0,-7.53 6.16,-13.7 13.7,-13.7l178.75 0 43.15 42.46z"/>
   <path class="fil4" d="M239.71 40.07c0,6.16 4.79,10.96 10.96,10.96l31.5 0 -42.46 -42.46 0 31.51 0 0z"/>
   <path class="fil5" d="M204.78 146.22l10.96 0c-3.42,7.53 -8.9,13.01 -16.44,17.12 -8.22,4.79 -18.49,6.85 -30.82,6.85 -11.64,0 -21.92,-2.06 -30.14,-6.16 -8.22,-4.11 -15.07,-9.59 -19.18,-17.81 -4.11,-7.53 -6.16,-16.44 -6.16,-25.34 0,-10.27 2.06,-19.18 6.85,-28.08 4.79,-8.9 10.96,-15.07 19.18,-19.18 8.22,-4.11 17.81,-6.16 28.08,-6.16 8.9,0 17.12,2.05 23.97,5.48 6.85,3.42 12.33,8.22 15.75,15.07 3.42,6.16 5.48,13.7 5.48,21.23 0,8.9 -2.74,17.12 -8.22,24.66 -6.85,9.59 -15.75,13.7 -26.71,13.7 -2.74,0 -5.48,-0.68 -6.85,-1.37 -1.37,-1.37 -2.74,-2.74 -2.74,-4.79 -4.11,4.11 -8.9,6.16 -14.38,6.16 -6.16,0 -10.96,-2.05 -14.38,-6.16 -4.11,-4.11 -6.16,-9.59 -6.16,-16.44 0,-8.22 2.05,-15.75 6.85,-23.29 5.48,-8.22 13.01,-12.33 21.92,-12.33 6.16,0 10.96,2.74 14.38,7.53l1.37 -6.16 14.38 0 -8.22 38.35c-0.68,2.74 -0.68,4.11 -0.68,4.79 0,0.69 0,1.37 0.68,2.06 0.68,0.68 0.68,0.68 1.37,0.68 1.37,0 4.11,-1.37 6.85,-3.42 3.42,-2.74 6.85,-6.16 8.9,-10.96 2.05,-4.79 3.42,-9.59 3.42,-14.38 0,-8.9 -3.42,-16.44 -9.59,-21.92 -6.16,-6.16 -15.07,-8.9 -26.71,-8.9 -9.59,0 -17.81,2.05 -24.66,6.16 -6.85,4.11 -11.64,9.59 -15.07,16.44 -3.42,6.85 -4.79,14.38 -4.79,22.6 0,7.53 2.05,14.38 5.48,20.55 4.11,6.16 8.9,10.96 15.75,13.7 6.85,2.74 14.38,4.11 23.29,4.11 8.22,0 15.75,-1.37 21.92,-3.42 6.16,-2.74 10.96,-6.16 15.07,-10.96zm-58.21 -21.92c0,4.79 0.69,7.53 2.74,10.27 2.05,2.05 4.11,3.42 6.85,3.42 2.05,0 4.11,-0.68 5.48,-1.37 1.37,-0.68 2.74,-2.05 4.11,-3.42 2.05,-2.05 3.42,-5.48 4.79,-9.59 1.37,-4.11 2.05,-8.22 2.05,-11.64 0,-4.11 -0.68,-6.85 -2.74,-9.59 -2.06,-2.05 -4.11,-3.42 -6.85,-3.42 -2.74,0 -6.16,1.37 -8.22,3.42 -2.74,2.05 -4.79,5.48 -6.16,10.27 -1.37,4.11 -2.05,8.22 -2.05,11.64z"/>
  </g>
 </g>
</svg>
