<?xml version="1.0" encoding="UTF-8"?>
<!DOCTYPE svg PUBLIC "-//W3C//DTD SVG 1.1//EN" "http://www.w3.org/Graphics/SVG/1.1/DTD/svg11.dtd">
<!-- Creator: CorelDRAW 2018 (64-Bit) -->
<svg xmlns="http://www.w3.org/2000/svg" xml:space="preserve" width="1.68135in" height="1.64302in" version="1.1" style="shape-rendering:geometricPrecision; text-rendering:geometricPrecision; image-rendering:optimizeQuality; fill-rule:evenodd; clip-rule:evenodd"
viewBox="0 0 2923.02 2856.38"
 xmlns:xlink="http://www.w3.org/1999/xlink">
 <defs>
  <style type="text/css">
   <![CDATA[
    .str0 {stroke:#FEFEFE;stroke-width:24.14;stroke-miterlimit:22.9256}
    .fil1 {fill:none}
    .fil0 {fill:#E6E7E8}
    .fil3 {fill:#848688}
    .fil4 {fill:#C52E3E}
    .fil2 {fill:url(#id0)}
   ]]>
  </style>
  <linearGradient id="id0" gradientUnits="userSpaceOnUse" x1="382.36" y1="2879.97" x2="3218.37" y2="31.57">
   <stop offset="0" style="stop-opacity:1; stop-color:#C52E3E"/>
   <stop offset="0.701961" style="stop-opacity:1; stop-color:#D9303B"/>
   <stop offset="1" style="stop-opacity:1; stop-color:#ED3237"/>
  </linearGradient>
 </defs>
 <g id="Layer_x0020_1">
  <metadata id="CorelCorpID_0Corel-Layer"/>
  <circle class="fil0" cx="1542.51" cy="1380.51" r="1380.51"/>
  <circle class="fil1 str0" cx="1542.51" cy="1380.51" r="1260.46"/>
  <path class="fil2" d="M1477.06 2802.11l0 -242.53 39.43 -7.48c66.12,-12.54 128.94,-34.95 186.82,-65.64 58.88,-31.22 112.74,-71.24 159.85,-118.35 61.65,-61.64 111.3,-135.14 145.1,-216.62 32.5,-78.35 50.46,-164.4 50.46,-254.73l0 -393.79c0,-6.97 -1.33,-13.48 -3.73,-19.25 -2.59,-6.24 -6.39,-11.88 -11.06,-16.58l-0.09 0.09 -0.18 -0.18 0.09 -0.09c-4.7,-4.67 -10.34,-8.47 -16.58,-11.06 -5.78,-2.4 -12.29,-3.73 -19.25,-3.73 -7.06,0 -13.61,1.33 -19.4,3.73 -5.92,2.46 -11.37,6.11 -16.04,10.67l-0.39 0.39c-4.76,4.76 -8.6,10.46 -11.22,16.76 -2.42,5.8 -3.76,12.31 -3.76,19.26l0 393.79c0,76.27 -15.3,149.24 -42.98,215.97 -28.73,69.26 -70.74,131.54 -122.77,183.56 -52.02,52.02 -114.3,94.04 -183.55,122.77 -66.73,27.69 -139.7,42.98 -215.96,42.98 -76.27,0 -149.24,-15.3 -215.97,-42.98 -69.26,-28.73 -131.54,-70.74 -183.56,-122.77 -52.02,-52.02 -94.04,-114.3 -122.77,-183.56 -27.69,-66.73 -42.98,-139.7 -42.98,-215.97l0 -565.28 1276.64 0c7.05,0 13.6,-1.33 19.4,-3.73 6.12,-2.53 11.74,-6.36 16.53,-11.15 4.72,-4.72 8.54,-10.39 11.15,-16.67 2.4,-5.78 3.73,-12.28 3.73,-19.25 0,-6.97 -1.33,-13.48 -3.73,-19.26 -2.61,-6.28 -6.43,-11.96 -11.15,-16.67 -4.79,-4.79 -10.41,-8.62 -16.53,-11.15 -5.8,-2.4 -12.35,-3.73 -19.4,-3.73l-266.76 0 0 -527.17c0,-7.05 -1.33,-13.61 -3.73,-19.4 -2.44,-5.9 -6.11,-11.35 -10.66,-16.03l-0.4 -0.4c-4.76,-4.76 -10.46,-8.6 -16.75,-11.22 -5.81,-2.42 -12.32,-3.76 -19.27,-3.76 -6.95,0 -13.45,1.34 -19.26,3.76 -6.3,2.62 -11.99,6.47 -16.76,11.22l-0.39 0.39c-4.57,4.69 -8.23,10.14 -10.68,16.04 -2.4,5.8 -3.73,12.35 -3.73,19.4l0 527.17 -685.95 0 0 -527.17c0,-7.05 -1.33,-13.61 -3.73,-19.4 -2.45,-5.91 -6.11,-11.36 -10.68,-16.04l-0.39 -0.39c-4.76,-4.76 -10.46,-8.6 -16.76,-11.22 -5.8,-2.42 -12.31,-3.76 -19.25,-3.76 -7.06,0 -13.61,1.33 -19.4,3.73 -6.12,2.53 -11.74,6.37 -16.53,11.16 -4.8,4.8 -8.62,10.42 -11.16,16.53 -2.4,5.8 -3.73,12.35 -3.73,19.4l0 527.17 -266.76 0c-7.05,0 -13.61,1.33 -19.4,3.73 -6.13,2.54 -11.74,6.36 -16.53,11.15 -4.72,4.72 -8.54,10.39 -11.15,16.67 -2.4,5.78 -3.73,12.29 -3.73,19.26 0,6.97 1.33,13.48 3.73,19.25 2.59,6.24 6.39,11.88 11.06,16.58l0.09 -0.09 0.18 0.18 -0.09 0.09c4.54,4.51 9.82,8.18 15.56,10.69 5.68,2.48 11.82,3.98 18.13,4.22l46.6 1.79 0 563.37c0,90.34 17.96,176.39 50.46,254.72 33.8,81.49 83.45,154.99 145.1,216.63 47.98,47.98 102.8,88.56 162.64,119.93 58.83,30.84 122.82,53.15 190.24,65.28l39.81 7.17 0 198.61 -52.44 -4.67c-151.41,-13.48 -295.2,-53.33 -426.71,-114.88 -135.88,-63.61 -258.54,-150.11 -362.85,-254.42 -117.7,-117.7 -212.66,-258.59 -277.6,-415.39 -62.48,-150.84 -96.97,-315.98 -96.97,-488.89 0,-172.91 34.49,-338.05 96.97,-488.89 64.95,-156.8 159.91,-297.7 277.6,-415.4 117.7,-117.7 258.6,-212.66 415.4,-277.6 150.84,-62.48 315.98,-96.97 488.89,-96.97 131.83,0 260.37,20.25 382.04,58.27 124.21,38.81 241.16,96.29 347.05,169.74 106.15,73.63 201.04,163.07 280.81,265.62 77.92,100.18 141.82,213.4 188.1,337.2 4.63,12.44 13.88,21.83 25.06,26.95 11.2,5.12 24.37,5.98 36.81,1.35 12.44,-4.63 21.83,-13.87 26.95,-25.06 5.12,-11.2 5.98,-24.37 1.35,-36.81 -49.55,-132.53 -118.38,-254.32 -202.64,-362.65 -86.14,-110.76 -188.09,-206.98 -301.72,-285.81 -113.89,-79.01 -239.76,-140.89 -373.47,-182.76 -130.46,-40.85 -268.5,-62.61 -410.33,-62.61 -186.61,0 -364.32,37.01 -526.15,104.04 -167.98,69.58 -319.42,171.8 -446.43,298.81 -127.01,127.01 -229.23,278.45 -298.81,446.43 -67.03,161.84 -104.04,339.55 -104.04,526.15 0,186.61 37.01,364.32 104.04,526.15 69.58,167.98 171.8,319.42 298.81,446.42 127.01,127.01 278.44,229.23 446.43,298.82 161.84,67.03 339.55,104.04 526.15,104.04 5.98,0 1.96,0.14 3.85,0.08l38.49 -0.89 12.4 -0.42c11.72,-0.45 22.42,-5.26 30.6,-12.83 8.17,-7.55 13.69,-17.91 15.04,-29.42l1.25 -10.69z"/>
  <g id="_2049378276800">
   <path class="fil3" d="M1104.44 1564.1c-20.75,5.61 -8.97,40.64 -3.2,53.77 3.05,6.96 4.89,9.75 6.53,18.2 3.82,19.7 3.09,49.07 2.09,70.05 -0.38,8.12 -3.45,11.57 -6.82,17.83 -39.9,74.15 -80.29,150.92 -118.35,226.1 -5.57,11.01 -11.14,26.89 -3.18,38.83 2.94,4.41 7.99,7.99 13.88,10.27 7.19,2.79 14.48,1.79 22.65,2.03 27.77,0.81 70.55,0.34 98.85,-0.27 18.85,-0.4 26.88,0.99 38.27,-10.92 12.16,-12.72 139.34,-221.18 141.26,-252.68 1.12,-20.44 0.82,-75.71 0,-92.75 10.37,-17.65 16.06,-45.6 12.59,-64.25 -1.23,-6.55 -4.33,-14.08 -8.54,-16.18 -3.18,-1.59 -126.33,-0.74 -147.31,-0.74 -9.6,0 -41.79,-1.16 -48.71,0.71z"/>
   <path class="fil4" d="M1603.18 1714.56c-16.97,2.56 -23.52,11.35 -30.92,23.84 -6.69,11.29 -13.55,23 -20.11,34.52 -13.29,23.35 -27.08,46.06 -40.42,69.41 -6.5,11.38 -13.24,23.15 -20.14,34.47 -6.94,11.4 -13.2,23.04 -20.1,34.52 -3.4,5.66 -6.64,11.29 -9.95,17.09 -3.22,5.64 -7.37,11.71 -10.18,17.41 -10.3,20.86 0.42,45.99 21.29,53.3 7.7,2.7 16.06,3.07 24.13,0.73 16.13,-4.65 20.08,-14.08 27.51,-27.12 6.64,-11.66 13.19,-23.19 20.04,-34.58 20.21,-33.62 40.43,-70.34 60.7,-103.75 3.14,-5.18 6.95,-12.64 11.44,-15.57 7.78,-5.09 15.36,1.01 14.56,9.9 -0.53,5.94 -15.37,29.66 -19.21,36.06 -10.16,16.89 -30.64,52.72 -39.37,69.88 -6.66,13.08 -26.04,45.67 -5.86,59.07 6.87,4.57 14.09,4.35 23.56,4.35 36.41,0 72.83,-0.31 109.24,-0.31 18.05,0 36.62,0.25 54.62,-0.12 24.2,-0.51 31.54,-18.29 29.1,-38.82 -0.69,-5.85 -0.9,-5.67 -3.74,-9.97l-32.16 -50.07c-14.01,-22.54 -28.92,-44.51 -42.95,-66.89l-58.75 -91.31c-1.81,-2.77 -3.06,-6.38 -4.78,-9.01 -6.17,-9.48 -19.53,-19.72 -37.56,-17z"/>
   <path class="fil4" d="M1363.12 1714.72c-12.01,2.01 -21.18,8.81 -26.97,18.13 -1.97,3.18 -3.77,6.47 -5.69,9.85 -7.36,12.94 -15.04,25.48 -22.46,38.48 -7.4,12.96 -14.73,25.67 -22.44,38.49 -7.69,12.79 -14.67,25.52 -22.44,38.5 -15.22,25.42 -29.76,51 -44.67,76.66 -3.61,6.21 -8.04,12.24 -9.68,20.82 -4.92,25.71 17.37,50.18 44.65,45.15 19.29,-3.56 24.44,-15.49 31.87,-28.45 7.45,-12.98 15.11,-25.58 22.52,-38.43l89.77 -153.45c3.98,-6.86 7.97,-12.05 9.55,-20.89 4.54,-25.51 -16.84,-49.41 -44,-44.87z"/>
   <path class="fil4" d="M1483.61 1714.57c-18.82,2.85 -25.39,14.15 -32.96,27.57 -7.3,12.96 -14.78,25.89 -22.43,38.52 -15.45,25.49 -29.53,51.41 -44.92,76.98 -7.56,12.57 -14.87,25.28 -22.22,38.16 -7.32,12.84 -15.02,25.41 -22.46,38.49 -3.68,6.45 -7.97,12.02 -9.85,20.59 -1.92,8.77 -0.37,18.52 3.29,25.58 12.78,24.63 44.55,26.45 60.34,11.04 6.24,-6.09 7.59,-10.25 12.22,-18.24 36.91,-63.8 75.26,-127.93 112.3,-191.88 3.66,-6.32 8.11,-12.49 9.81,-20.64 1.96,-9.36 0.4,-18.12 -3.39,-25.61 -5.95,-11.74 -20.41,-23.47 -39.73,-20.55z"/>
  </g>
 </g>
</svg>
