<?xml version="1.0" encoding="UTF-8"?>
<!DOCTYPE svg PUBLIC "-//W3C//DTD SVG 1.1//EN" "http://www.w3.org/Graphics/SVG/1.1/DTD/svg11.dtd">
<!-- Creator: CorelDRAW 2018 (64-Bit) -->
<svg xmlns="http://www.w3.org/2000/svg" xml:space="preserve" width="2.0416in" height="2.23954in" version="1.1" style="shape-rendering:geometricPrecision; text-rendering:geometricPrecision; image-rendering:optimizeQuality; fill-rule:evenodd; clip-rule:evenodd"
viewBox="0 0 4720.98 5178.69"
 xmlns:xlink="http://www.w3.org/1999/xlink">
 <defs>
  <style type="text/css">
   <![CDATA[
    .str4 {stroke:#4B4B4D;stroke-width:256.93;stroke-miterlimit:22.9256}
    .str1 {stroke:#C63134;stroke-width:358.53;stroke-linecap:round;stroke-linejoin:round;stroke-miterlimit:2.61313}
    .str2 {stroke:#C63134;stroke-width:358.54;stroke-linecap:round;stroke-linejoin:round;stroke-miterlimit:2.61313}
    .str0 {stroke:#C63134;stroke-width:358.54;stroke-linecap:round;stroke-linejoin:round;stroke-miterlimit:2.61313}
    .str3 {stroke:#C63134;stroke-width:358.55;stroke-linecap:round;stroke-linejoin:round;stroke-miterlimit:2.61313}
    .fil1 {fill:none}
    .fil4 {fill:#FEFEFE}
    .fil2 {fill:#4B4B4D}
    .fil3 {fill:#373435}
    .fil0 {fill:#C63134}
   ]]>
  </style>
 </defs>
 <g id="Layer_x0020_1">
  <metadata id="CorelCorpID_0Corel-Layer"/>
  <g id="_2466676885168">
   <circle class="fil0" transform="matrix(-1.66429 -2.24043 2.24043 -1.66429 1469.06 525.185)" r="97.77"/>
   <g>
    <path class="fil1 str0" d="M3755.78 216.57c95.78,827.01 -256.92,1642.31 -925.24,2138.77 -668.32,496.46 -1550.75,598.66 -2314.85,268.12"/>
    <path class="fil1 str1" d="M3011.13 253.72c66.36,572.96 -178,1137.83 -641.03,1481.79 -463.02,343.96 -1074.4,414.77 -1603.78,185.76"/>
    <path class="fil1 str2" d="M2225.53 426.97c31.53,272.21 -84.56,540.55 -304.53,703.96 -219.97,163.41 -510.41,197.04 -761.91,88.24"/>
    <path class="fil1 str3" d="M4521.33 179.27c128.36,1108.26 -344.3,2200.86 -1239.9,2866.16 -895.61,665.29 -2078.15,802.26 -3102.12,359.29"/>
   </g>
  </g>
  <path class="fil2" d="M1737.62 460.88c-172.96,0 -314.06,141.1 -314.06,314.06 0,3548.33 0,2071.89 0,3702.75 0,172.86 140.86,313.88 313.72,314.06 634.91,0.68 432.16,0.27 1067.19,0 172.85,-0.06 313.72,-141.2 313.72,-314.06 0,-1630.86 0,-154.42 0,-3702.75 0,-172.96 -141.1,-314.06 -314.06,-314.06 -634.7,0 -431.83,0 -1066.52,0zm108.92 3981.81c-86.42,-0.09 -156.91,-70.61 -156.91,-157.07 0,-931.9 0,-1456.4 0,-3318.47 0,-86.51 70.56,-157.07 157.07,-157.07 561.97,0 286.38,0 848.36,0 86.5,0 157.07,70.56 157.07,157.07 0,1862.07 0,2386.57 0,3318.47 0,86.46 -70.48,157.04 -156.91,157.07l-848.68 0z"/>
  <rect class="fil3" x="1614.34" y="692.81" width="1672.49" height="3887.12" rx="118.51" ry="118.51"/>
  <g id="_2466676887792">
   <path class="fil4 str4" d="M2654.07 271.51l1158.7 381.03c154.05,50.66 249.99,167.58 249.99,304.62l0 3345.24c0,133.14 -90.05,246.95 -237.6,300.33l-1158.81 419.19c-125.54,45.41 -258.83,35.97 -373.33,-26.46 -114.5,-62.43 -178.07,-160.31 -178.07,-274.17l0 -4144.92c0,-111.92 61.26,-208.17 172.55,-271.1 111.29,-62.94 241.43,-74.92 366.58,-33.77z"/>
   <ellipse class="fil2" cx="2579.64" cy="2645.53" rx="141.07" ry="196.94"/>
  </g>
 </g>
</svg>
