<?xml version="1.0" encoding="UTF-8"?>
<!DOCTYPE svg PUBLIC "-//W3C//DTD SVG 1.1//EN" "http://www.w3.org/Graphics/SVG/1.1/DTD/svg11.dtd">
<!-- Creator: CorelDRAW 2018 (64-Bit) -->
<svg xmlns="http://www.w3.org/2000/svg" xml:space="preserve" width="2.38642in" height="1.69333in" version="1.1" style="shape-rendering:geometricPrecision; text-rendering:geometricPrecision; image-rendering:optimizeQuality; fill-rule:evenodd; clip-rule:evenodd"
viewBox="0 0 1210.07 858.63"
 xmlns:xlink="http://www.w3.org/1999/xlink">
 <defs>
  <style type="text/css">
   <![CDATA[
    .str1 {stroke:#C63134;stroke-width:78.62;stroke-linecap:round;stroke-linejoin:round;stroke-miterlimit:2.61313}
    .str2 {stroke:#C63134;stroke-width:78.62;stroke-linecap:round;stroke-linejoin:round;stroke-miterlimit:2.61313}
    .str0 {stroke:#C63134;stroke-width:78.62;stroke-linecap:round;stroke-linejoin:round;stroke-miterlimit:2.61313}
    .str3 {stroke:#C63134;stroke-width:78.62;stroke-linecap:round;stroke-linejoin:round;stroke-miterlimit:2.61313}
    .fil1 {fill:none}
    .fil2 {fill:#FEFEFE}
    .fil4 {fill:#4B4B4D}
    .fil0 {fill:#C63134}
    .fil3 {fill:#4B4B4D;fill-rule:nonzero}
   ]]>
  </style>
 </defs>
 <g id="Layer_x0020_1">
  <metadata id="CorelCorpID_0Corel-Layer"/>
  <g id="_2466605119376">
   <g>
    <circle class="fil0" transform="matrix(-1.66429 -2.24043 2.24043 -1.66429 322.138 115.164)" r="21.44"/>
    <g>
     <path class="fil1 str0" d="M823.57 47.49c21,181.35 -56.34,360.13 -202.89,468.99 -146.55,108.87 -340.05,131.28 -507.6,58.79"/>
     <path class="fil1 str1" d="M660.29 55.64c14.55,125.64 -39.03,249.51 -140.57,324.93 -101.53,75.42 -235.6,90.95 -351.68,40.73"/>
     <path class="fil1 str2" d="M488.02 93.63c6.91,59.69 -18.54,118.53 -66.78,154.37 -48.24,35.83 -111.92,43.21 -167.07,19.35"/>
     <path class="fil1 str3" d="M991.44 39.31c28.15,243.02 -75.5,482.61 -271.89,628.5 -196.39,145.89 -455.7,175.92 -680.24,78.79"/>
    </g>
   </g>
   <g>
    <path class="fil2" d="M254.94 438.54c393.57,0 413.41,0 806.98,0l-168.01 286.62c-281.56,0 -189.4,0 -470.96,0l-168.01 -286.62z"/>
    <path class="fil3" d="M254.94 416.99l844.5 0 -193.27 329.72 -495.47 0 -193.28 -329.72 37.52 0zm769.45 43.1l-731.93 0 142.74 243.51 446.45 0 142.74 -243.51z"/>
    <rect class="fil4" x="106.79" y="416.06" width="1103.28" height="42.15" rx="7.65" ry="21.08"/>
    <rect class="fil4" transform="matrix(3.46656E-15 0.0593851 -1.6394 1.96992E-14 679.502 721.787)" width="1854.74" height="25.71" rx="12.86" ry="12.86"/>
    <rect class="fil4" x="603.35" y="816.47" width="110.14" height="42.15" rx="0.76" ry="21.08"/>
   </g>
  </g>
 </g>
</svg>
