<?xml version="1.0" encoding="utf-8"?>
<!-- Svg Vector Icons : http://www.onlinewebfonts.com/icon -->
<!DOCTYPE svg PUBLIC "-//W3C//DTD SVG 1.1//EN" "http://www.w3.org/Graphics/SVG/1.1/DTD/svg11.dtd">
<svg version="1.1" xmlns="http://www.w3.org/2000/svg" xmlns:xlink="http://www.w3.org/1999/xlink" x="0px" y="0px" viewBox="0 0 1000 1000" enable-background="new 0 0 1000 1000" xml:space="preserve">
<metadata> Svg Vector Icons : http://www.onlinewebfonts.com/icon </metadata>
<g><g transform="translate(0.000000,511.000000) scale(0.100000,-0.100000)"><path d="M2878.4,4460.7c-1139-300.2-2084.3-557.8-2105.6-574.8c-31.9-27.7-34.1-144.8-25.6-1490.3c8.5-1569.1,10.6-1615.9,132-2205.7c204.4-990,696.2-2022.6,1362.6-2852.9c640.8-802.7,1581.9-1552.1,2520.8-2011.9l236.3-115l251.2,123.5c483.3,240.6,955.9,542.9,1403,898.4c272.5,217.2,889.9,834.6,1105,1105c442.9,557.8,883.6,1337,1105,1954.5c189.5,532.3,319.3,1128.4,372.6,1696.8c10.7,138.4,21.3,819.7,21.3,1556.3c0,1222.1-2.1,1313.6-36.2,1343.4c-38.3,31.9-4179.3,1128.4-4243.2,1122C4960.6,5007.8,4015.3,4760.9,2878.4,4460.7z M6936.4,4288.2c1036.9-270.4,1935.3-506.7,1997-523.7l110.7-31.9V2504.1c0-674.9-10.7-1339.2-21.3-1473.3c-112.8-1311.5-594-2510.1-1435-3566.1c-223.6-278.9-796.3-851.6-1077.3-1073c-417.3-330-868.6-621.7-1313.6-849.5l-198-100.1l-217.2,110.7c-438.6,221.4-872.9,504.6-1294.5,838.8c-283.2,223.5-853.7,794.2-1081.5,1079.4c-834.6,1045.4-1320,2252.5-1430.7,3559.8c-10.6,134.1-21.3,798.4-21.3,1473.3v1228.5l80.9,23.4c385.4,112.8,3960,1039,3985.6,1032.6C5037.3,4784.3,5899.5,4558.6,6936.4,4288.2z"/><path d="M3306.4,3658c-1153.9-304.5-1669.2-447.1-1688.3-472.6c-44.7-57.5-23.4-2167.4,23.4-2469.7c215-1351.9,792-2471.8,1773.5-3434.1c313-306.6,572.7-519.5,902.7-747.3c247-170.3,640.8-400.3,683.4-400.3c40.4,0,479,259.7,709,419.4c302.3,208.6,568.5,432.2,870.8,728.1C7562.3-1758.2,8143.5-632,8356.5,715.7c46.8,302.3,68.1,2412.2,23.4,2469.7c-19.2,25.5-536.5,170.3-1701.1,474.8c-919.7,240.6-1682,436.5-1692.6,434.3C4975.5,4094.5,4219.7,3898.6,3306.4,3658z M6612.8,3455.8l1579.7-413v-894.2c0-491.8-10.6-998.5-21.3-1128.4c-125.6-1337-715.3-2561.2-1711.7-3555.5c-400.3-400.2-813.3-719.6-1305.1-1009.2l-153.3-91.6l-123.5,70.3c-449.2,253.4-934.6,625.9-1339.2,1030.5C2542-1543.2,1952.3-319,1826.7,1020.2c-10.6,129.9-21.3,636.6-21.3,1128.4v894.2l1592.5,419.4c875,229.9,1601,415.2,1611.7,413C5022.4,3870.9,5742,3683.6,6612.8,3455.8z"/></g></g>
</svg>