<?xml version="1.0" encoding="UTF-8"?>
<!DOCTYPE svg PUBLIC "-//W3C//DTD SVG 1.1//EN" "http://www.w3.org/Graphics/SVG/1.1/DTD/svg11.dtd">
<!-- Creator: CorelDRAW 2018 (64-Bit) -->
<svg xmlns="http://www.w3.org/2000/svg" xml:space="preserve" width="2.07163in" height="2.59426in" version="1.1" style="shape-rendering:geometricPrecision; text-rendering:geometricPrecision; image-rendering:optimizeQuality; fill-rule:evenodd; clip-rule:evenodd"
viewBox="0 0 1409.39 1764.95"
 xmlns:xlink="http://www.w3.org/1999/xlink">
 <defs>
  <style type="text/css">
   <![CDATA[
    .str4 {stroke:#4B4B4D;stroke-width:18.9;stroke-miterlimit:22.9256}
    .str3 {stroke:#373435;stroke-width:4.72;stroke-miterlimit:22.9256}
    .str5 {stroke:#4B4B4D;stroke-width:113.39;stroke-linecap:round;stroke-linejoin:round;stroke-miterlimit:22.9256}
    .str1 {stroke:#C63134;stroke-width:105.48;stroke-linecap:round;stroke-linejoin:round;stroke-miterlimit:2.61313}
    .str0 {stroke:#C63134;stroke-width:105.49;stroke-linecap:round;stroke-linejoin:round;stroke-miterlimit:2.61313}
    .str2 {stroke:#C63134;stroke-width:105.49;stroke-linecap:round;stroke-linejoin:round;stroke-miterlimit:2.61313}
    .fil1 {fill:none}
    .fil3 {fill:#FEFEFE}
    .fil4 {fill:#4B4B4D}
    .fil0 {fill:#C63134}
    .fil2 {fill:#C63134}
   ]]>
  </style>
 </defs>
 <g id="Layer_x0020_1">
  <metadata id="CorelCorpID_0Corel-Layer"/>
  <g id="_2466649994400">
   <circle class="fil0" transform="matrix(-1.66429 -2.24043 2.24043 -1.66429 452.644 336.334)" r="28.76"/>
   <path class="fil1 str0" d="M1125.42 245.54c28.18,243.31 -75.59,483.19 -272.21,629.25 -196.63,146.06 -456.25,176.13 -681.05,78.88"/>
   <path class="fil1 str1" d="M906.34 256.47c19.52,168.57 -52.37,334.76 -188.6,435.96 -136.23,101.2 -316.1,122.03 -471.85,54.65"/>
   <path class="fil1 str2" d="M1350.65 234.56c37.76,326.06 -101.3,647.52 -364.79,843.25 -263.5,195.74 -611.41,236.03 -912.68,105.71"/>
   <circle class="fil2" cx="452.28" cy="345.99" r="140.68"/>
   <g>
    <polygon class="fil3 str3" points="1142.15,1501.93 1142.15,929.92 1091.23,864.03 1037.32,843.07 959.46,882 896.57,804.13 794.74,804.13 758.81,834.08 674.95,765.2 609.06,762.2 567.13,810.12 552.16,441.76 495.26,360.9 417.39,360.9 363.49,405.82 348.51,1103.62 288.61,1037.73 189.78,968.85 102.94,974.84 37.05,1031.74 318.56,1594.77 390.44,1681.62 504.24,1720.55 947.48,1726.54 1046.31,1654.67 "/>
    <path class="fil4 str4" d="M1047.3 817.42l-2.17 0c-29.71,-0.17 -58.41,10.75 -80.51,30.61 -17.89,-49.51 -63.35,-85.09 -116.6,-85.09 -32.63,0.23 -63.81,13.63 -86.42,37.18 -20.79,-42.09 -62.5,-70.64 -110.45,-70.64l-2.31 0c-25.7,-0.4 -50.78,7.96 -71.11,23.69l0 -300.06c0,-72.51 -56.45,-131.5 -125.12,-131.5 -68.59,0 -124.75,58.95 -124.79,131.41l-0.57 595.33 -33.69 -40.92c-29.54,-36.78 -73.03,-59.62 -120.08,-63.07 -46.09,-3.16 -91.42,12.88 -125.26,44.33l-29.32 24.29c-9.45,7.84 -12.15,21.2 -6.49,32.09l285.02 547.86c52.11,100.12 151.27,162.58 258.77,162.58l321.2 0 0 -0.28c162.86,0 294.9,-141.32 295.07,-314.84 0.06,-77.64 -0.23,-135.51 -0.18,-182.41 0.17,-125.48 0.04,-171.78 -0.28,-310.02 -0.16,-72.35 -56.21,-130.54 -124.69,-130.54l0 0zm72.47 440.38c-0.05,46.91 -0.13,105.01 -0.2,182.64 -0.14,144.83 -109.47,262.93 -243.72,262.93l-319.66 0c-88,0 -169.44,-51.72 -212.53,-134.53l-275.32 -529.05 13.59 -11.34c0.35,-0.28 0.67,-0.61 1,-0.9 23.37,-22 54.83,-33.3 86.85,-31.2 32.74,2.51 62.94,18.51 83.42,44.18l79.76 97.06c6.97,8.51 18.55,11.7 28.91,8 10.36,-3.7 17.28,-13.52 17.28,-24.52l0.47 -668.03c0.03,-43.74 33.11,-79.33 73.01,-79.33 39.9,0 72.98,35.63 72.98,79.39l0 402.78c0,1.4 -0.06,2.81 -0.06,4.24 0,0.61 0.06,1.23 0.06,1.83l0 172.21c0,14.39 11.67,26.06 26.06,26.06 14.39,0 26.06,-11.67 26.06,-26.06l0 -177.4c0,-42.2 32.24,-75.18 71.11,-75.18l2.32 0c39.93,0 73.15,34.8 73.15,78.57l0 157.58c0,14.39 11.67,26.06 26.06,26.06 14.39,0 26.06,-11.67 26.06,-26.06l0 -123.63c0,-43.78 31.63,-79.39 71.77,-79.39 39.91,0 71.54,35.6 71.54,79.39l0 116.63c0,14.39 11.67,26.06 26.06,26.06 14.39,0 26.06,-11.67 26.06,-26.06l0 -63.16c0,-43.78 33.36,-78.05 73.29,-78.05l2.18 0c39.82,0 72.28,34.85 72.38,78.49 0.32,138.14 0.25,184.39 0.09,309.78zm0 0z"/>
   </g>
   <path class="fil1 str5" d="M253.37 536.3c-52.55,-52.7 -82.07,-124.08 -82.07,-198.5 0,-155.25 125.86,-281.1 281.1,-281.1 155.25,0 281.1,125.85 281.1,281.1 0,73.47 -28.77,144.03 -80.14,196.55"/>
  </g>
 </g>
</svg>
