<?xml version="1.0" ?><!DOCTYPE svg  PUBLIC '-//W3C//DTD SVG 1.1//EN'  'http://www.w3.org/Graphics/SVG/1.1/DTD/svg11.dtd'><svg height="48px" id="Слой_1" style="enable-background:new 0 0 48 48;" version="1.1" viewBox="0 0 48 48" width="48px" xml:space="preserve" xmlns="http://www.w3.org/2000/svg" xmlns:xlink="http://www.w3.org/1999/xlink"><g><g><path d="M24,24h9v-2c0-4.4-3.6-8-8-8h-1V24z" style="fill:#7D50F9;"/><path d="M43,40c-2.2,0-4-1.8-4-4V21.5c0-6.3-4.9-11.6-11.4-13.1C28.5,7.5,29,6.3,29,5c0-2.8-2.2-5-5-5     s-5,2.2-5,5c0,1.3,0.5,2.5,1.4,3.4C13.9,9.9,9,15.4,9,22v14c0,2.2-1.8,4-4,4v2h12.1c0.5,3.4,3.4,6,6.9,6s6.4-2.6,6.9-6H43V40z      M24,2c1.7,0,3,1.3,3,3c0,1.3-0.8,2.4-2,2.8V5h-2v2.8c-1.2-0.4-2-1.5-2-2.8C21,3.3,22.3,2,24,2z M24,46c-2.4,0-4.4-1.7-4.9-4h2.1     c0.4,1.2,1.5,2,2.8,2s2.4-0.8,2.8-2h2.1C28.4,44.3,26.4,46,24,46z M9.5,40c1-1.1,1.5-2.5,1.5-4V22c0-6.6,5.8-12,13-12     s13,5.2,13,11.5V36c0,1.5,0.6,2.9,1.5,4H9.5z" style="fill:#303033;"/></g></g></svg>