<?xml version="1.0" encoding="UTF-8"?>
<!DOCTYPE svg PUBLIC "-//W3C//DTD SVG 1.1//EN" "http://www.w3.org/Graphics/SVG/1.1/DTD/svg11.dtd">
<!-- Creator: CorelDRAW 2021 (64-Bit) -->
<svg xmlns="http://www.w3.org/2000/svg" xml:space="preserve" width="43.8683mm" height="56.9045mm" version="1.1" style="shape-rendering:geometricPrecision; text-rendering:geometricPrecision; image-rendering:optimizeQuality; fill-rule:evenodd; clip-rule:evenodd"
viewBox="0 0 1386.9 1799.04"
 xmlns:xlink="http://www.w3.org/1999/xlink"
 xmlns:xodm="http://www.corel.com/coreldraw/odm/2003">
 <defs>
  <style type="text/css">
   <![CDATA[
    .str2 {stroke:#4B4B4D;stroke-width:22.31;stroke-linecap:round;stroke-linejoin:round;stroke-miterlimit:22.9256}
    .str0 {stroke:#4B4B4D;stroke-width:66.92;stroke-linecap:round;stroke-linejoin:round;stroke-miterlimit:22.9256}
    .str1 {stroke:#C63134;stroke-width:5.58;stroke-linecap:round;stroke-linejoin:round;stroke-miterlimit:22.9256}
    .fil0 {fill:none}
    .fil1 {fill:#C63134}
    .fil2 {fill:#4B4B4D;fill-rule:nonzero}
   ]]>
  </style>
 </defs>
 <g id="Layer_x0020_1">
  <metadata id="CorelCorpID_0Corel-Layer"/>
  <g id="_1924052987104">
   <path class="fil0 str0" d="M351.76 33.46c69.21,0 125.84,56.63 125.84,125.84l0 995.56c113.2,48.78 192.46,161.34 192.46,292.43 0,175.79 -142.51,318.3 -318.3,318.3 -175.79,0 -318.3,-142.51 -318.3,-318.3 0,-131.09 79.26,-243.65 192.46,-292.43l0 -995.56c0,-69.21 56.63,-125.84 125.84,-125.84z"/>
   <circle class="fil1 str1" cx="351.76" cy="1447.29" r="239.61"/>
   <rect class="fil1 str1" x="304.43" y="401.67" width="94.65" height="949.19" rx="47.32" ry="96.05"/>
   <path class="fil0 str0" d="M970.71 396.05c0,68.27 -55.34,123.61 -123.61,123.61 -68.27,0 -123.61,-55.34 -123.61,-123.61 0,-108.72 95.04,-209.86 123.61,-319.03 26.46,106.53 123.61,209.24 123.61,319.03z"/>
   <path class="fil1" d="M902.63 1078.14c0,28.51 -23.11,51.62 -51.62,51.62 -28.51,0 -51.62,-23.11 -51.62,-51.62 0,-45.4 39.69,-87.63 51.62,-133.22 11.05,44.49 51.62,87.37 51.62,133.22z"/>
   <path class="fil2" d="M1008.08 1085.11c0,43.37 -17.58,82.64 -46.01,111.06 -28.43,28.42 -67.7,46.01 -111.06,46.01 -43.37,0 -82.64,-17.58 -111.06,-46.01 -28.42,-28.43 -46.01,-67.7 -46.01,-111.06 0,-71.73 34.31,-136.25 68.9,-201.32 22.48,-42.29 45.11,-84.84 55.89,-126.07 4.62,-17.83 22.82,-28.54 40.65,-23.92 12.28,3.18 21.18,12.81 24.02,24.32 10.14,40.71 32.6,82.76 55.13,124.92 34.7,64.95 69.55,130.17 69.55,202.08zm-93.32 63.75c16.31,-16.31 26.4,-38.85 26.4,-63.75 0,-55.71 -30.79,-113.33 -61.44,-170.71 -9.88,-18.48 -19.74,-36.95 -28.79,-55.57 -9.17,19 -19.11,37.69 -29.01,56.33 -30.65,57.66 -61.05,114.84 -61.05,169.95 0,24.9 10.09,47.44 26.4,63.75 16.31,16.31 38.85,26.4 63.75,26.4 24.9,0 47.44,-10.09 63.75,-26.4z"/>
   <line class="fil0 str2" x1="52.01" y1="267.05" x2="134.61" y2= "267.05" />
   <line class="fil0 str2" x1="52.01" y1="375.07" x2="134.61" y2= "375.07" />
   <line class="fil0 str2" x1="52.01" y1="483.09" x2="134.61" y2= "483.09" />
   <line class="fil0 str2" x1="52.01" y1="591.11" x2="134.61" y2= "591.11" />
   <line class="fil0 str2" x1="52.01" y1="699.13" x2="134.61" y2= "699.13" />
   <line class="fil0 str2" x1="52.01" y1="807.15" x2="134.61" y2= "807.15" />
   <line class="fil0 str2" x1="52.01" y1="915.17" x2="134.61" y2= "915.17" />
   <line class="fil0 str2" x1="52.01" y1="1023.19" x2="134.61" y2= "1023.19" />
   <path class="fil1" d="M1281.45 754.94c0,28.51 -23.11,51.62 -51.62,51.62 -28.51,0 -51.62,-23.11 -51.62,-51.62 0,-45.4 39.69,-87.63 51.62,-133.22 11.05,44.49 51.62,87.37 51.62,133.22z"/>
   <path class="fil2" d="M1386.9 761.91c0,43.37 -17.58,82.64 -46.01,111.06 -28.43,28.42 -67.7,46.01 -111.06,46.01 -43.37,0 -82.64,-17.58 -111.06,-46.01 -28.42,-28.43 -46.01,-67.7 -46.01,-111.06 0,-71.73 34.31,-136.25 68.9,-201.32 22.48,-42.29 45.11,-84.84 55.89,-126.07 4.62,-17.83 22.82,-28.54 40.65,-23.92 12.28,3.18 21.18,12.81 24.02,24.32 10.14,40.71 32.6,82.76 55.13,124.92 34.7,64.95 69.55,130.17 69.55,202.08zm-93.32 63.75c16.31,-16.31 26.4,-38.85 26.4,-63.75 0,-55.71 -30.79,-113.33 -61.44,-170.71 -9.88,-18.48 -19.74,-36.95 -28.79,-55.57 -9.17,19 -19.11,37.69 -29.01,56.33 -30.65,57.66 -61.05,114.84 -61.05,169.95 0,24.9 10.09,47.44 26.4,63.75 16.31,16.31 38.85,26.4 63.75,26.4 24.9,0 47.44,-10.09 63.75,-26.4z"/>
  </g>
 </g>
</svg>
