<?xml version="1.0" encoding="iso-8859-1"?>
<!-- Generator: Adobe Illustrator 19.0.0, SVG Export Plug-In . SVG Version: 6.00 Build 0)  -->
<svg version="1.1" id="Layer_1" xmlns="http://www.w3.org/2000/svg" xmlns:xlink="http://www.w3.org/1999/xlink" x="0px" y="0px"
	 viewBox="0 0 512 512" style="enable-background:new 0 0 512 512;" xml:space="preserve">
<path style="fill:#B7B7B7;" d="M390.097,504.5H121.903c-5.523,0-10-4.477-10-10v-477c0-5.523,4.477-10,10-10h268.194
	c5.523,0,10,4.477,10,10v477C400.097,500.023,395.62,504.5,390.097,504.5z"/>
<path style="fill:#A0A0A0;" d="M400.097,17.207v477.586c0,5.361-4.301,9.707-9.606,9.707h-5.931V7.5h5.931
	C395.796,7.5,400.097,11.846,400.097,17.207z"/>
<path style="fill:#FFFFFF;" d="M371.278,46.328v407.695H140.722V46.328h77.551h73.359H371.278z"/>
<g>
	<path style="fill:#F4F4F4;" d="M371.278,46.328v247.529v29.121v131.045h-14.41V322.979H140.722v-29.121h216.146V46.328h4.847h4.585
		H371.278z"/>
	<path style="fill:#F4F4F4;" d="M280.016,449.17c0,8.041-6.451,14.561-14.41,14.561h-19.213c-7.958,0-14.41-6.519-14.41-14.561
		s6.452-14.561,14.41-14.561h19.213C273.565,434.609,280.016,441.128,280.016,449.17z"/>
</g>
<path style="fill:#888E8D;" d="M280.016,449.17c0,8.041-6.451,14.561-14.41,14.561h-16.651c7.958,0,14.41-6.519,14.41-14.561
	s-6.452-14.561-14.41-14.561h16.651C273.565,434.609,280.016,441.128,280.016,449.17z"/>
<path style="fill:#4FCEDB;" d="M317.481,351.129c9.55,0,17.292,7.823,17.292,17.473s-7.742,17.473-17.292,17.473
	s-17.292-7.823-17.292-17.473S307.932,351.129,317.481,351.129z"/>
<path style="fill:#FF9C97;" d="M209.889,102.629c0,9.65-7.742,17.473-17.292,17.473s-17.292-7.823-17.292-17.473
	s7.742-17.473,17.292-17.473S209.889,92.979,209.889,102.629z"/>
<path style="fill:#FF7C6F;" d="M209.889,102.629c0,9.65-7.742,17.473-17.292,17.473c-2.024,0-3.959-0.37-5.764-1.015
	c6.712-2.401,11.528-8.853,11.528-16.457c0-7.604-4.816-14.056-11.528-16.457c1.805-0.646,3.74-1.015,5.764-1.015
	C202.147,85.156,209.889,92.979,209.889,102.629z"/>
<path style="fill:#22B8D1;" d="M334.773,368.602c0,9.65-7.742,17.473-17.292,17.473c-2.024,0-3.959-0.37-5.764-1.016
	c6.711-2.401,11.528-8.853,11.528-16.457s-4.816-14.056-11.528-16.457c1.805-0.646,3.74-1.016,5.764-1.016
	C327.031,351.129,334.773,358.952,334.773,368.602z"/>
<path style="fill:#7DE5EF;" d="M463.5,202.227v86.191c0,11.046-8.954,20-20,20h-375c-11.046,0-20-8.954-20-20v-86.191
	c0-11.046,8.954-20,20-20h375C454.546,182.227,463.5,191.181,463.5,202.227z"/>
<path style="fill:#D5F7F4;" d="M463.5,182.227v52.094h-415v-52.094c0-10.722,8.602-19.414,19.213-19.414h376.574
	C454.898,162.813,463.5,171.504,463.5,182.227z"/>
<path style="fill:#5AD1ED;" d="M463.5,182.227v106.777c0,9.043-6.128,16.619-14.41,18.778V163.449
	C457.372,165.607,463.5,173.184,463.5,182.227z"/>
<path style="fill:#FF7C6F;" d="M375.12,235.615c0,9.65-7.742,17.473-17.292,17.473s-17.292-7.823-17.292-17.473
	s7.742-17.473,17.292-17.473S375.12,225.965,375.12,235.615z M152.413,227.305l-49.693-34.423c-1.576-1.092-3.443-1.676-5.354-1.676
	h-0.972c-5.229,0-9.468,4.283-9.468,9.567v69.684c0,5.284,4.239,9.567,9.468,9.567c1.918,0,3.791-0.589,5.371-1.688l50.665-35.261
	C157.901,239.268,157.892,231.1,152.413,227.305z"/>
<path style="fill:#F9655D;" d="M375.12,235.615c0,9.65-7.742,17.473-17.292,17.473c-2.385,0-4.657-0.488-6.725-1.371
	c6.21-2.651,10.567-8.862,10.567-16.102s-4.358-13.451-10.567-16.102c2.067-0.883,4.339-1.371,6.725-1.371
	C367.379,218.143,375.12,225.965,375.12,235.615z M86.926,270.457c0,5.284,4.239,9.567,9.468,9.567l0,0
	c1.918,0,3.791-0.589,5.371-1.688l50.665-35.261c2.604-1.812,3.952-4.614,4.073-7.46H86.926V270.457z"/>
<path d="M166.833,102.629c0,13.77,11.215,24.973,25,24.973s25-11.203,25-24.973s-11.215-24.973-25-24.973
	S166.833,88.859,166.833,102.629z M201.833,102.629c0,5.499-4.486,9.973-10,9.973s-10-4.474-10-9.973s4.486-9.973,10-9.973
	S201.833,97.13,201.833,102.629z M318.223,343.629c-13.785,0-25,11.203-25,24.973s11.215,24.973,25,24.973s25-11.203,25-24.973
	S332.008,343.629,318.223,343.629z M318.223,378.574c-5.514,0-10-4.474-10-9.973s4.486-9.973,10-9.973s10,4.474,10,9.973
	S323.736,378.574,318.223,378.574z M409.333,337.862v156.931c0,9.488-7.726,17.207-17.222,17.207H119.889
	c-9.496,0-17.222-7.719-17.222-17.207V343.04c0-4.143,3.357-7.5,7.5-7.5s7.5,3.357,7.5,7.5v151.753c0,1.217,0.997,2.207,2.222,2.207
	h272.223c1.225,0,2.222-0.99,2.222-2.207V337.862c0-4.143,3.357-7.5,7.5-7.5S409.333,333.72,409.333,337.862z M102.667,133.691
	V17.207C102.667,7.719,110.393,0,119.889,0h272.223c9.496,0,17.222,7.719,17.222,17.207v116.484c0,4.143-3.357,7.5-7.5,7.5
	s-7.5-3.357-7.5-7.5V17.207c0-1.217-0.997-2.207-2.222-2.207H119.889c-1.225,0-2.222,0.99-2.222,2.207v116.484
	c0,4.143-3.357,7.5-7.5,7.5S102.667,137.834,102.667,133.691z M217.818,53.828h-70.985v79.863c0,4.143-3.357,7.5-7.5,7.5
	s-7.5-3.357-7.5-7.5V46.328c0-4.143,3.357-7.5,7.5-7.5h78.485c4.143,0,7.5,3.357,7.5,7.5S221.961,53.828,217.818,53.828z
	 M139.333,336.834c-4.143,0-7.5,3.357-7.5,7.5v109.689c0,4.143,3.357,7.5,7.5,7.5h88.654c3.971,5.853,10.678,9.707,18.268,9.707
	h19.49c12.164,0,22.061-9.896,22.061-22.061s-9.896-22.061-22.061-22.061h-19.49c-11.268,0-20.584,8.494-21.896,19.414h-77.526
	V344.334C146.833,340.191,143.476,336.834,139.333,336.834z M246.255,442.109h19.49c3.894,0,7.061,3.167,7.061,7.061
	s-3.167,7.061-7.061,7.061h-19.49c-2.412,0-4.544-1.217-5.818-3.068c-0.139-1.211-0.563-2.334-1.208-3.3
	c-0.022-0.228-0.035-0.459-0.035-0.693C239.194,445.276,242.361,442.109,246.255,442.109z M309.473,446.523h55.694V341.745
	c0-4.143,3.357-7.5,7.5-7.5s7.5,3.357,7.5,7.5v112.278c0,4.143-3.357,7.5-7.5,7.5h-63.194c-4.143,0-7.5-3.357-7.5-7.5
	S305.33,446.523,309.473,446.523z M365.167,133.691V53.828h-73.106c-4.143,0-7.5-3.357-7.5-7.5s3.357-7.5,7.5-7.5h80.606
	c4.143,0,7.5,3.357,7.5,7.5v87.363c0,4.143-3.357,7.5-7.5,7.5S365.167,137.834,365.167,133.691z M246.277,53.828
	c-4.143,0-7.5-3.357-7.5-7.5s3.357-7.5,7.5-7.5h19.445c4.143,0,7.5,3.357,7.5,7.5s-3.357,7.5-7.5,7.5H246.277z M446,155.313H66
	c-15.163,0-27.5,12.337-27.5,27.5v105.605c0,15.163,12.337,27.5,27.5,27.5h380c15.163,0,27.5-12.337,27.5-27.5V182.813
	C473.5,167.649,461.163,155.313,446,155.313z M458.5,288.418c0,6.893-5.607,12.5-12.5,12.5H66c-6.893,0-12.5-5.607-12.5-12.5
	V182.813c0-6.893,5.607-12.5,12.5-12.5h380c6.893,0,12.5,5.607,12.5,12.5V288.418z M434.889,228.115h-51.987
	c-3.196-10.116-12.676-17.473-23.846-17.473s-20.65,7.356-23.846,17.473h-27.907c-8.467,0-15.814,5.731-17.868,13.937l-5.587,22.313
	c-0.38,1.519-1.744,2.579-3.317,2.579c-1.885,0-3.419-1.526-3.419-3.402V207.69c0-10.147-8.263-18.402-18.419-18.402
	c-8.466,0-15.813,5.73-17.869,13.937l-5.587,22.313c-0.38,1.519-1.744,2.579-3.317,2.579h-49.808c-4.143,0-7.5,3.357-7.5,7.5
	s3.357,7.5,7.5,7.5h49.808c8.467,0,15.814-5.731,17.868-13.937l5.587-22.312c0.381-1.519,1.745-2.58,3.318-2.58
	c1.885,0,3.419,1.526,3.419,3.402v55.852c0,10.147,8.263,18.402,18.419,18.402c8.467,0,15.814-5.731,17.868-13.937l5.587-22.313
	c0.38-1.519,1.744-2.579,3.317-2.579h27.907c3.196,10.116,12.676,17.473,23.846,17.473s20.65-7.356,23.846-17.473h51.987
	c4.143,0,7.5-3.357,7.5-7.5S439.031,228.115,434.889,228.115z M359.056,245.588c-5.514,0-10-4.474-10-9.973s4.486-9.973,10-9.973
	s10,4.474,10,9.973S364.569,245.588,359.056,245.588z M155.401,221.115l-50.291-34.422c-2.855-1.955-6.194-2.988-9.655-2.988h-0.983
	c-9.42,0-17.083,7.657-17.083,17.068v69.684c0,9.411,7.663,17.067,17.083,17.067c3.474,0,6.822-1.04,9.686-3.008l51.274-35.262
	c4.638-3.189,7.403-8.452,7.397-14.077S160.047,224.296,155.401,221.115z M146.932,236.896l-51.273,35.261
	c-0.35,0.241-0.761,0.368-1.187,0.368c-1.148,0-2.083-0.928-2.083-2.067v-69.684c0-1.141,0.935-2.068,2.083-2.068h0.983
	c0.424,0,0.832,0.126,1.182,0.366l50.292,34.422c0.743,0.509,0.899,1.206,0.9,1.7C147.83,235.688,147.675,236.385,146.932,236.896z
	 M335.722,97.995h-100.14c-4.143,0-7.5-3.357-7.5-7.5s3.357-7.5,7.5-7.5h100.14c4.143,0,7.5,3.357,7.5,7.5
	S339.864,97.995,335.722,97.995z M290.027,107.263c4.143,0,7.5,3.357,7.5,7.5s-3.357,7.5-7.5,7.5h-54.445
	c-4.143,0-7.5-3.357-7.5-7.5s3.357-7.5,7.5-7.5H290.027z M180.169,363.968c-4.143,0-7.5-3.357-7.5-7.5s3.357-7.5,7.5-7.5h13.932
	c4.143,0,7.5,3.357,7.5,7.5s-3.357,7.5-7.5,7.5H180.169z M281.974,356.468c0,4.143-3.357,7.5-7.5,7.5h-56.067
	c-4.143,0-7.5-3.357-7.5-7.5s3.357-7.5,7.5-7.5h56.067C278.616,348.968,281.974,352.325,281.974,356.468z M281.972,380.735
	c0,4.143-3.357,7.5-7.5,7.5H238.5c-4.143,0-7.5-3.357-7.5-7.5s3.357-7.5,7.5-7.5h35.972
	C278.614,373.235,281.972,376.593,281.972,380.735z"/>
<g>
</g>
<g>
</g>
<g>
</g>
<g>
</g>
<g>
</g>
<g>
</g>
<g>
</g>
<g>
</g>
<g>
</g>
<g>
</g>
<g>
</g>
<g>
</g>
<g>
</g>
<g>
</g>
<g>
</g>
</svg>
