<svg id="OBJECTS" xmlns="http://www.w3.org/2000/svg" xmlns:xlink="http://www.w3.org/1999/xlink" viewBox="0 0 651.26 413.61">
  <defs>
    <clipPath id="clip-path" transform="translate(-50.11 -47.65)">
      <rect x="277.42" y="97.89" width="195.17" height="350.13" rx="9.83" fill="none"/>
    </clipPath>
    <linearGradient id="linear-gradient" x1="172.98" y1="357.09" x2="465.67" y2="64.4" gradientUnits="userSpaceOnUse">
      <stop offset="0.27" stop-color="#fff" stop-opacity="0.1"/>
      <stop offset="1" stop-color="#fff" stop-opacity="0.3"/>
    </linearGradient>
    <linearGradient id="linear-gradient-2" x1="222.44" y1="350.98" x2="502.91" y2="70.51" xlink:href="#linear-gradient"/>
  </defs>
  <title>illustration_service</title>
  <path d="M302.18,376.1c-5.76-19.9-22.24-35.21-43.5-35.72-12.36-.3-24.35,5-34.88,11.05-14.21,8.16-31,18-48,15.53-10.89-1.58-23.8-7.7-26.35-20.32-2.71-13.37,8.09-22.53,19.63-27.91,9.89-4.6,23.76-15.61,28.21-26.16C215,250.76,165.67,203,179.58,155.39c14.55-49.87,81.94-58.3,115.81-24.44a98.08,98.08,0,0,1,9.05,10.38c6.91,9.18,11,21.68,20.59,28.57,12.44,8.92,28.56,6.07,42,.77,25.61-10.12,32.38-16.8,57.42-27.69,18-7.84,40.2-14.84,60.43-7.87,14.51,5,30.52,14,38.63,27,15.08,24.16,8.31,50.19,32.15,84.55,10.8,15.57,28,19.93,41.65,31.18,35.46,29.16,23.61,90.64-15.07,111.67-31.76,17.28-70.86,13.33-105.3,8.9-2.64-.33-5.27-.7-7.91-1.09" transform="translate(-50.11 -47.65)" fill="none" stroke="#d3d3d3" stroke-linejoin="round" stroke-dasharray="3.5 3.5"/>
  <path d="M553.61,149.47a59.44,59.44,0,0,0,7.83-11.36,58.74,58.74,0,0,0,5-12.87l-11.82-4.19a45.89,45.89,0,0,0,1.14-12.32l12.41-1.93a59.27,59.27,0,0,0-8.08-26.18L548.71,86a45.9,45.9,0,0,0-7.89-9.53l7.4-10.13A58.56,58.56,0,0,0,524,53.58L519.81,65.4a46,46,0,0,0-12.32-1.14l-1.93-12.41a59.27,59.27,0,0,0-26.18,8.08l5.4,11.34a46.16,46.16,0,0,0-9.53,7.89l-10.12-7.41A58.86,58.86,0,0,0,452.33,96l11.82,4.19A46.37,46.37,0,0,0,463,112.49l-12.41,1.93a59.28,59.28,0,0,0,8.09,26.18L470,135.2a46.42,46.42,0,0,0,7.89,9.52l-7.4,10.13a58.86,58.86,0,0,0,24.23,12.8l4.19-11.83A45.86,45.86,0,0,0,511.24,157l1.93,12.4a59.1,59.1,0,0,0,26.18-8.08L534,150a45.85,45.85,0,0,0,9.53-7.88Zm-58-12.84a29.42,29.42,0,1,1,39.75-12.28A29.42,29.42,0,0,1,495.63,136.63Zm4-7.53a20.91,20.91,0,1,1,28.25-8.73A20.92,20.92,0,0,1,499.6,129.1Z" transform="translate(-50.11 -47.65)" fill="#cecece"/>
  <path d="M285,177.93a36.17,36.17,0,0,0,6.39-15.72l-7.54-1.85a28.87,28.87,0,0,0-.05-7.66l7.52-1.95a36.62,36.62,0,0,0-6.59-15.64l-6.65,4a28.94,28.94,0,0,0-5.45-5.38l3.93-6.7a36.52,36.52,0,0,0-15.71-6.39L259,128.22a28.05,28.05,0,0,0-7.66.05l-2-7.53a36.73,36.73,0,0,0-15.63,6.6l4,6.65a28.4,28.4,0,0,0-5.39,5.45l-6.69-3.94a36.49,36.49,0,0,0-6.39,15.72l7.54,1.85a28.45,28.45,0,0,0,.06,7.66l-7.53,2a36.55,36.55,0,0,0,6.6,15.63l6.65-4a28.88,28.88,0,0,0,5.44,5.38l-3.93,6.7a36.52,36.52,0,0,0,15.71,6.39l1.86-7.55a28.06,28.06,0,0,0,7.66-.05l1.95,7.52A36.59,36.59,0,0,0,277,186.09l-4-6.65a28.4,28.4,0,0,0,5.39-5.45Zm-36.51-4.34a18.22,18.22,0,1,1,23.74-10A18.22,18.22,0,0,1,248.49,173.59Zm2-4.88a12.95,12.95,0,1,1,16.86-7.12A12.95,12.95,0,0,1,250.48,168.71Z" transform="translate(-50.11 -47.65)" fill="#cecece"/>
  <path d="M314.94,108.57a25.29,25.29,0,0,0,3.4-4.92,25.91,25.91,0,0,0,2.15-5.58l-5.12-1.82a20.1,20.1,0,0,0,.49-5.34l5.38-.83a25.72,25.72,0,0,0-3.5-11.35l-4.92,2.34a19.78,19.78,0,0,0-3.42-4.13l3.21-4.39A25.61,25.61,0,0,0,302.11,67l-1.82,5.13a20.11,20.11,0,0,0-5.34-.5l-.83-5.38a25.73,25.73,0,0,0-11.35,3.51l2.34,4.91A19.78,19.78,0,0,0,281,78.09l-4.39-3.21a25.63,25.63,0,0,0-3.39,4.93A25.36,25.36,0,0,0,271,85.38l5.13,1.82a20.15,20.15,0,0,0-.5,5.34l-5.37.84a25.63,25.63,0,0,0,3.5,11.35l4.91-2.35a19.78,19.78,0,0,0,3.42,4.13l-3.21,4.39a25.42,25.42,0,0,0,10.51,5.55l1.81-5.12a20.14,20.14,0,0,0,5.34.49l.84,5.38a25.64,25.64,0,0,0,11.35-3.51l-2.35-4.91a19.78,19.78,0,0,0,4.13-3.42Zm-23.46-8.72A9.18,9.18,0,1,1,303.89,96,9.18,9.18,0,0,1,291.48,99.85Z" transform="translate(-50.11 -47.65)" fill="#cecece"/>
  <g>
    <rect x="627.69" y="173.64" width="5.55" height="5.55" rx="1.09" fill="#c9c9c9"/>
    <rect x="110.56" y="289.22" width="5.55" height="5.55" rx="1.09" fill="#c9c9c9"/>
    <rect x="104.72" y="84.68" width="5.55" height="5.55" rx="1.09" fill="#c9c9c9"/>
    <rect x="532.29" y="39.87" width="10.65" height="10.65" rx="2.1" fill="#c9c9c9"/>
    <rect x="476.13" y="205.94" width="5.55" height="5.55" rx="1.09" fill="#c9c9c9"/>
  </g>
  <g>
    <g>
      <path d="M178.71,447.91c-12.54-18.91-38.79-66.7-16-83.15,12.49-9,29.06-.81,37.06,19.11,7.61,18.91,10.52,41.25,13.69,63.77" transform="translate(-50.11 -47.65)" fill="#fff"/>
      <path d="M179,447.75A207.38,207.38,0,0,1,163.1,418.9c-4.85-10.86-9.31-23-9-35,.29-10.81,6.87-21.88,18.76-22.34,15-.59,24,15.08,28.26,27.25,6.68,19,9.09,39.17,11.88,59,.07.54.89.31.81-.22-2.7-19.26-5.07-38.84-11.31-57.35-4.14-12.29-11.75-27.11-26.08-29.25-10.62-1.59-19.88,6.22-22.26,16.25-2.75,11.54,1.11,24.2,5.27,34.92a186.2,186.2,0,0,0,19,36c.22.33.75,0,.53-.31Z" transform="translate(-50.11 -47.65)" fill="#d6d6d6"/>
    </g>
    <line x1="119.01" y1="314.28" x2="148.57" y2="400.31" fill="#fff" stroke="#d6d6d6" stroke-linejoin="round"/>
    <g>
      <path d="M128.44,447.92c-10.82-14-34.46-49.33-14.83-61.5,10.77-6.68,24.06-.6,31,14.13,6.56,14,9.07,30.52,11.8,47.18" transform="translate(-50.11 -47.65)" fill="#fff"/>
      <path d="M128.71,447.77A166.82,166.82,0,0,1,115,427c-4.24-7.75-8.39-16.55-8.58-25.55s5.75-16.51,15-17.27c11.59-1,19.73,9.4,23.82,18.94,6.07,14.14,8.23,29.65,10.71,44.72.08.53.9.31.81-.23-2.43-14.84-4.59-30-10.41-44-3.91-9.39-11-19.28-22.06-20.21-8.23-.69-16.35,4.68-18.16,12.85-1.91,8.61,1.71,17.91,5.36,25.56a143.17,143.17,0,0,0,16.7,26.35c.22.28.7-.09.49-.37Z" transform="translate(-50.11 -47.65)" fill="#d6d6d6"/>
    </g>
    <line x1="69.06" y1="336.67" x2="94.56" y2="400.31" fill="#fff" stroke="#d6d6d6" stroke-linejoin="round"/>
    <path d="M254.92,447.73C225.28,394,206.14,340.67,230.06,315.35c23.69-25.09,48.48,4.64,54.51,31,7.38,32.26,8.45,67.19,8.31,101.39" transform="translate(-50.11 -47.65)" fill="#fff" stroke="#d6d6d6" stroke-linejoin="round"/>
    <line x1="188.72" y1="261.17" x2="224.32" y2="399.99" fill="none" stroke="#d6d6d6" stroke-linejoin="round"/>
    <g>
      <path d="M210.45,447.89c-11.77-28.43-38.25-86-19.58-103.74,11.94-11.37,33.51,2.57,44.61,27.42,10.53,23.6,13.7,47.89,20,76" transform="translate(-50.11 -47.65)" fill="#fff"/>
      <path d="M210.75,447.81c-5.59-13.66-11.49-27.2-16.4-41.13s-9.86-29.12-9.56-44.12c.11-5.52,1.08-11.38,4.42-15.93,3.83-5.22,10-7.08,16.21-5.5,7.27,1.85,13.44,7.07,18.29,12.59,6.61,7.52,11,16.47,14.58,25.77,8.34,21.94,11.69,45.38,16.8,68.18.12.53.93.31.81-.22-4.86-21.73-8.13-44-15.64-65-5.62-15.76-14.6-33.78-30.92-40.78-5.25-2.25-11.4-2.82-16.39.39-4.5,2.88-7,7.83-8.11,12.92-1.36,6.34-.91,13,0,19.34a152.93,152.93,0,0,0,5.74,23.6c5.4,17.12,12.6,33.57,19.54,50.1.15.36.75.2.6-.17Z" transform="translate(-50.11 -47.65)" fill="#d6d6d6"/>
    </g>
    <g>
      <path d="M440.13,447.73c-10-114.44,14.32-156.25,40.92-158.13,12.6-.89,49.5,6.37,4.95,158.07" transform="translate(-50.11 -47.65)" fill="#fff"/>
      <path d="M440.33,447.73c-2.46-37.68-5-76.84,4.73-113.8,4.22-16,12.11-36.69,29.38-42.6,6.81-2.33,14.55-1.9,20.32,2.7,10.19,8.14,11.78,24,12.16,36,.44,13.47-1,27-3.1,40.28a551.14,551.14,0,0,1-13.14,59.29c-1.63,6-3.32,12-5,18-.1.37.47.52.59.15a576.45,576.45,0,0,0,16.43-66.32c2.71-14.71,4.82-29.64,5-44.62.14-9.11-.36-18.47-2.9-27.27-1.5-5.18-3.8-10.34-7.6-14.26-4.89-5-11.72-6.86-18.56-5.78-16.69,2.65-26.14,19.71-31.26,34.16-4.8,13.58-7.13,28-8.49,42.28-2,20.94-1.73,42.07-.49,63.05.37,6.26.81,12.52,1.49,18.75,0,.25.4.26.39,0Z" transform="translate(-50.11 -47.65)" fill="#d6d6d6"/>
    </g>
    <line x1="436.13" y1="242.21" x2="412.63" y2="400.01" fill="#fff" stroke="#d6d6d6" stroke-linejoin="round"/>
    <g>
      <path d="M518.75,447.74c8.14-68,35.59-107.22,60.38-96.58,20.28,8.7,9.81,46.57-21.78,96.54" transform="translate(-50.11 -47.65)" fill="#fff"/>
      <path d="M518.94,447.79c3.07-20,6.64-39.88,14.38-58.74,5.13-12.5,12.12-26,23.33-34.09,7.59-5.5,18.35-7.5,26.16-1.16,9.12,7.38,6.63,21.95,4.08,31.77-5.82,22.31-18.1,42.37-29.8,62-.2.34.31.62.52.3a282.17,282.17,0,0,0,18.26-32,171.39,171.39,0,0,0,10.78-26.56c3-10.17,6.4-24.75-1.12-33.89-6-7.32-16.93-7.78-24.92-3.77-11.44,5.75-19,18-24.38,29.12a166.93,166.93,0,0,0-10.71,29.47,220.37,220.37,0,0,0-7,37.5c0,.22.35.27.39.05Z" transform="translate(-50.11 -47.65)" fill="#d6d6d6"/>
    </g>
    <line x1="529.02" y1="303.5" x2="488.46" y2="400.05" fill="#fff" stroke="#d6d6d6" stroke-linejoin="round"/>
    <line x1="147.22" y1="292.96" x2="183.46" y2="400.31" fill="#fff" stroke="#d6d6d6" stroke-linejoin="round"/>
    <g>
      <path d="M521.77,447.87c16-34,48.34-111.53,24-139-13.36-15.1-37.82,3.44-50.79,36.74-12.32,31.63-21.54,64.19-29.18,101.84" transform="translate(-50.11 -47.65)" fill="#fff"/>
      <path d="M522,448a461.66,461.66,0,0,0,22-54.34c6.27-19.14,12-39.9,10.73-60.24-.79-12.47-6.71-32.69-23-30.09-8.83,1.4-16.24,8.34-21.71,15-8,9.71-13.23,21.05-17.64,32.75-11.77,31.25-20.38,63.55-27,96.25-.11.53.71.76.81.22A646.48,646.48,0,0,1,488.3,365c4.35-12.56,8.7-25.36,15.7-36.72,5.29-8.59,12.24-17.33,21.43-21.94,7.13-3.59,15-3.15,20.35,3.13,5.08,5.89,7.24,13.76,8,21.36,2,19.3-3.17,39.26-8.83,57.55a469.44,469.44,0,0,1-23.45,59.35c-.17.36.36.67.53.31Z" transform="translate(-50.11 -47.65)" fill="#d6d6d6"/>
    </g>
    <line x1="488.46" y1="256.45" x2="445.61" y2="400.31" fill="#fff" stroke="#d6d6d6" stroke-linejoin="round"/>
    <g>
      <path d="M550.06,447.74c21.13-42.82,39.46-54.14,56.68-50.72,13.39,2.66,15.48,22.44-12.82,50.7" transform="translate(-50.11 -47.65)" fill="#fff"/>
      <path d="M550.23,447.84c6.54-11.65,12.45-23.49,21.15-33.76,5.37-6.34,11.8-12.37,19.69-15.37,5.5-2.1,12.75-2.94,18.29-.48,6.18,2.75,7.21,9.79,6,15.78-2.71,13.28-12.82,23.88-21.64,33.49a.3.3,0,0,0,.43.43c9-8.33,18-19.37,21.38-31.37,1.68-5.85,1.92-13.31-3.31-17.49-4.55-3.65-11.84-3.53-17.23-2.33-7.86,1.75-14.57,6.76-20.11,12.41a101.88,101.88,0,0,0-11.83,15,154.68,154.68,0,0,0-13.15,23.51c-.09.23.21.43.34.2Z" transform="translate(-50.11 -47.65)" fill="#d6d6d6"/>
    </g>
    <line x1="554.97" y1="349.65" x2="522.7" y2="400.06" fill="#fff" stroke="#d6d6d6" stroke-linejoin="round"/>
  </g>
  <g>
    <rect x="227.81" y="50.73" width="194.17" height="349.13" rx="9.33" fill="#848484"/>
    <path d="M462.75,98.89a8.84,8.84,0,0,1,8.83,8.83V438.19a8.84,8.84,0,0,1-8.83,8.83H287.25a8.84,8.84,0,0,1-8.83-8.83V107.72a8.84,8.84,0,0,1,8.83-8.83h175.5m0-1H287.25a9.83,9.83,0,0,0-9.83,9.83V438.19a9.83,9.83,0,0,0,9.83,9.83h175.5a9.83,9.83,0,0,0,9.83-9.83V107.72a9.83,9.83,0,0,0-9.83-9.83Z" transform="translate(-50.11 -47.65)" fill="#b2b2b2"/>
  </g>
  <path d="M383.92,432A8.92,8.92,0,1,1,375,423,8.92,8.92,0,0,1,383.92,432Z" transform="translate(-50.11 -47.65)" fill="none" stroke="#353535" stroke-miterlimit="10"/>
  <g clip-path="url(#clip-path)">
    <g>
      <polygon points="371.12 12.3 225.07 409.19 267.53 409.19 413.57 12.3 371.12 12.3" fill="url(#linear-gradient)"/>
      <polygon points="426.7 12.3 280.65 409.19 298.65 409.19 444.7 12.3 426.7 12.3" fill="url(#linear-gradient-2)"/>
    </g>
  </g>
  <rect x="228.87" y="82.84" width="192.05" height="284.91" fill="#fff"/>
  <g>
    <path d="M364,112.41h27.05a1.08,1.08,0,0,1,1.08,1.09h0a1.08,1.08,0,0,1-1.08,1.08H364a1.08,1.08,0,0,1-1.08-1.08h0A1.08,1.08,0,0,1,364,112.41Z" transform="translate(-50.11 -47.65)" fill="none" stroke="#515151" stroke-miterlimit="10"/>
    <circle cx="307.86" cy="65.84" r="1.12" fill="none" stroke="#515151" stroke-miterlimit="10"/>
  </g>
  <rect x="241.99" y="193.18" width="82.9" height="83.78" fill="#ead9b2"/>
  <g>
    <circle cx="333.55" cy="270.68" r="17.16" transform="matrix(0.16, -0.99, 0.99, 0.16, -36.92, 509.18)" fill="none" stroke="#fff" stroke-miterlimit="10"/>
    <ellipse cx="283.44" cy="223.03" rx="11.82" ry="17.16" fill="none" stroke="#fff" stroke-miterlimit="10"/>
    <ellipse cx="283.44" cy="223.03" rx="4.61" ry="17.16" fill="none" stroke="#fff" stroke-miterlimit="10"/>
    <line x1="266.28" y1="223.03" x2="300.61" y2="223.03" fill="none" stroke="#fff" stroke-miterlimit="10"/>
    <path d="M318.18,278.33c3.28-1.09,8.94-1.82,15.37-1.82s12.08.72,15.36,1.82" transform="translate(-50.11 -47.65)" fill="none" stroke="#fff" stroke-miterlimit="10"/>
    <path d="M323.16,284.34a31.17,31.17,0,0,1,20.65,0" transform="translate(-50.11 -47.65)" fill="none" stroke="#fff" stroke-miterlimit="10"/>
    <path d="M318.18,263.12c3.28,1.1,8.94,1.82,15.37,1.82s12.08-.72,15.36-1.82" transform="translate(-50.11 -47.65)" fill="none" stroke="#fff" stroke-miterlimit="10"/>
    <path d="M323.16,257.11a31.17,31.17,0,0,0,20.65,0" transform="translate(-50.11 -47.65)" fill="none" stroke="#fff" stroke-miterlimit="10"/>
  </g>
  <g>
    <rect x="299.15" y="305.2" width="68.8" height="4.43" transform="translate(616.99 567.18) rotate(180)" fill="#f7a46b"/>
    <rect x="326.83" y="296.96" width="41.12" height="4.43" transform="translate(644.67 550.7) rotate(180)" fill="#f7a46b"/>
    <rect x="249.04" y="249.31" width="23.01" height="4.43" fill="#f7a46b"/>
    <rect x="299.15" y="313.44" width="68.8" height="4.43" transform="translate(616.99 583.65) rotate(180)" fill="#f7a46b"/>
  </g>
  <g>
    <rect x="324.81" y="193.18" width="82.9" height="83.78" fill="#f0f1ff"/>
    <g>
      <rect x="381.97" y="255.76" width="68.8" height="4.43" transform="translate(782.63 468.3) rotate(180)" fill="#e4e9f9"/>
      <rect x="381.97" y="264" width="68.8" height="4.43" transform="translate(782.63 484.78) rotate(180)" fill="#e4e9f9"/>
      <rect x="381.97" y="272.24" width="21.42" height="4.43" transform="translate(735.25 501.26) rotate(180)" fill="#e4e9f9"/>
      <rect x="409.12" y="272.24" width="41.55" height="4.43" transform="translate(809.69 501.26) rotate(180)" fill="#e4e9f9"/>
      <rect x="381.97" y="280.48" width="68.8" height="4.43" transform="translate(782.63 517.74) rotate(180)" fill="#e4e9f9"/>
      <rect x="381.97" y="288.72" width="68.8" height="4.43" transform="translate(782.63 534.22) rotate(180)" fill="#e4e9f9"/>
      <rect x="381.97" y="296.96" width="68.8" height="4.43" transform="translate(782.63 550.7) rotate(180)" fill="#e4e9f9"/>
      <rect x="430.9" y="305.2" width="19.87" height="4.43" transform="translate(831.56 567.18) rotate(180)" fill="#e4e9f9"/>
      <rect x="381.97" y="305.2" width="44.19" height="4.43" transform="translate(758.02 567.18) rotate(180)" fill="#e4e9f9"/>
      <rect x="381.97" y="313.44" width="68.8" height="4.43" transform="translate(782.63 583.65) rotate(180)" fill="#e4e9f9"/>
      <rect x="432.54" y="247.52" width="18.22" height="4.43" transform="translate(833.2 451.82) rotate(180)" fill="#e4e9f9"/>
      <rect x="331.86" y="199.87" width="45.91" height="4.43" fill="#e4e9f9"/>
    </g>
  </g>
  <g>
    <rect x="241.99" y="276.95" width="82.9" height="83.78" fill="#f0f1ff"/>
    <g>
      <rect x="249.04" y="341.34" width="68.8" height="4.43" fill="#e4e9f9"/>
      <rect x="249.04" y="333.1" width="68.8" height="4.43" fill="#e4e9f9"/>
      <rect x="300.15" y="324.86" width="17.69" height="4.43" fill="#e4e9f9"/>
      <rect x="249.14" y="324.86" width="45.28" height="4.43" fill="#e4e9f9"/>
      <rect x="249.04" y="316.63" width="68.8" height="4.43" fill="#e4e9f9"/>
      <rect x="249.04" y="308.39" width="68.8" height="4.43" fill="#e4e9f9"/>
      <rect x="249.04" y="300.15" width="68.8" height="4.43" fill="#e4e9f9"/>
      <rect x="249.04" y="291.91" width="31.97" height="4.43" fill="#e4e9f9"/>
      <rect x="285.75" y="291.91" width="32.09" height="4.43" fill="#e4e9f9"/>
      <rect x="249.04" y="283.67" width="68.8" height="4.43" fill="#e4e9f9"/>
      <rect x="249.04" y="349.58" width="32.06" height="4.43" fill="#e4e9f9"/>
      <rect x="335.88" y="397.24" width="32.06" height="4.43" transform="translate(653.73 751.25) rotate(180)" fill="#e4e9f9"/>
    </g>
  </g>
  <rect x="324.81" y="276.95" width="82.9" height="83.78" fill="#f49f9f"/>
  <polygon points="383.12 334.61 349.87 334.22 346.14 310.32 386.33 310.25 383.12 334.61" fill="#e50343"/>
  <polygon points="386.33 310.25 346.14 310.32 366.21 293.76 386.33 310.25" fill="#e50343"/>
  <rect x="402.35" y="355.58" width="27.43" height="23.17" transform="translate(-50.75 -46.92) rotate(-0.1)" fill="#e0e0e0"/>
  <polygon points="346.14 310.32 346.19 336.45 366.26 324.27 346.14 310.32" fill="#e50343"/>
  <polygon points="386.33 310.25 386.38 336.38 366.26 324.27 386.33 310.25" fill="#e50343"/>
  <polygon points="386.38 336.38 346.19 336.45 366.25 319.89 386.38 336.38" fill="#e50343"/>
  <polyline points="346.19 336.45 366.25 319.89 386.38 336.38" fill="#e50343" stroke="#fc8383" stroke-miterlimit="10"/>
  <line x1="369.14" y1="322.26" x2="386.33" y2="310.25" fill="#e50343" stroke="#f7bac6" stroke-miterlimit="10"/>
  <line x1="363.38" y1="322.27" x2="346.14" y2="310.32" fill="none" stroke="#f7bac6" stroke-miterlimit="10"/>
  <rect x="400.33" y="394.09" width="32.06" height="4.43" transform="translate(782.63 744.95) rotate(180)" fill="#fcd9e0"/>
  <g>
    <rect x="241.24" y="101.41" width="167.31" height="85.09" fill="#db4d4d"/>
    <path d="M457.9,149.81V233.4H292.1V149.81H457.9m1.5-1.5H290.6V234.9H459.4V148.31Z" transform="translate(-50.11 -47.65)" fill="#fff"/>
  </g>
  <g>
    <rect x="372.66" y="161.83" width="78.1" height="5.78" transform="translate(773.32 281.79) rotate(180)" fill="#f97878"/>
    <rect x="372.66" y="172.59" width="78.1" height="5.78" transform="translate(773.32 303.3) rotate(180)" fill="#f97878"/>
    <rect x="372.66" y="183.34" width="78.1" height="5.78" transform="translate(773.32 324.81) rotate(180)" fill="#f97878"/>
    <rect x="372.66" y="194.09" width="78.1" height="5.78" transform="translate(773.32 346.31) rotate(180)" fill="#f97878"/>
    <rect x="372.66" y="215.6" width="78.1" height="5.78" transform="translate(773.32 389.33) rotate(180)" fill="#f97878"/>
    <rect x="404.09" y="204.84" width="46.68" height="5.78" transform="translate(804.75 367.82) rotate(180)" fill="#f97878"/>
    <rect x="322.56" y="157.19" width="26.12" height="5.78" fill="#f97878"/>
  </g>
  <rect x="251.49" y="114.41" width="59.08" height="59.08" fill="#db1616"/>
  <polygon points="286.51 132.88 304.49 163.63 268.53 163.63 286.51 132.88" fill="#fff"/>
  <polygon points="268.29 142.99 272.13 150.38 265.25 163.63 257.58 163.63 268.29 142.99" fill="#fff"/>
  <path d="M309.2,178.76a3.33,3.33,0,1,0,3.33-3.33A3.33,3.33,0,0,0,309.2,178.76Z" transform="translate(-50.11 -47.65)" fill="#fff"/>
  <path d="M328.24,143h93.52a2.67,2.67,0,0,0,2.66-2.67h0a2.67,2.67,0,0,0-2.66-2.66H328.24a2.67,2.67,0,0,0-2.66,2.66h0A2.67,2.67,0,0,0,328.24,143Z" transform="translate(-50.11 -47.65)" fill="#ccc4c9"/>
  <line x1="324.89" y1="193.18" x2="324.89" y2="360.73" fill="none" stroke="#fff" stroke-miterlimit="10"/>
  <line x1="241.99" y1="276.95" x2="407.8" y2="276.95" fill="none" stroke="#fff" stroke-miterlimit="10"/>
  <g>
    <path d="M194.11,188.33c0-.67-.09-1.38-.17-2.14-.69-6.21-4.94-5.64-7.59-5.45s-5.94.29-7.21-2.6c-.55-1.25-.52-2.77-.88-4.13a6.41,6.41,0,0,0-6-4.82c-2.56,0-5,1.46-7.08,3.28-1.09.94-2.31,2.05-3.61,1.69a3.89,3.89,0,0,1-2-1.86c-3-4.92-3-12.08-6.33-16.71-3.66-5.11-10.51-5.21-15.14-1.5s-7.3,10.31-8.51,17c-.4,2.17-.74,4.55-2.07,6-1.92,2.11-4.84,1.41-7.39,1.13a10.62,10.62,0,0,0-8.53,2.32,9.85,9.85,0,0,0-3,7.78Z" transform="translate(-50.11 -47.65)" fill="#fff" stroke="#c1c1c1" stroke-linejoin="round"/>
    <path d="M365.4,80.77h84.17s-3.37-3.92-7.19-5.26c-4.8-1.68-6.8,3-9.84-3.07-1.7-3.43-2.89-8-7.37-9.12-7-1.84-8.78,3.95-12.12,2.39-2.92-1.38-2.83-6.87-5.79-11.46s-9.93-7.25-14.74-4.91c-8.77,4.28-7.63,11.08-10.51,13.32s-9.34-5.58-16.61,2.85C360.38,71.32,365.4,80.77,365.4,80.77Z" transform="translate(-50.11 -47.65)" fill="#fff" stroke="#c1c1c1" stroke-linejoin="round"/>
    <path d="M453.27,51.85a3.7,3.7,0,1,1-3.7-3.7A3.7,3.7,0,0,1,453.27,51.85Z" transform="translate(-50.11 -47.65)" fill="none" stroke="#c1c1c1" stroke-linejoin="round"/>
    <path d="M696.7,349.54a3.7,3.7,0,1,1-3.7-3.69A3.7,3.7,0,0,1,696.7,349.54Z" transform="translate(-50.11 -47.65)" fill="none" stroke="#c1c1c1" stroke-linejoin="round"/>
    <path d="M520.28,196.49a3.7,3.7,0,1,1-3.7-3.7A3.7,3.7,0,0,1,520.28,196.49Z" transform="translate(-50.11 -47.65)" fill="none" stroke="#c1c1c1" stroke-linejoin="round"/>
    <path d="M63.42,240.29a3.7,3.7,0,1,1-3.69-3.7A3.69,3.69,0,0,1,63.42,240.29Z" transform="translate(-50.11 -47.65)" fill="none" stroke="#c1c1c1" stroke-linejoin="round"/>
    <path d="M214.11,101.81a3.7,3.7,0,1,1-3.69-3.69A3.7,3.7,0,0,1,214.11,101.81Z" transform="translate(-50.11 -47.65)" fill="none" stroke="#c1c1c1" stroke-linejoin="round"/>
    <path d="M257.86,85a2.51,2.51,0,1,1-2.51-2.51A2.51,2.51,0,0,1,257.86,85Z" transform="translate(-50.11 -47.65)" fill="none" stroke="#c1c1c1" stroke-linejoin="round"/>
    <path d="M666.81,262.76a2.51,2.51,0,1,1-2.51-2.51A2.51,2.51,0,0,1,666.81,262.76Z" transform="translate(-50.11 -47.65)" fill="none" stroke="#c1c1c1" stroke-linejoin="round"/>
    <circle cx="434.28" cy="132" r="2.51" fill="none" stroke="#c1c1c1" stroke-linejoin="round"/>
    <path d="M585.66,116.47a2.52,2.52,0,1,1-2.51-2.51A2.52,2.52,0,0,1,585.66,116.47Z" transform="translate(-50.11 -47.65)" fill="none" stroke="#c1c1c1" stroke-linejoin="round"/>
    <path d="M580.31,300.42a2.51,2.51,0,1,1-2.51-2.51A2.51,2.51,0,0,1,580.31,300.42Z" transform="translate(-50.11 -47.65)" fill="none" stroke="#c1c1c1" stroke-linejoin="round"/>
    <path d="M190.6,324.46a2.52,2.52,0,1,1-2.51-2.51A2.51,2.51,0,0,1,190.6,324.46Z" transform="translate(-50.11 -47.65)" fill="none" stroke="#c1c1c1" stroke-linejoin="round"/>
    <path d="M198.13,209.75a2.51,2.51,0,1,1-2.51-2.51A2.51,2.51,0,0,1,198.13,209.75Z" transform="translate(-50.11 -47.65)" fill="none" stroke="#c1c1c1" stroke-linejoin="round"/>
    <path d="M454.17,219.31c0-.48.07-1,.14-1.53.56-4.45,4.06-4,6.23-3.91s4.87.21,5.91-1.86a17.18,17.18,0,0,0,.73-3,5.2,5.2,0,0,1,5-3.46,9.94,9.94,0,0,1,5.8,2.35c5.58,4.23,7.18-6.9,9.83-10.13,3-3.66,8.61-5.72,12.41-3.06s6,7.41,7,12.19c.33,1.56.44,3.47,1.71,4.33,3.69,2.51,8.44-2.37,12.9,1.42,1.56,1.33,1.86,4.54,1.66,6.63Z" transform="translate(-50.11 -47.65)" fill="#fff" stroke="#c1c1c1" stroke-linejoin="round"/>
    <line x1="46.12" y1="400.36" x2="603.67" y2="400.36" fill="none" stroke="#c1c1c1" stroke-miterlimit="10"/>
  </g>
  <g>
    <g>
      <path d="M623.05,420.18l1.74,28.54-.93,9-34-.18a1.55,1.55,0,0,1-1.55-1.56h0a1.57,1.57,0,0,1,1-1.45l15.18-7L601,417.83" transform="translate(-50.11 -47.65)" fill="#ffcbbd"/>
      <path d="M586.74,457.14c.36-1.12,1-2.39,1.69-2.68l16.1-6.93c8.87,3.6,20.35.85,20.35.85l.88,12.12a.73.73,0,0,1-.73.72l-38-.2C586.23,461,586.73,457.18,586.74,457.14Z" transform="translate(-50.11 -47.65)" fill="#f7471e"/>
      <path d="M601,448.22a19.08,19.08,0,0,1,2.27,3.81" transform="translate(-50.11 -47.65)" fill="none" stroke="#b22b19" stroke-miterlimit="10" stroke-width="0.75"/>
      <path d="M599,449.44a16.86,16.86,0,0,1,1.86,3.24" transform="translate(-50.11 -47.65)" fill="none" stroke="#b22b19" stroke-miterlimit="10" stroke-width="0.75"/>
      <path d="M597.3,450.32a22.68,22.68,0,0,1,1.75,3" transform="translate(-50.11 -47.65)" fill="none" stroke="#b22b19" stroke-miterlimit="10" stroke-width="0.75"/>
    </g>
    <line x1="575.45" y1="410.95" x2="536.47" y2="410.74" fill="none" stroke="#b22b19" stroke-miterlimit="10" stroke-width="0.75"/>
    <path d="M625.2,452.8s-9,.07-9.83,5.75" transform="translate(-50.11 -47.65)" fill="none" stroke="#b22b19" stroke-miterlimit="10" stroke-width="0.75"/>
    <path d="M591.73,453s2.6,3.7,3.11,5.4" transform="translate(-50.11 -47.65)" fill="none" stroke="#b22b19" stroke-miterlimit="10" stroke-width="0.75"/>
  </g>
  <path d="M596.32,310.5s-4.89,40.17-3,69.34,4.57,63,4.57,63h29.58s-3.84-50.08-3.42-73.53c.47-26,8.41-58.82,8.41-58.82" transform="translate(-50.11 -47.65)" fill="#1f45b2"/>
  <path d="M621.45,442.85s-3.84-50.08-3.42-73.53c.47-26,8.41-58.82,8.41-58.82" transform="translate(-50.11 -47.65)" fill="none" stroke="#121649" stroke-miterlimit="10" stroke-width="0.75"/>
  <g>
    <g>
      <path d="M661.91,382l27.44,8.82,8.27,3.6-10.46,32.38a1.55,1.55,0,0,1-2,1h0a1.53,1.53,0,0,1-1.07-1.39l-2.07-16.58-28.48-9.26" transform="translate(-50.11 -47.65)" fill="#ffcbbd"/>
      <path d="M685.86,429.59c-1-.68-2-1.7-2-2.42l-1.74-17.44c6.11-7.36,7-19.14,7-19.14l11.81,2.83a.73.73,0,0,1,.47.91l-11.69,36.18C689.4,431.25,685.9,429.61,685.86,429.59Z" transform="translate(-50.11 -47.65)" fill="#f7471e"/>
      <path d="M681.69,413.26a19.26,19.26,0,0,1,4.32-1" transform="translate(-50.11 -47.65)" fill="none" stroke="#b22b19" stroke-miterlimit="10" stroke-width="0.75"/>
      <path d="M682.23,415.56a16.78,16.78,0,0,1,3.65-.8" transform="translate(-50.11 -47.65)" fill="none" stroke="#b22b19" stroke-miterlimit="10" stroke-width="0.75"/>
      <path d="M682.56,417.46a25.2,25.2,0,0,1,3.36-.77" transform="translate(-50.11 -47.65)" fill="none" stroke="#b22b19" stroke-miterlimit="10" stroke-width="0.75"/>
    </g>
    <line x1="648.89" y1="345.39" x2="636.9" y2="382.47" fill="none" stroke="#b22b19" stroke-miterlimit="10" stroke-width="0.75"/>
    <path d="M693.36,391.62s-2.67,8.62,2.5,11.11" transform="translate(-50.11 -47.65)" fill="none" stroke="#b22b19" stroke-miterlimit="10" stroke-width="0.75"/>
    <path d="M683.46,423.6a30.92,30.92,0,0,1,6.09-1.34" transform="translate(-50.11 -47.65)" fill="none" stroke="#b22b19" stroke-miterlimit="10" stroke-width="0.75"/>
  </g>
  <path d="M644.47,311.79s2.66,11.42,2.66,16.32c0,3.6-1.43,6.05-2.19,8.69a14.3,14.3,0,0,0-.57,3.45c-.22,5.25-.53,20,2.76,27,4,8.61,37.68,20,37.68,20L676.28,413s-51.49-12.94-57.91-28.7c-9-22-6.4-72.48-6.4-72.48" transform="translate(-50.11 -47.65)" fill="#1f45b2"/>
  <path d="M624.58,391.62c-3-2.35-5.18-4.81-6.21-7.35-9-22-6.4-72.48-6.4-72.48" transform="translate(-50.11 -47.65)" fill="none" stroke="#121649" stroke-miterlimit="10" stroke-width="0.75"/>
  <path d="M640.11,310.84s3,14.37,3,19.27c0,3.67-1.49,6.25-2.23,8.83a14.4,14.4,0,0,0-.56,3.2c-.32,5.18-.88,20.22,2.79,27.1,5.09,9.55,40.33,22.11,40.33,22.11" transform="translate(-50.11 -47.65)" fill="none" stroke="#121649" stroke-miterlimit="10" stroke-width="0.75"/>
  <path d="M607.76,314.6s-.45,10.37,1,11.62a23.06,23.06,0,0,0,2.87,2.07" transform="translate(-50.11 -47.65)" fill="none" stroke="#121649" stroke-miterlimit="10" stroke-width="0.75"/>
  <line x1="630.47" y1="338.11" x2="621.08" y2="363.93" fill="none" stroke="#121649" stroke-miterlimit="10" stroke-width="0.75"/>
  <line x1="547.36" y1="390.11" x2="576.97" y2="390.11" fill="none" stroke="#121649" stroke-miterlimit="10" stroke-width="0.75"/>
  <path d="M632,312.59s1.84,6.62,10.06,8.57" transform="translate(-50.11 -47.65)" fill="none" stroke="#121649" stroke-miterlimit="10" stroke-width="0.75"/>
  <path d="M595.37,320s7.42-2.17,9.7-7.41" transform="translate(-50.11 -47.65)" fill="none" stroke="#121649" stroke-miterlimit="10" stroke-width="0.75"/>
  <g>
    <path d="M613.26,232.48l-1.32,9.31s-.12,2.58,4.89,4.37a8.79,8.79,0,0,0,9.77-2.5l-.41-9.41" transform="translate(-50.11 -47.65)" fill="#ffcbbb"/>
    <path d="M612.52,220.14s-6.45,10.78-2,15.09c4.06,3.91,13,1.46,13.81.1s5.9-13.42,3.12-15.08C622.53,217.31,615.28,215.5,612.52,220.14Z" transform="translate(-50.11 -47.65)" fill="#ffcbbb"/>
    <path d="M612.59,237.24a13.18,13.18,0,0,0,8.4-.36" transform="translate(-50.11 -47.65)" fill="none" stroke="#ef977f" stroke-miterlimit="10"/>
    <path d="M611.44,213.14c.85-6.37,8.57-1.61,11.71,1.3.94.87,6.45,2.49,7.35,3.41a6.63,6.63,0,0,1,1.85,3.32,7.87,7.87,0,0,1-.24,3.34,40.09,40.09,0,0,1-2,5.72c-.84,2-2.34,6.1-5.25,5.68a2.41,2.41,0,0,1-1.55-.63,2,2,0,0,1-.32-1.6,7.59,7.59,0,0,1,.8-2.62c-.61.16-1.23.53-1.8.3a1,1,0,0,1-.4-.44c-.38-.62.08-4.74,2-6.36-2.77-1.31-4.93-1.43-7.76-2.62a8.79,8.79,0,0,1-4.06-3.21C610.58,217.17,611.19,215.06,611.44,213.14Z" transform="translate(-50.11 -47.65)" fill="#4a1a1a"/>
    <path d="M623.08,230.69c.7-1,1.79-2.13,2.83-1.09a2.42,2.42,0,0,1,.51,1.56c.12,2-1.84,4.43-3.55,3.75-.84-.34-1.07-1.48-1.23-2.41" transform="translate(-50.11 -47.65)" fill="#ffcbbb"/>
    <path d="M614,224.9s-2.79,2.74-2.8,3.67,2.1,1.51,2.1,1.51" transform="translate(-50.11 -47.65)" fill="none" stroke="#f7a794" stroke-miterlimit="10" stroke-width="0.5"/>
    <path d="M610.1,230.41l5,1.87a3,3,0,0,1-4.16,1.6C608.8,232.91,610.1,230.41,610.1,230.41Z" transform="translate(-50.11 -47.65)" fill="#fff"/>
    <path d="M611.83,223.37a7.74,7.74,0,0,0-.42.68c-.25.45.45.85.68.4a8.58,8.58,0,0,0,.37-.82c.15-.38-.42-.56-.63-.26Z" transform="translate(-50.11 -47.65)" fill="#212237"/>
    <path d="M614,222.42a1.55,1.55,0,0,0-2.12-.74" transform="translate(-50.11 -47.65)" fill="none" stroke="#212237" stroke-linecap="round" stroke-linejoin="round" stroke-width="0.5"/>
    <path d="M618.07,226.37a6.8,6.8,0,0,0-.38.7c-.22.46.48.86.68.4a8.43,8.43,0,0,0,.33-.83.35.35,0,0,0-.63-.27Z" transform="translate(-50.11 -47.65)" fill="#212237"/>
    <path d="M618.27,224.07s1.52-.17,2.62,1.83" transform="translate(-50.11 -47.65)" fill="none" stroke="#212237" stroke-linecap="round" stroke-linejoin="round" stroke-width="0.5"/>
  </g>
  <g>
    <path d="M591.64,191.74c-.41-5.41.31-20.72-.63-21.13s-1.34,4.79-2.06,4.31-.66-8.5-1.71-8.65c-1.43-.2-1,8-1,8s-.87-9-2.16-8.8c-.92.13-.57,7-.77,9.66-.15-2.89-1-8.28-2-8.13s-.75,5.57-.84,9.17c-.15-2.25-.61-7.17-1.49-7.07s-1.14,12.89-1.16,23.67" transform="translate(-50.11 -47.65)" fill="#ffcbbd"/>
    <path d="M590.28,245.89a161.81,161.81,0,0,1-9.44-26.33c-3.64-14.18-3-32.61-3-32.61l13.64,2.29a114.7,114.7,0,0,0,16.15,51.28" transform="translate(-50.11 -47.65)" fill="#ffcbbd"/>
    <path d="M580.66,176.8c1.12,1.71,2.61,3.72,2.54,7.06" transform="translate(-50.11 -47.65)" fill="none" stroke="#f7a794" stroke-miterlimit="10"/>
    <path d="M588.83,176.15c-1.31,1.17-2.73,4.32-2,5.94" transform="translate(-50.11 -47.65)" fill="none" stroke="#f7a794" stroke-miterlimit="10"/>
  </g>
  <path d="M635.54,189.13a40.72,40.72,0,0,0,5.21-7.81,39.63,39.63,0,0,0,3.25-8.8l-8.08-2.73a31.75,31.75,0,0,0,.66-8.39L645,160a40.27,40.27,0,0,0-5.75-17.73L631.59,146a31.29,31.29,0,0,0-5.46-6.4l4.94-7a40.37,40.37,0,0,0-7.8-5.22,41,41,0,0,0-8.8-3.25l-2.74,8.08a31.32,31.32,0,0,0-8.39-.65l-1.43-8.42A40.18,40.18,0,0,0,584.18,129l3.79,7.66a31,31,0,0,0-6.41,5.45l-7-4.93a40.33,40.33,0,0,0-5.21,7.8,39.82,39.82,0,0,0-3.25,8.8l8.08,2.73a30.93,30.93,0,0,0-.66,8.39l-8.42,1.44A40.14,40.14,0,0,0,570.89,184l7.66-3.78a31.29,31.29,0,0,0,5.46,6.4l-4.94,7a39.85,39.85,0,0,0,16.6,8.47l2.74-8.08a31.68,31.68,0,0,0,8.39.66l1.43,8.42A40.36,40.36,0,0,0,626,197.3l-3.79-7.65a31.94,31.94,0,0,0,6.41-5.46Zm-37.45-12.31a15.37,15.37,0,1,1,20.67-6.71A15.38,15.38,0,0,1,598.09,176.82Z" transform="translate(-50.11 -47.65)" fill="#c91b1b"/>
  <path d="M612.13,240.47c-4.06,0-10.39-13-10.39-13l-16.3,12.12s5.21,16.2,14,26.48" transform="translate(-50.11 -47.65)" fill="#f7471e"/>
  <line x1="552.99" y1="182.43" x2="536.38" y2="194.9" fill="none" stroke="#b22b19" stroke-miterlimit="10" stroke-width="0.75"/>
  <g>
    <path d="M654.28,185.11c-.87-6-3.13-20-4.14-20.2s-1.41,3.11-1,4.48c-.63-2.55-2.39-8.13-3.46-8.09-1.44,0,.37,8.08.37,8.08s-2.42-8.69-3.66-8.29c-.88.29.66,7,.93,9.65-.65-2.83-2.43-8-3.34-7.67s.23,5.62.78,9.18c-.55-2.19-1.86-7-2.71-6.7s1.37,11.25,2.68,22.22" transform="translate(-50.11 -47.65)" fill="#ffcbbd"/>
    <path d="M651.47,241.06a162.49,162.49,0,0,0,4.73-27.57c1.12-14.59-2.71-32.63-2.71-32.63l-13,4.62a114.65,114.65,0,0,1-7,53.3" transform="translate(-50.11 -47.65)" fill="#ffcbbd"/>
  </g>
  <path d="M612.13,240.47s.79,2.28,5.28,2.51a13.26,13.26,0,0,0,9-2.51s17.27,2.29,18.66,21.15c1.61,21.72,2,52.23,2,52.23H593.3s.36-34.84,1.49-51.47C595.88,246.45,612.13,240.47,612.13,240.47Z" transform="translate(-50.11 -47.65)" fill="#f7471e"/>
  <path d="M645,264a181.38,181.38,0,0,0,8.8-29.76l-17.28-8.36s-4.12,11.47-10.14,14.59" transform="translate(-50.11 -47.65)" fill="#f7471e"/>
  <line x1="585.06" y1="181.53" x2="602.99" y2="190.12" fill="none" stroke="#b22b19" stroke-miterlimit="10" stroke-width="0.75"/>
  <line x1="543.19" y1="263.22" x2="596.97" y2="263.22" fill="none" stroke="#b22b19" stroke-miterlimit="10" stroke-width="0.75"/>
  <path d="M645.51,262.76s-2.18,4.69-2.42,7.05" transform="translate(-50.11 -47.65)" fill="none" stroke="#b22b19" stroke-miterlimit="10" stroke-width="0.75"/>
  <path d="M598.78,250.36a34.32,34.32,0,0,0-4,12" transform="translate(-50.11 -47.65)" fill="none" stroke="#b22b19" stroke-miterlimit="10" stroke-width="0.75"/>
  <path d="M610.08,239.61a7.63,7.63,0,0,0,7.92,6.28c8.6,0,10.3-6.28,10.3-6.28" transform="translate(-50.11 -47.65)" fill="none" stroke="#b22b19" stroke-miterlimit="10" stroke-width="0.75"/>
  <path d="M649.13,169.39c0-.06.08.1.11.15l.13.24.22.49c.14.33.25.67.36,1a9.8,9.8,0,0,1,.44,2.1,5.22,5.22,0,0,1-.53-1,7.09,7.09,0,0,1-.38-1,8.78,8.78,0,0,1-.26-1l-.09-.53,0-.27v-.14S649.12,169.28,649.13,169.39Z" transform="translate(-50.11 -47.65)" fill="#ef977f"/>
  <g>
    <g>
      <path d="M521.8,418.63l.94,29.62-1,9.32-35.31-.19a1.62,1.62,0,0,1-1.61-1.62h0a1.61,1.61,0,0,1,1-1.5L501.65,447l-2.38-30.81" transform="translate(-50.11 -47.65)" fill="#ffcbbd"/>
      <path d="M483.26,457c.37-1.17,1.06-2.48,1.75-2.78l16.7-7.2c9.21,3.74,21.12.88,21.12.88l.92,12.58a.76.76,0,0,1-.76.75L483.54,461C482.72,461,483.24,457,483.26,457Z" transform="translate(-50.11 -47.65)" fill="#18277a"/>
      <path d="M498.09,447.73a19.55,19.55,0,0,1,2.36,4" transform="translate(-50.11 -47.65)" fill="none" stroke="#121649" stroke-miterlimit="10" stroke-width="0.75"/>
      <path d="M496,449a17.44,17.44,0,0,1,1.94,3.36" transform="translate(-50.11 -47.65)" fill="none" stroke="#121649" stroke-miterlimit="10" stroke-width="0.75"/>
      <path d="M494.21,449.91A24.42,24.42,0,0,1,496,453" transform="translate(-50.11 -47.65)" fill="none" stroke="#121649" stroke-miterlimit="10" stroke-width="0.75"/>
    </g>
    <line x1="473.42" y1="410.85" x2="432.98" y2="410.64" fill="none" stroke="#121649" stroke-miterlimit="10" stroke-width="0.75"/>
    <path d="M523.17,452.49s-9.37.06-10.21,6" transform="translate(-50.11 -47.65)" fill="none" stroke="#121649" stroke-miterlimit="10" stroke-width="0.75"/>
    <path d="M488.43,452.73s2.7,3.84,3.23,5.61" transform="translate(-50.11 -47.65)" fill="none" stroke="#121649" stroke-miterlimit="10" stroke-width="0.75"/>
  </g>
  <path d="M517.7,302.25s4.3,7.24,5.54,12.63a44.47,44.47,0,0,1,0,17.36l-.09,103.55H496.93S491.12,316.46,493.7,301" transform="translate(-50.11 -47.65)" fill="#204bc6"/>
  <path d="M500.93,435.79S495.12,316.46,497.7,301" transform="translate(-50.11 -47.65)" fill="none" stroke="#121649" stroke-miterlimit="10" stroke-width="0.75"/>
  <g>
    <g>
      <path d="M492.84,407l11.92,27.14,2.57,9-32.83,13a1.62,1.62,0,0,1-2.1-.91h0a1.62,1.62,0,0,1,.41-1.78l11.92-12.59L471,413.1" transform="translate(-50.11 -47.65)" fill="#ffcbbd"/>
      <path d="M471.38,456.93c-.09-1.23.05-2.7.58-3.24l12.82-12.9c9.94,0,19.93-7.05,19.93-7.05l5.54,11.33a.75.75,0,0,1-.43,1l-36.68,14.52C472.38,460.86,471.38,457,471.38,456.93Z" transform="translate(-50.11 -47.65)" fill="#0e32ae"/>
      <path d="M481.7,442.81a19.4,19.4,0,0,1,3.65,2.79" transform="translate(-50.11 -47.65)" fill="none" stroke="#121649" stroke-miterlimit="10" stroke-width="0.75"/>
      <path d="M480.21,444.76a17.05,17.05,0,0,1,3.05,2.4" transform="translate(-50.11 -47.65)" fill="none" stroke="#121649" stroke-miterlimit="10" stroke-width="0.75"/>
      <path d="M478.91,446.27a24.86,24.86,0,0,1,2.83,2.19" transform="translate(-50.11 -47.65)" fill="none" stroke="#121649" stroke-miterlimit="10" stroke-width="0.75"/>
    </g>
    <line x1="459.21" y1="395.67" x2="421.6" y2="410.55" fill="none" stroke="#121649" stroke-miterlimit="10" stroke-width="0.75"/>
    <path d="M506.73,437.87s-8.66,3.56-7.25,9.34" transform="translate(-50.11 -47.65)" fill="none" stroke="#121649" stroke-miterlimit="10" stroke-width="0.75"/>
    <path d="M474.59,451.05s3.93,2.55,5.09,4" transform="translate(-50.11 -47.65)" fill="none" stroke="#121649" stroke-miterlimit="10" stroke-width="0.75"/>
  </g>
  <path d="M472.5,319.13c-13.47,33.1-13.71,36.61-15.93,52.76-2.27,16.58,22.64,65.39,22.64,65.39l23.9-10.55s-15.86-44.66-14.83-52.34c1.89-14.13,18.19-38.24,18.19-38.24s7.75-6.13,9.43-14.27-2-16.67-2-16.67" transform="translate(-50.11 -47.65)" fill="#204bc6"/>
  <path d="M497.08,323l10.73-3.38" transform="translate(-50.11 -47.65)" fill="none" stroke="#121649" stroke-miterlimit="10" stroke-width="0.75"/>
  <line x1="469.86" y1="268.96" x2="473.27" y2="267.87" fill="none" stroke="#121649" stroke-miterlimit="10" stroke-width="0.75"/>
  <path d="M480.5,318.13s-16.65,36.19-18.93,52.76,21.95,64,21.95,64" transform="translate(-50.11 -47.65)" fill="none" stroke="#121649" stroke-miterlimit="10" stroke-width="0.75"/>
  <path d="M493.82,358.48a173.07,173.07,0,0,1,12.65-22.33s7.75-6.13,9.43-14.27" transform="translate(-50.11 -47.65)" fill="none" stroke="#121649" stroke-miterlimit="10" stroke-width="0.75"/>
  <g>
    <path d="M470.24,237.2l6.85,11.92S473,258,461.88,253.79l-2.85-6.3Z" transform="translate(-50.11 -47.65)" fill="#ffcbbd"/>
    <path d="M452,229.13s-3.37,15.86,2.5,18.69c3.05,1.47,11.59.56,13.61-2.7,1.49-2.41.91-13.85-.92-15.24C460.22,224.58,452,229.13,452,229.13Z" transform="translate(-50.11 -47.65)" fill="#ffcbbd"/>
    <path d="M466.9,224.43c-2.57-4.48-7.79-3.59-16.29,1.25-1.14.64-3.62.88-3.64,2.18,0,1.72,1.2,4.56,3.19,5.12a5.62,5.62,0,0,0,3.37,0c1.77-.41,4.13.3,4.11,2.38,0,.54-.17,1.54.34,1.73a4.73,4.73,0,0,0,1.19,0c.8,0,1.23,1,1.14,1.8s.4,1.37.3,2.16c-.24,1.87,2.15,3.92,4,4.06,1.66.13,6.52-.68,8.82-3.8,2-2.72,1.74-7.3-1.59-14.11C470.59,224.57,467.79,223.77,466.9,224.43Z" transform="translate(-50.11 -47.65)" fill="#212237"/>
    <path d="M457.48,237.76c.54-2.54,1.86-2.83,3-2.14,1.51.92,1.18,4.54.62,5.41-1.14,1.76-2.49,2.3-3.26,1.05" transform="translate(-50.11 -47.65)" fill="#ffcbbd"/>
    <path d="M459.57,248.48c1.75-1.45,1.49-4.23,1.49-4.23" transform="translate(-50.11 -47.65)" fill="none" stroke="#e88872" stroke-linejoin="round" stroke-width="0.5"/>
    <path d="M452.54,236.71c-.24.55-.32,1.36.13,1.71a.38.38,0,0,0,.42,0C454,237.88,453.05,235.57,452.54,236.71Z" transform="translate(-50.11 -47.65)" fill="#28364c"/>
    <path d="M451.82,235a3.83,3.83,0,0,1,2.58.54" transform="translate(-50.11 -47.65)" fill="none" stroke="#28364c" stroke-miterlimit="10" stroke-width="0.75"/>
    <path d="M454.75,242.55l-2.56-.09s-.11,3.15,1.1,3.21S454.75,242.55,454.75,242.55Z" transform="translate(-50.11 -47.65)" fill="#fff"/>
  </g>
  <g>
    <path d="M475.51,246.37s6-1.53,14.42.93c7.12,2.08,16.2,7.42,23,14.68,11.82,12.57,6.37,43.81,6.37,43.81L504,305.21s2.41-20.07-5.64-28.13-19.41-9.94-19.41-9.94" transform="translate(-50.11 -47.65)" fill="#adbbf9"/>
    <path d="M410.29,290.26c-4.82,1.34-19.41,2.92-19.65,3.92s4.91.5,4.56,1.29-8.2,2.07-8.17,3.13c0,1.43,8-.32,8-.32s-3.32.59-2.92,1.82c.28.88,1.63,1.15,4.25.9-1.43.32-2,1-1.69,1.91s1.7.84,3.18.64c-1,.23-1.8.9-1.14,1.49.85.77,6.81.44,17.36-1.35" transform="translate(-50.11 -47.65)" fill="#ffcbbd"/>
    <path d="M460.32,250.36a12.41,12.41,0,0,0,8.67,0,17.76,17.76,0,0,0,6.52-4s10.33-.71,22.91,11.86S521,307,521,307l-52.06,17.5s-8.91-31.54-12.41-45.9S460.32,250.36,460.32,250.36Z" transform="translate(-50.11 -47.65)" fill="#adbbf9"/>
    <path d="M497.73,254.93C508.14,267.08,521,307,521,307" transform="translate(-50.11 -47.65)" fill="none" stroke="#525bce" stroke-miterlimit="10" stroke-width="0.75"/>
    <path d="M460.32,250.36c-6.85,2.63-12.74,9.28-16.36,16.14-5.92,11.23-9.53,19.37-9.53,19.37l-29.85,4.48,1.48,15.92s20.27-.6,36.42-3c11.47-1.72,20.36-25.51,20.36-25.51" transform="translate(-50.11 -47.65)" fill="#adbbf9"/>
    <path d="M458.31,251.26s3.31,4.41,11.22,1.44,8.21-6.64,8.21-6.64" transform="translate(-50.11 -47.65)" fill="none" stroke="#525bce" stroke-miterlimit="10" stroke-width="0.75"/>
    <line x1="408.93" y1="238.26" x2="412.17" y2="231.4" fill="none" stroke="#525bce" stroke-miterlimit="10" stroke-width="0.75"/>
    <line x1="359.14" y1="241.99" x2="360.27" y2="258.39" fill="none" stroke="#525bce" stroke-miterlimit="10" stroke-width="0.75"/>
    <line x1="417.87" y1="273.4" x2="469.86" y2="256.22" fill="none" stroke="#525bce" stroke-miterlimit="10" stroke-width="0.75"/>
  </g>
  <path d="M263.21,277.48l.71.45a29.66,29.66,0,0,0,7.35,3.75c1.54.46,3.21.69,4.46,1.69a14,14,0,0,0,1.5,1.16c.15.08,1.63.63,1.57.48a2.16,2.16,0,0,0,1.32,1,.45.45,0,0,0,.2,0,.13.13,0,0,0,.1-.15c.19.37.86.54,1.07.34s-.31-1.14-.31-1.14.36,0,.46-.1a1.22,1.22,0,0,0,.23-.73,8.56,8.56,0,0,0-2.53-6.58" transform="translate(-50.11 -47.65)" fill="#ffcbbd"/>
  <path d="M279.83,282.46a3.1,3.1,0,0,0,.4,1.2,10.09,10.09,0,0,0,.56,1.2.17.17,0,0,0,.31-.13,5.18,5.18,0,0,0-.46-1.34,2.28,2.28,0,0,0-.69-1c-.05,0-.12,0-.12.07Z" transform="translate(-50.11 -47.65)" fill="#f49c8e"/>
  <path d="M277.32,282.54a36,36,0,0,1,2.56,3c.08.11.29.05.24-.11-.38-1.31-1.69-2.11-2.63-3-.11-.11-.27.06-.17.17Z" transform="translate(-50.11 -47.65)" fill="#f49c8e"/>
  <g>
    <line x1="211.1" y1="413.56" x2="193.33" y2="232.21" fill="none" stroke="#db0b0b" stroke-miterlimit="10"/>
    <polyline points="280.28 413.56 262.51 232.21 193.33 232.21" fill="none" stroke="#db0b0b" stroke-miterlimit="10"/>
    <line x1="244.74" y1="413.56" x2="262.51" y2="232.21" fill="none" stroke="#db0b0b" stroke-miterlimit="10"/>
    <polyline points="175.57 413.56 193.33 232.21 262.51 232.21" fill="none" stroke="#db0b0b" stroke-miterlimit="10"/>
    <line x1="277.43" y1="387.87" x2="178.08" y2="387.87" fill="none" stroke="#db0b0b" stroke-miterlimit="10"/>
    <line x1="275.12" y1="365.67" x2="180.26" y2="365.67" fill="none" stroke="#db0b0b" stroke-miterlimit="10"/>
    <line x1="273.35" y1="342.85" x2="182.5" y2="342.85" fill="none" stroke="#db0b0b" stroke-miterlimit="10"/>
    <line x1="271.13" y1="321.1" x2="184.63" y2="321.1" fill="none" stroke="#db0b0b" stroke-miterlimit="10"/>
    <line x1="268.99" y1="298.38" x2="186.76" y2="298.38" fill="none" stroke="#db0b0b" stroke-miterlimit="10"/>
    <line x1="266.79" y1="275.87" x2="188.98" y2="275.87" fill="none" stroke="#db0b0b" stroke-miterlimit="10"/>
    <line x1="264.2" y1="254.61" x2="191.14" y2="254.61" fill="none" stroke="#db0b0b" stroke-miterlimit="10"/>
  </g>
  <path d="M259.35,279.41q10.65,0,21.29-.05a10.86,10.86,0,0,0-1.85-2.71,10.18,10.18,0,0,0-2.64-2A24.17,24.17,0,0,0,265.44,272" transform="translate(-50.11 -47.65)" fill="#ffcbbd"/>
  <path d="M234.57,230.48s9.71,25.3,12.13,27.43,25.55,13.62,25.55,13.62l-7.08,15s-27.82-11.11-31.81-15-16.67-18.95-17.94-34.07" transform="translate(-50.11 -47.65)" fill="#e23917"/>
  <g>
    <g>
      <g>
        <path d="M216,395.88l-1,27.24.84,8.57h32.48a1.49,1.49,0,0,0,1.48-1.49h0a1.48,1.48,0,0,0-1-1.38l-14.46-6.73,2.33-28.34" transform="translate(-50.11 -47.65)" fill="#ffcbbd"/>
        <path d="M251.3,431.33a4.49,4.49,0,0,0-1.59-2.56l-15.33-6.69c-8.48,3.39-19.43.71-19.43.71l-.9,11.56a.69.69,0,0,0,.7.69H251C251.78,435,251.32,431.37,251.3,431.33Z" transform="translate(-50.11 -47.65)" fill="#f7471e"/>
        <path d="M237.7,422.75a18.31,18.31,0,0,0-2.18,3.63" transform="translate(-50.11 -47.65)" fill="none" stroke="#b22b19" stroke-miterlimit="10" stroke-width="0.75"/>
        <path d="M239.63,423.92a16,16,0,0,0-1.8,3.08" transform="translate(-50.11 -47.65)" fill="none" stroke="#b22b19" stroke-miterlimit="10" stroke-width="0.75"/>
        <path d="M241.26,424.77a21.74,21.74,0,0,0-1.68,2.83" transform="translate(-50.11 -47.65)" fill="none" stroke="#b22b19" stroke-miterlimit="10" stroke-width="0.75"/>
      </g>
      <line x1="164.15" y1="384.89" x2="201.35" y2="384.88" fill="none" stroke="#b22b19" stroke-miterlimit="10" stroke-width="0.75"/>
      <path d="M214.62,427s8.62.1,9.36,5.53" transform="translate(-50.11 -47.65)" fill="none" stroke="#b22b19" stroke-miterlimit="10" stroke-width="0.75"/>
      <path d="M246.57,427.4a29.24,29.24,0,0,0-3,5.13" transform="translate(-50.11 -47.65)" fill="none" stroke="#b22b19" stroke-miterlimit="10" stroke-width="0.75"/>
    </g>
    <path d="M208.86,293.5s-3.13,13.88,3.6,30.7A250.81,250.81,0,0,1,216,361.88c.26,20.5-2.47,46.62-2.47,56.38h26.72s3.28-27.79,3.57-55.79c.32-31.36-2.33-66.76-2.33-75.9" transform="translate(-50.11 -47.65)" fill="#adbbf9"/>
    <path d="M236.24,418.26s3.28-28.3,3.58-56.65c.32-31.14-2.34-66-2.34-75" transform="translate(-50.11 -47.65)" fill="none" stroke="#525bce" stroke-miterlimit="10" stroke-width="0.75"/>
    <g>
      <g>
        <path d="M261.2,373.72l-1,27.23.84,8.58,32.48,0A1.48,1.48,0,0,0,295,408h0a1.49,1.49,0,0,0-.95-1.39l-14.46-6.73,2.33-28.33" transform="translate(-50.11 -47.65)" fill="#ffcbbd"/>
        <path d="M296.47,409.17a4.56,4.56,0,0,0-1.59-2.57l-15.33-6.69c-8.48,3.39-19.43.71-19.43.71l-.9,11.56a.7.7,0,0,0,.7.7l36.28,0C297,412.86,296.49,409.2,296.47,409.17Z" transform="translate(-50.11 -47.65)" fill="#f7471e"/>
        <path d="M282.87,400.59a18.52,18.52,0,0,0-2.18,3.62" transform="translate(-50.11 -47.65)" fill="none" stroke="#b22b19" stroke-miterlimit="10" stroke-width="0.75"/>
        <path d="M284.8,401.75a16,16,0,0,0-1.8,3.09" transform="translate(-50.11 -47.65)" fill="none" stroke="#b22b19" stroke-miterlimit="10" stroke-width="0.75"/>
        <path d="M286.43,402.61a21.74,21.74,0,0,0-1.68,2.83" transform="translate(-50.11 -47.65)" fill="none" stroke="#b22b19" stroke-miterlimit="10" stroke-width="0.75"/>
      </g>
      <line x1="209.32" y1="362.72" x2="246.52" y2="362.71" fill="none" stroke="#b22b19" stroke-miterlimit="10" stroke-width="0.75"/>
      <path d="M259.79,404.85s8.62.1,9.36,5.52" transform="translate(-50.11 -47.65)" fill="none" stroke="#b22b19" stroke-miterlimit="10" stroke-width="0.75"/>
      <path d="M291.74,405.23a29,29,0,0,0-3,5.14" transform="translate(-50.11 -47.65)" fill="none" stroke="#b22b19" stroke-miterlimit="10" stroke-width="0.75"/>
    </g>
    <path d="M253.87,295s25.67,24.33,31.45,40.18c4,11.05-1.82,61.47-1.82,61.47H257.93s3.11-45.9,1.5-50.63c-1.9-5.57-23.91-24.57-23.91-24.57a21.6,21.6,0,0,1-13.82-12.09c-4-9-2.15-19.92-2.15-19.92" transform="translate(-50.11 -47.65)" fill="#adbbf9"/>
    <path d="M247.87,295s26.61,28.13,31.45,40.18c3.68,9.16-1.82,61.47-1.82,61.47" transform="translate(-50.11 -47.65)" fill="none" stroke="#525bce" stroke-miterlimit="10" stroke-width="0.75"/>
    <path d="M243.26,328.4c-2-1.83-5.51-5-6.57-5.91a6.89,6.89,0,0,0-2.32-1.36,21.8,21.8,0,0,1-12.67-11.75" transform="translate(-50.11 -47.65)" fill="none" stroke="#525bce" stroke-miterlimit="10" stroke-width="0.75"/>
    <path d="M228.77,303.78s7.66.26,10.86,0" transform="translate(-50.11 -47.65)" fill="none" stroke="#525bce" stroke-miterlimit="10" stroke-width="0.75"/>
    <line x1="158.03" y1="256.12" x2="164.2" y2="256.12" fill="none" stroke="#525bce" stroke-miterlimit="10" stroke-width="0.75"/>
  </g>
  <g>
    <path d="M299.75,233.4c2.68-1.22,14.9-6.57,15.19-5.82s-3.59,3.29-3.16,3.41a23.91,23.91,0,0,0,5.42-1.68c1.54-.76,4.14-1.72,4.56-1.09.79,1.2-7.72,5.24-7.72,5.24s1.5-.7,2.27.24c1.1,1.34-1.23,2.58-1.23,2.58s1.33-.68,1.78.48-1.55,2.17-1.55,2.17,1.59-.76,1.79.69c.27,1.91-12.43,6.39-12.43,6.39" transform="translate(-50.11 -47.65)" fill="#ffcbbd"/>
    <path d="M237.84,221a8.76,8.76,0,0,1-6.63,1.33c-4.08-.69-5.07-2.66-5.07-2.66s-10.85,1.51-16.06,35a217.63,217.63,0,0,0-2.45,42.62h49.45s1.51-51.1-1-60.6" transform="translate(-50.11 -47.65)" fill="#f7471e"/>
    <path d="M241.73,245.63s14.65,16.18,28.32,16.18,39.39-14.51,39.39-14.51l-6.14-16.87-29.9,10.73s-15.74-14.71-23-17.42a39.09,39.09,0,0,0-12.55-2.7" transform="translate(-50.11 -47.65)" fill="#f7471e"/>
    <path d="M257.48,258.09s-9.2-7-13.64-10.32" transform="translate(-50.11 -47.65)" fill="none" stroke="#b22b19" stroke-miterlimit="10" stroke-width="0.75"/>
    <line x1="250.34" y1="183.8" x2="255.97" y2="201.47" fill="none" stroke="#b22b19" stroke-miterlimit="10" stroke-width="0.75"/>
    <line x1="157.37" y1="245.52" x2="207.08" y2="245.52" fill="none" stroke="#b22b19" stroke-miterlimit="10" stroke-width="0.75"/>
    <path d="M248.75,251.46c.48,14.22,0,45.83,0,45.83" transform="translate(-50.11 -47.65)" fill="none" stroke="#b22b19" stroke-miterlimit="10" stroke-width="0.75"/>
  </g>
  <g>
    <path d="M226.32,212.42l-1.13,9s8.72,4.57,14.49-.29V215.9Z" transform="translate(-50.11 -47.65)" fill="#ffcbbd"/>
    <path d="M238.14,198.26s10.18,12.83,6.46,17.59c-1.93,2.47-8.25,1.88-11.26,0-2.23-1.4-8.46-8.84-7.51-10.75C229.47,197.83,238.14,198.26,238.14,198.26Z" transform="translate(-50.11 -47.65)" fill="#ffcbbd"/>
    <path d="M236.83,200.61a63.29,63.29,0,0,1-.5,9.85l-.78,16.9s-13.43,1.43-22-4.54c0,0,2.89-17.75,9.29-23.13,6.09-5.12,14-4.75,18.05-1.44,0,0-.56,1.55-1.31,1.91a10.42,10.42,0,0,1-2.72.45" transform="translate(-50.11 -47.65)" fill="#4a1a1a"/>
    <path d="M237.71,208.76c-1.24-1.58-2.25-1.33-2.8-.46-.73,1.15.74,3.55,1.42,4,1.39.83,2.51.74,2.62-.38" transform="translate(-50.11 -47.65)" fill="#ffcbbd"/>
    <path d="M239.8,217.43a2.07,2.07,0,0,1-1.94-1.23" transform="translate(-50.11 -47.65)" fill="none" stroke="#e88872" stroke-linejoin="round" stroke-width="0.5"/>
    <path d="M240.82,204.77c.43.35.82,1,.59,1.47a.33.33,0,0,1-.34.18C240.11,206.33,239.93,204,240.82,204.77Z" transform="translate(-50.11 -47.65)" fill="#28364c"/>
    <path d="M240.7,203a2.23,2.23,0,0,0-1.92,1.5" transform="translate(-50.11 -47.65)" fill="none" stroke="#28364c" stroke-linecap="round" stroke-miterlimit="10" stroke-width="0.5"/>
    <path d="M241.6,211.4l2.26-.73s.89,2.78-.17,3.14S241.6,211.4,241.6,211.4Z" transform="translate(-50.11 -47.65)" fill="#fff"/>
    <path d="M229.27,196.66a2.13,2.13,0,0,0,1.5-2.09,2.7,2.7,0,0,0-1.45-2.22,3.69,3.69,0,0,0-2.71-.23,2.89,2.89,0,0,0-1,.44c-1.16.86-1.13,2.71-.31,3.9a2.46,2.46,0,0,0,1.38,1,4.09,4.09,0,0,0,2.44-.47" transform="translate(-50.11 -47.65)" fill="#4a1a1a"/>
  </g>
  <path d="M241.9,204.62c.26.14,2.94,1.3,3,2.38,0,.61-1.48,1.27-1.48,1.27" transform="translate(-50.11 -47.65)" fill="#ffcbbd"/>
  <path d="M277.16,277.29a15.67,15.67,0,0,1,2.77,4.81.62.62,0,0,1,.07.19c0,.32-.47.35-.77.24a6.43,6.43,0,0,1-1.87-1.11,3.87,3.87,0,0,0-.67-.54,4.18,4.18,0,0,0-1.53-.36,7,7,0,0,1-5.36-3.23" transform="translate(-50.11 -47.65)" fill="#ffcbbd"/>
  <path d="M277.16,277.29a11.38,11.38,0,0,1,2.49,3.7l.48,1a.8.8,0,0,1,.07.4.48.48,0,0,1-.31.35,1,1,0,0,1-.7,0,6.17,6.17,0,0,1-2-1.16,2.94,2.94,0,0,0-.83-.6,4,4,0,0,0-1-.22,8.35,8.35,0,0,1-2.2-.55,6.08,6.08,0,0,1-3.33-2.93,6.62,6.62,0,0,0,3.46,2.57,10.28,10.28,0,0,0,2.12.46,4.47,4.47,0,0,1,1.16.22,3.41,3.41,0,0,1,1,.68,6,6,0,0,0,1.81,1.1.62.62,0,0,0,.4,0l0,0s0-.08,0-.13c-.15-.34-.29-.69-.43-1A14.13,14.13,0,0,0,277.16,277.29Z" transform="translate(-50.11 -47.65)" fill="#e88872"/>
  <g>
    <g>
      <g>
        <path d="M106.83,420.18l-.91,28.54.93,9,34-.18a1.54,1.54,0,0,0,1.54-1.56h0a1.55,1.55,0,0,0-1-1.45l-15.18-7,2.29-29.7" transform="translate(-50.11 -47.65)" fill="#ffcbbd"/>
        <path d="M144,457.14c-.36-1.12-1-2.39-1.68-2.68l-16.1-6.93c-8.87,3.6-20.35.85-20.35.85L105,460.5a.73.73,0,0,0,.73.72l38-.2C144.48,461,144,457.18,144,457.14Z" transform="translate(-50.11 -47.65)" fill="#18277a"/>
        <path d="M129.67,448.22A19.08,19.08,0,0,0,127.4,452" transform="translate(-50.11 -47.65)" fill="none" stroke="#5565aa" stroke-miterlimit="10" stroke-width="0.75"/>
        <path d="M131.69,449.44a16.86,16.86,0,0,0-1.86,3.24" transform="translate(-50.11 -47.65)" fill="none" stroke="#5565aa" stroke-miterlimit="10" stroke-width="0.75"/>
        <path d="M133.41,450.32a22.68,22.68,0,0,0-1.75,3" transform="translate(-50.11 -47.65)" fill="none" stroke="#5565aa" stroke-miterlimit="10" stroke-width="0.75"/>
      </g>
      <line x1="55.05" y1="410.95" x2="94.02" y2="410.74" fill="none" stroke="#5565aa" stroke-miterlimit="10" stroke-width="0.75"/>
      <path d="M105.51,452.8s9,.07,9.83,5.75" transform="translate(-50.11 -47.65)" fill="none" stroke="#5565aa" stroke-miterlimit="10" stroke-width="0.75"/>
      <path d="M139,453s-2.6,3.7-3.11,5.4" transform="translate(-50.11 -47.65)" fill="none" stroke="#5565aa" stroke-miterlimit="10" stroke-width="0.75"/>
    </g>
    <path d="M110,318s18.08,33.89,23.82,55.21-1.9,69.32-1.9,69.32H103.76s5.62-52.11-1-69.32-30.42-62.52-30.42-62.52" transform="translate(-50.11 -47.65)" fill="#adbbf9"/>
    <path d="M107.62,442.57s4.61-54.21,1.81-67.59-22.27-44.56-22.27-44.56" transform="translate(-50.11 -47.65)" fill="none" stroke="#525bce" stroke-miterlimit="10" stroke-width="0.75"/>
    <g>
      <g>
        <path d="M74.59,404.31,58,427.23,53.42,435l27.63,19.87a1.56,1.56,0,0,0,2.17-.36h0a1.55,1.55,0,0,0,0-1.76l-8.17-14.57,18.43-24" transform="translate(-50.11 -47.65)" fill="#ffcbbd"/>
        <path d="M83.77,456.42c.37-1.13.58-2.54.21-3.16L75,438.19c-9.29-2.31-17-11.29-17-11.29l-7.84,9.28a.72.72,0,0,0,.17,1l30.86,22.2C81.91,459.85,83.76,456.45,83.77,456.42Z" transform="translate(-50.11 -47.65)" fill="#18277a"/>
        <path d="M77.45,440.8a18.76,18.76,0,0,0-4.07,1.74" transform="translate(-50.11 -47.65)" fill="none" stroke="#5565aa" stroke-miterlimit="10" stroke-width="0.75"/>
        <path d="M78.38,443A16.49,16.49,0,0,0,75,444.49" transform="translate(-50.11 -47.65)" fill="none" stroke="#5565aa" stroke-miterlimit="10" stroke-width="0.75"/>
        <path d="M79.24,444.69a23.26,23.26,0,0,0-3.16,1.38" transform="translate(-50.11 -47.65)" fill="none" stroke="#5565aa" stroke-miterlimit="10" stroke-width="0.75"/>
      </g>
      <line x1="1.42" y1="387.12" x2="33.06" y2="409.88" fill="none" stroke="#5565aa" stroke-miterlimit="10" stroke-width="0.75"/>
      <path d="M55.22,430.29s7.26,5.36,4.57,10.43" transform="translate(-50.11 -47.65)" fill="none" stroke="#5565aa" stroke-miterlimit="10" stroke-width="0.75"/>
      <path d="M82.15,450.17a30.64,30.64,0,0,0-5.69,2.53" transform="translate(-50.11 -47.65)" fill="none" stroke="#5565aa" stroke-miterlimit="10" stroke-width="0.75"/>
    </g>
    <path d="M64.9,310.73c-5.36,15.18,0,27.13,0,27.13S83.16,371.25,83.16,378c0,6.22-23.43,41.68-23.43,41.68l21.43,17.22s33.66-36.22,33-61.29c-.79-31-17.65-64.92-17.65-64.92" transform="translate(-50.11 -47.65)" fill="#adbbf9"/>
    <path d="M68.9,311.73C63.54,326.91,70,337.15,70,337.15S87.16,372.25,87.16,379c0,6.22-24.35,43.16-24.35,43.16" transform="translate(-50.11 -47.65)" fill="none" stroke="#525bce" stroke-miterlimit="10" stroke-width="0.75"/>
    <path d="M105.66,403.13c5-9.21,8.74-19,8.52-27.48-.79-31-17.65-64.92-17.65-64.92" transform="translate(-50.11 -47.65)" fill="none" stroke="#525bce" stroke-miterlimit="10" stroke-width="0.75"/>
    <path d="M67.14,323.64s9.56.56,13.31-7.13" transform="translate(-50.11 -47.65)" fill="none" stroke="#525bce" stroke-miterlimit="10" stroke-width="0.75"/>
    <path d="M103.79,328s2.62.29,2.37-1-2.37-8.29-2.37-8.29" transform="translate(-50.11 -47.65)" fill="none" stroke="#525bce" stroke-miterlimit="10" stroke-width="0.75"/>
  </g>
  <g>
    <path d="M115.94,230.16c1,6.12.21,11.53-5,12.35S98.43,241.83,97,233.1c-1-6.12,2.46-11.75,7.69-12.56S115,224,115.94,230.16Z" transform="translate(-50.11 -47.65)" fill="#ffcbbb" fill-rule="evenodd"/>
    <path d="M111.71,230.21c-.11.57,0,1.34.49,1.57a.34.34,0,0,0,.39-.08C113.29,231,111.93,229,111.71,230.21Z" transform="translate(-50.11 -47.65)" fill="#28364c"/>
    <path d="M110,228.83a4.26,4.26,0,0,1,3.61-.25" transform="translate(-50.11 -47.65)" fill="none" stroke="#28364c" stroke-linecap="round" stroke-linejoin="round" stroke-width="0.5"/>
    <path d="M115.1,236.56h-3.41s-.2,2.83,1.49,3.13C114.6,239.94,115.1,236.56,115.1,236.56Z" transform="translate(-50.11 -47.65)" fill="#fff"/>
    <path d="M108.15,249.21a20.84,20.84,0,0,1-7.9-.34c-4.51-1.24-5.8-3.07-5.8-3.07l6.27-13.07,9.66,4.38Z" transform="translate(-50.11 -47.65)" fill="#ffcbbb" fill-rule="evenodd"/>
    <path d="M109.35,242.66s-4.21.14-6.39-1.93" transform="translate(-50.11 -47.65)" fill="none" stroke="#ef977f" stroke-miterlimit="10"/>
    <path d="M114.83,230s2.62,3.84,2.48,4.52-2,1-2,1" transform="translate(-50.11 -47.65)" fill="#ffcbbb" fill-rule="evenodd"/>
    <path d="M100.76,238.63A7,7,0,0,1,99,239a6.27,6.27,0,0,1-3.61-.63,5.41,5.41,0,0,1-2.84-5.67c.07-.36.19-.71.25-1.08.27-1.71-.73-3.34-1-5a6.81,6.81,0,0,1,1.1-4.8,8.25,8.25,0,0,1,3.91-3.05c1.26-.48,2.63-.65,3.67-1.55a12.19,12.19,0,0,1,1.46-1.23c2.6-1.64,6.31-.74,8.63,1a2.67,2.67,0,0,0,.89.52c.57.16,1.16-.08,1.74,0,2.23.45,3.21,3.75,3.19,5.72a2.81,2.81,0,0,1-.5,1.64,3.13,3.13,0,0,1-2.18,1.09,19.44,19.44,0,0,0-3.5.25c-.8.24-1.48.76-2.26,1.07a4.72,4.72,0,0,1-3.74-.12,6.09,6.09,0,0,1,.28,2.5c-.24,1.58-1.57,2.35-3,2.74a9.52,9.52,0,0,1,.35,5.2A1.69,1.69,0,0,1,100.76,238.63Z" transform="translate(-50.11 -47.65)" fill="#14122d"/>
    <path d="M102.7,231.12a1.9,1.9,0,0,0-2.72-.3c-1.9,1.58.57,5,2.08,5.55s1.94-1.11,1.94-1.11" transform="translate(-50.11 -47.65)" fill="#ffcbbb"/>
  </g>
  <path d="M173.75,297.79a33.59,33.59,0,0,0,9.31-12.6l-6.33-3.39a26.62,26.62,0,0,0,1.7-6.86l7.18,0a33.8,33.8,0,0,0-2.33-15.5l-6.87,2.09a26.54,26.54,0,0,0-3.65-6.07l5.05-5.09a33.24,33.24,0,0,0-5.75-5.4,33.75,33.75,0,0,0-6.85-3.91l-3.38,6.33a26,26,0,0,0-6.87-1.7l0-7.18a33.8,33.8,0,0,0-15.5,2.33l2.09,6.87a26.13,26.13,0,0,0-6.06,3.65l-5.1-5.06a33.73,33.73,0,0,0-9.31,12.61l6.33,3.38a26.79,26.79,0,0,0-1.7,6.87l-7.18,0a33.74,33.74,0,0,0,2.33,15.49l6.87-2.08a26.48,26.48,0,0,0,3.65,6.06l-5,5.09A33.59,33.59,0,0,0,138.9,303l3.38-6.32a26.37,26.37,0,0,0,6.87,1.69l0,7.19a34.06,34.06,0,0,0,15.5-2.33l-2.09-6.88a26.44,26.44,0,0,0,6.06-3.64Zm-29.24-15.54a12.7,12.7,0,1,1,17.76-2.67A12.7,12.7,0,0,1,144.51,282.25Z" transform="translate(-50.11 -47.65)" fill="#c60e0e"/>
  <path d="M154,296.24c2.94.25,16.21,1.6,16.09,2.39s-4.59,1-4.42,1.42c.24.58,3.62,1.09,5.55,1.2,1.71.1,4.45.54,4.5,1.29.1,1.43-9.3.77-9.3.77,0,.43,10.24-1.18,10.45,0,.3,1.71-10.58,2.56-10.93,3,0,0,9.23-3.35,9.46-2.09s-8,4.47-10.56,4.52c2.13-.45,8.41-4,8.58-3.06s-5.39,3.34-6.3,3.49a66.93,66.93,0,0,1-15,.5" transform="translate(-50.11 -47.65)" fill="#ffcbbd"/>
  <path d="M108.31,248.37s-2.85,1.35-7.16-.52c-4.69-2-5.68-4.38-5.68-4.38S70,245.72,60.73,316.3l52.09,6.46s4.19-25.22,3.52-45.64c-.43-13-5.48-23.11-8-28.75" transform="translate(-50.11 -47.65)" fill="#0e32ae"/>
  <path d="M93,276.63s8,26.84,29.65,32.64A146.1,146.1,0,0,0,157,314.42l2.1-18.09s-23.56-4.23-33.26-10.64c-7.38-4.89-8.82-20.53-10.69-26.06-2.59-7.69-6.83-11.26-6.83-11.26" transform="translate(-50.11 -47.65)" fill="#0e32ae"/>
  <path d="M93.39,244s1.6,4.92,9,6.53c5.42,1.18,7.54-.44,7.54-.44" transform="translate(-50.11 -47.65)" fill="none" stroke="#121649" stroke-miterlimit="10" stroke-width="0.75"/>
  <path d="M114.18,306.23s-19.73-9.11-20.79-34.93" transform="translate(-50.11 -47.65)" fill="none" stroke="#121649" stroke-miterlimit="10" stroke-width="0.75"/>
  <line x1="104.6" y1="247.8" x2="101.95" y2="266.56" fill="none" stroke="#121649" stroke-miterlimit="10" stroke-width="0.75"/>
</svg>
