<?xml version="1.0" encoding="UTF-8"?>
<!DOCTYPE svg PUBLIC "-//W3C//DTD SVG 1.1//EN" "http://www.w3.org/Graphics/SVG/1.1/DTD/svg11.dtd">
<!-- Creator: CorelDRAW 2018 (64-Bit) -->
<svg xmlns="http://www.w3.org/2000/svg" xml:space="preserve" width="2.7227in" height="3.47944in" version="1.1" style="shape-rendering:geometricPrecision; text-rendering:geometricPrecision; image-rendering:optimizeQuality; fill-rule:evenodd; clip-rule:evenodd"
viewBox="0 0 654.61 836.55"
 xmlns:xlink="http://www.w3.org/1999/xlink">
 <defs>
  <style type="text/css">
   <![CDATA[
    .fil1 {fill:#FFCC29}
    .fil0 {fill:#ED3237}
    .fil2 {fill:black}
   ]]>
  </style>
 </defs>
 <g id="Layer_x0020_1">
  <metadata id="CorelCorpID_0Corel-Layer"/>
  <g id="_2756765146336">
   <path class="fil0" d="M227.26 598.78l200.1 0 0 138.83c-10.06,47.24 -51.03,82.61 -100.05,82.61 -49.02,0 -89.99,-35.36 -100.05,-82.61l0 -138.83zm0 0z"/>
   <path class="fil1" d="M327.31 121.87c113.46,0 205.44,91.98 205.44,205.44 0,142.28 -104.42,188.55 -104.42,249.36 0,7.81 -0.34,15.17 -0.98,22.11l-200.09 0c-0.64,-6.94 -0.98,-14.3 -0.98,-22.11 0,-60.81 -104.42,-107.08 -104.42,-249.36 0,-113.47 91.98,-205.44 205.44,-205.44l0 0zm0 0z"/>
   <path class="fil2" d="M327.31 105.53c-95.89,0 -180.52,61.13 -210.61,152.12 -2.83,8.57 1.82,17.81 10.38,20.64 8.57,2.83 17.81,-1.81 20.64,-10.38 25.65,-77.58 97.82,-129.7 179.58,-129.7 104.27,0 189.1,84.83 189.1,189.1 0,80.59 -36.1,128.74 -65.1,167.43 -21.1,28.14 -39.32,52.45 -39.32,81.93 0,1.95 -0.02,3.86 -0.07,5.77l-68.27 0 0 -37.54c0,-9.02 -7.31,-16.34 -16.34,-16.34 -9.02,0 -16.34,7.31 -16.34,16.34l0 37.54 -68.28 0c-0.04,-1.91 -0.07,-3.83 -0.07,-5.77 0,-29.49 -18.22,-53.79 -39.32,-81.94 -21.36,-28.5 -45.58,-60.8 -57.58,-106.69 -2.29,-8.73 -11.21,-13.96 -19.94,-11.67 -8.73,2.28 -13.96,11.21 -11.67,19.95 13.63,52.1 41.03,88.65 63.05,118.02 18.32,24.44 32.79,43.74 32.79,62.34 0,7.82 0.33,15.46 0.98,22.74l0 138.2c0,0.44 0.03,0.87 0.07,1.29 0.01,0.11 0,0.21 0.01,0.32 0.06,0.6 0.15,1.19 0.27,1.77 0.01,0.01 0.01,0.01 0.01,0.01 5.67,26.61 20.19,50.82 40.91,68.14 21.11,17.67 47.79,27.39 75.11,27.39 27.32,0 53.99,-9.73 75.11,-27.39 20.71,-17.33 35.24,-41.53 40.91,-68.14 0,-0.01 0.01,-0.01 0.01,-0.02 0.12,-0.58 0.21,-1.17 0.27,-1.77 0.01,-0.1 0.01,-0.21 0.01,-0.31 0.03,-0.43 0.06,-0.86 0.06,-1.3l0 -138.2c0.64,-7.28 0.98,-14.92 0.98,-22.74 0,-18.6 14.47,-37.9 32.79,-62.34 30.23,-40.32 71.63,-95.54 71.63,-187.02 0,-122.29 -99.49,-221.78 -221.78,-221.78l0 0zm-83.71 579l167.42 0 0 36.74 -167.42 0 0 -36.74zm167.42 -32.68l-167.42 0 0 -36.74 167.42 0 0 36.74zm-83.71 152.02c-33.22,0 -63.18,-20.09 -77.37,-49.93l154.75 0c-14.2,29.84 -44.16,49.93 -77.37,49.93l0 0zm0 0z"/>
   <path class="fil2" d="M327.31 76.21c9.02,0 16.34,-7.31 16.34,-16.34l0 -43.53c0,-9.02 -7.31,-16.34 -16.34,-16.34 -9.02,0 -16.34,7.31 -16.34,16.34l0 43.53c0,9.02 7.31,16.34 16.34,16.34zm0 0z"/>
   <path class="fil2" d="M59.87 310.97l-43.53 0c-9.02,0 -16.34,7.31 -16.34,16.34 0,9.02 7.31,16.34 16.34,16.34l43.53 0c9.02,0 16.34,-7.31 16.34,-16.34 0,-9.02 -7.31,-16.34 -16.34,-16.34zm0 0z"/>
   <path class="fil2" d="M417.5 333.26c0,-10.88 -8.82,-19.7 -19.7,-19.7l-50.8 0 0 -44.24c0,-10.88 -8.82,-19.7 -19.7,-19.7 -10.88,0 -19.7,8.82 -19.7,19.7l0 44.24 -50.8 0c-10.88,0 -19.7,8.82 -19.7,19.7l0.01 0.5 0 0.01 -0.01 0.5c0,10.88 8.82,19.7 19.7,19.7l50.8 0 0 44.24c0,10.88 8.82,19.7 19.7,19.7 10.88,0 19.7,-8.82 19.7,-19.7l0 -44.24 50.8 0c10.88,0 19.7,-8.82 19.7,-19.7l-0.01 -0.5 0 -0.01 0.01 -0.5z"/>
   <path class="fil2" d="M126.65 149.76c3.19,3.19 7.37,4.79 11.55,4.79 4.18,0 8.36,-1.6 11.55,-4.79 6.38,-6.38 6.38,-16.73 0,-23.1l-30.79 -30.78c-6.38,-6.38 -16.72,-6.38 -23.1,0 -6.38,6.38 -6.38,16.72 0,23.1l30.79 30.78zm0 0z"/>
   <path class="fil2" d="M115.38 516.13l-30.79 30.78c-6.38,6.38 -6.38,16.73 0,23.1 3.19,3.19 7.37,4.79 11.56,4.79 4.18,0 8.36,-1.6 11.55,-4.79l30.78 -30.78c6.38,-6.38 6.38,-16.72 0,-23.1 -6.38,-6.38 -16.73,-6.38 -23.1,0l0 0zm0 0z"/>
   <path class="fil2" d="M516.41 154.54c4.18,0 8.36,-1.6 11.55,-4.79l30.78 -30.78c6.38,-6.38 6.38,-16.73 0,-23.11 -6.38,-6.38 -16.72,-6.38 -23.1,0l-30.78 30.78c-6.38,6.38 -6.38,16.73 -0.01,23.11 3.19,3.19 7.38,4.79 11.56,4.79l0 0zm0 0z"/>
   <path class="fil2" d="M539.24 516.13c-6.38,-6.38 -16.72,-6.38 -23.1,0 -6.38,6.38 -6.38,16.72 0,23.1l30.78 30.78c3.19,3.19 7.37,4.79 11.55,4.79 4.18,0 8.36,-1.6 11.55,-4.79 6.38,-6.38 6.38,-16.72 0,-23.1l-30.78 -30.78zm0 0z"/>
   <path class="fil2" d="M638.27 310.97l-43.53 0c-9.02,0 -16.34,7.31 -16.34,16.34 0,9.02 7.31,16.34 16.34,16.34l43.53 0c9.02,0 16.34,-7.31 16.34,-16.34 0,-9.02 -7.31,-16.34 -16.34,-16.34zm0 0z"/>
   <path class="fil2" d="M327.31 463.21c-9,0 -16.34,7.34 -16.34,16.34 0,9 7.34,16.34 16.34,16.34 9,0 16.34,-7.34 16.34,-16.34 0,-9 -7.34,-16.34 -16.34,-16.34zm0 0z"/>
   <path class="fil2" d="M121.87 343.65c9,0 16.34,-7.34 16.34,-16.34 0,-9 -7.34,-16.34 -16.34,-16.34 -9.01,0 -16.34,7.34 -16.34,16.34 0,9 7.33,16.34 16.34,16.34zm0 0z"/>
  </g>
 </g>
</svg>
