<?xml version="1.0" encoding="UTF-8"?>
<!DOCTYPE svg PUBLIC "-//W3C//DTD SVG 1.1//EN" "http://www.w3.org/Graphics/SVG/1.1/DTD/svg11.dtd">
<!-- Creator: CorelDRAW 2018 (64-Bit) -->
<svg xmlns="http://www.w3.org/2000/svg" xml:space="preserve" width="2.72269in" height="3.47939in" version="1.1" style="shape-rendering:geometricPrecision; text-rendering:geometricPrecision; image-rendering:optimizeQuality; fill-rule:evenodd; clip-rule:evenodd"
viewBox="0 0 2722.69 3479.39"
 xmlns:xlink="http://www.w3.org/1999/xlink">
 <defs>
  <style type="text/css">
   <![CDATA[
    .fil0 {fill:black}
   ]]>
  </style>
 </defs>
 <g id="Layer_x0020_1">
  <metadata id="CorelCorpID_0Corel-Layer"/>
  <path class="fil0" d="M1361.37 438.92c-398.83,0 -750.83,254.26 -875.98,632.71 -11.77,35.65 7.57,74.07 43.17,85.85 35.65,11.77 74.07,-7.53 85.85,-43.17 106.69,-322.68 406.86,-539.46 746.92,-539.46 433.69,0 786.52,352.83 786.52,786.52 0,335.2 -150.15,535.46 -270.77,696.39 -87.76,117.04 -163.54,218.15 -163.54,340.77 0,8.11 -0.08,16.06 -0.29,24l-283.95 0 0 -156.14c0,-37.52 -30.41,-67.96 -67.96,-67.96 -37.52,0 -67.96,30.41 -67.96,67.96l0 156.14 -284 0c-0.17,-7.94 -0.29,-15.93 -0.29,-24 0,-122.66 -75.78,-223.73 -163.54,-340.81 -88.84,-118.54 -189.58,-252.88 -239.49,-443.75 -9.52,-36.31 -46.63,-58.06 -82.94,-48.54 -36.31,9.48 -58.06,46.63 -48.54,82.98 56.69,216.7 170.65,368.72 262.24,490.88 76.2,101.65 136.38,181.93 136.38,259.29 0,32.52 1.37,64.3 4.07,94.58l0 574.81c0,1.83 0.13,3.62 0.29,5.37 0.04,0.46 0,0.87 0.04,1.33 0.25,2.5 0.62,4.95 1.12,7.36 0.04,0.04 0.04,0.04 0.04,0.04 23.58,110.68 83.98,211.37 170.16,283.41 87.8,73.5 198.77,113.92 312.4,113.92 113.63,0 224.56,-40.47 312.4,-113.92 86.14,-72.08 146.57,-172.74 170.16,-283.41 0,-0.04 0.04,-0.04 0.04,-0.08 0.5,-2.41 0.87,-4.87 1.12,-7.36 0.04,-0.42 0.04,-0.87 0.04,-1.29 0.13,-1.79 0.25,-3.58 0.25,-5.41l0 -574.81c2.66,-30.28 4.07,-62.06 4.07,-94.58 0,-77.36 60.19,-157.64 136.38,-259.29 125.74,-167.7 297.93,-397.38 297.93,-777.87 0,-508.64 -413.81,-922.44 -922.44,-922.44l0 0 0.09 0zm-348.17 2408.22l696.35 0 0 152.81 -696.35 0 0 -152.81zm696.35 -135.93l-696.35 0 0 -152.81 696.35 0 0 152.81zm-348.17 632.3c-138.17,0 -262.78,-83.56 -321.8,-207.67l643.65 0c-59.06,124.11 -183.67,207.67 -321.8,207.67l0 0 -0.04 0zm0 0z"/>
  <path class="fil0" d="M1361.37 316.97c37.52,0 67.96,-30.41 67.96,-67.96l0 -181.05c0,-37.52 -30.41,-67.96 -67.96,-67.96 -37.52,0 -67.96,30.41 -67.96,67.96l0 181.05c0,37.52 30.41,67.96 67.96,67.96zm0 0z"/>
  <path class="fil0" d="M249.01 1293.4l-181.05 0c-37.52,0 -67.96,30.41 -67.96,67.96 0,37.52 30.41,67.96 67.96,67.96l181.05 0c37.52,0 67.96,-30.41 67.96,-67.96 0,-37.52 -30.41,-67.96 -67.96,-67.96zm0 0z"/>
  <path class="fil0" d="M1736.49 1386.11c0,-45.25 -36.69,-81.94 -81.94,-81.94l-211.29 0 0 -184.01c0,-45.25 -36.69,-81.94 -81.94,-81.94 -45.25,0 -81.94,36.69 -81.94,81.94l0 184.01 -211.29 0c-45.25,0 -81.94,36.69 -81.94,81.94l0.04 2.08 0 0.04 -0.04 2.08c0,45.25 36.69,81.94 81.94,81.94l211.29 0 0 184.01c0,45.25 36.69,81.94 81.94,81.94 45.25,0 81.94,-36.69 81.94,-81.94l0 -184.01 211.29 0c45.25,0 81.94,-36.69 81.94,-81.94l-0.04 -2.08 0 -0.04 0.04 -2.08z"/>
  <path class="fil0" d="M526.77 622.89c13.27,13.27 30.65,19.92 48.04,19.92 17.39,0 34.77,-6.65 48.04,-19.92 26.54,-26.54 26.54,-69.58 0,-96.08l-128.06 -128.02c-26.54,-26.54 -69.54,-26.54 -96.08,0 -26.54,26.54 -26.54,69.54 0,96.08l128.06 128.02zm0 0z"/>
  <path class="fil0" d="M479.89 2146.72l-128.06 128.02c-26.54,26.54 -26.54,69.58 0,96.08 13.27,13.27 30.65,19.92 48.08,19.92 17.39,0 34.77,-6.65 48.04,-19.92l128.02 -128.02c26.54,-26.54 26.54,-69.54 0,-96.08 -26.54,-26.54 -69.58,-26.54 -96.08,0l0 0 -0 0zm0 0z"/>
  <path class="fil0" d="M2147.89 642.77c17.39,0 34.77,-6.65 48.04,-19.92l128.02 -128.02c26.54,-26.54 26.54,-69.58 0,-96.12 -26.54,-26.54 -69.54,-26.54 -96.08,0l-128.02 128.02c-26.54,26.54 -26.54,69.58 -0.04,96.12 13.27,13.27 30.7,19.92 48.08,19.92l0 0zm0 0z"/>
  <path class="fil0" d="M2242.84 2146.72c-26.54,-26.54 -69.54,-26.54 -96.08,0 -26.54,26.54 -26.54,69.54 0,96.08l128.02 128.02c13.27,13.27 30.65,19.92 48.04,19.92 17.39,0 34.77,-6.65 48.04,-19.92 26.54,-26.54 26.54,-69.54 0,-96.08l-128.02 -128.02zm0 0z"/>
  <path class="fil0" d="M2654.73 1293.4l-181.05 0c-37.52,0 -67.96,30.41 -67.96,67.96 0,37.52 30.41,67.96 67.96,67.96l181.05 0c37.52,0 67.96,-30.41 67.96,-67.96 0,-37.52 -30.41,-67.96 -67.96,-67.96zm0 0z"/>
  <path class="fil0" d="M1361.37 1926.61c-37.43,0 -67.96,30.53 -67.96,67.96 0,37.43 30.53,67.96 67.96,67.96 37.43,0 67.96,-30.53 67.96,-67.96 0,-37.43 -30.53,-67.96 -67.96,-67.96zm0 0z"/>
  <path class="fil0" d="M506.89 1429.33c37.43,0 67.96,-30.53 67.96,-67.96 0,-37.43 -30.53,-67.96 -67.96,-67.96 -37.48,0 -67.96,30.53 -67.96,67.96 0,37.43 30.49,67.96 67.96,67.96zm0 0z"/>
 </g>
</svg>
