<?xml version="1.0" encoding="UTF-8"?>
<!DOCTYPE svg PUBLIC "-//W3C//DTD SVG 1.1//EN" "http://www.w3.org/Graphics/SVG/1.1/DTD/svg11.dtd">
<!-- Creator: CorelDRAW 2021 (64-Bit) -->
<svg xmlns="http://www.w3.org/2000/svg" xml:space="preserve" width="34.1646mm" height="39.4498mm" version="1.1" style="shape-rendering:geometricPrecision; text-rendering:geometricPrecision; image-rendering:optimizeQuality; fill-rule:evenodd; clip-rule:evenodd"
viewBox="0 0 916.31 1058.06"
 xmlns:xlink="http://www.w3.org/1999/xlink"
 xmlns:xodm="http://www.corel.com/coreldraw/odm/2003">
 <defs>
  <style type="text/css">
   <![CDATA[
    .fil0 {fill:#FFCC29}
    .fil1 {fill:#373737;fill-rule:nonzero}
   ]]>
  </style>
 </defs>
 <g id="Layer_x0020_1">
  <metadata id="CorelCorpID_0Corel-Layer"/>
  <polygon class="fil0" points="916.31,793.55 687.23,925.8 458.16,1058.06 229.08,925.81 -0,793.55 0,529.03 -0,264.51 229.08,132.26 458.16,0 687.24,132.26 916.31,264.51 916.31,529.03 "/>
  <path class="fil1" d="M479.62 159.75l300.29 173.38 -321.75 614.14c-107.26,-204.71 -214.58,-409.4 -321.75,-614.16 107.23,-61.94 214.46,-123.89 321.74,-185.75l21.48 12.39zm-43.1 652.46l0 -296.33 -223.04 -128.74 223.04 425.07zm43.28 -296.32l0 296.32 223.04 -425.06 -223.04 128.75zm222.06 -178.02l-243.69 -140.7 -243.68 140.69 243.69 140.7 243.68 -140.69z"/>
 </g>
</svg>
