<?xml version="1.0" encoding="UTF-8"?>
<!DOCTYPE svg PUBLIC "-//W3C//DTD SVG 1.1//EN" "http://www.w3.org/Graphics/SVG/1.1/DTD/svg11.dtd">
<!-- Creator: CorelDRAW 2021 (64-Bit) -->
<svg xmlns="http://www.w3.org/2000/svg" xml:space="preserve" width="34.1646mm" height="39.4498mm" version="1.1" style="shape-rendering:geometricPrecision; text-rendering:geometricPrecision; image-rendering:optimizeQuality; fill-rule:evenodd; clip-rule:evenodd"
viewBox="0 0 1989.78 2297.59"
 xmlns:xlink="http://www.w3.org/1999/xlink"
 xmlns:xodm="http://www.corel.com/coreldraw/odm/2003">
 <defs>
  <style type="text/css">
   <![CDATA[
    .fil0 {fill:#FFCC29}
    .fil1 {fill:#FEFEFE;fill-rule:nonzero}
   ]]>
  </style>
 </defs>
 <g id="Layer_x0020_1">
  <metadata id="CorelCorpID_0Corel-Layer"/>
  <polygon class="fil0" points="1989.78,1723.2 1492.33,2010.39 994.89,2297.59 497.44,2010.4 -0,1723.2 0.01,1148.8 -0,574.4 497.45,287.2 994.89,0 1492.34,287.2 1989.78,574.4 1989.77,1148.8 "/>
  <path class="fil1" d="M1041.49 346.89l652.08 376.5 -698.68 1333.61c-232.92,-444.54 -465.96,-889.02 -698.69,-1333.66 232.85,-134.51 465.69,-269.04 698.65,-403.35l46.64 26.91zm-93.59 1416.82l0 -643.48 -484.34 -279.56 484.34 923.04zm93.98 -643.47l0 643.46 484.34 -923.03 -484.34 279.57zm482.21 -386.57l-529.18 -305.53 -529.15 305.51 529.18 305.53 529.16 -305.51z"/>
 </g>
</svg>
