<?xml version="1.0" encoding="UTF-8"?>
<!DOCTYPE svg PUBLIC "-//W3C//DTD SVG 1.1//EN" "http://www.w3.org/Graphics/SVG/1.1/DTD/svg11.dtd">
<!-- Creator: CorelDRAW 2018 (64-Bit) -->
<svg xmlns="http://www.w3.org/2000/svg" xml:space="preserve" width="2.24724in" height="2.79344in" version="1.1" style="shape-rendering:geometricPrecision; text-rendering:geometricPrecision; image-rendering:optimizeQuality; fill-rule:evenodd; clip-rule:evenodd"
viewBox="0 0 2247.24 2793.44"
 xmlns:xlink="http://www.w3.org/1999/xlink">
 <defs>
  <style type="text/css">
   <![CDATA[
    .fil0 {fill:url(#id0);fill-rule:nonzero}
   ]]>
  </style>
  <linearGradient id="id0" gradientUnits="userSpaceOnUse" x1="612.96" y1="2205.72" x2="2307.02" y2="450.65">
   <stop offset="0" style="stop-opacity:1; stop-color:#F37435"/>
   <stop offset="1" style="stop-opacity:1; stop-color:#FFDD21"/>
  </linearGradient>
 </defs>
 <g id="Layer_x0020_1">
  <metadata id="CorelCorpID_0Corel-Layer"/>
  <path class="fil0" d="M1145.7 12.74l1101.54 635.97c-374.68,714.83 -749.02,1429.85 -1123.62,2144.72 -374.61,-714.88 -749.21,-1429.76 -1123.62,-2144.74l284.44 -164.25c240.05,-138.61 474.9,-274.23 834.01,-481.47l5.17 -2.98 22.08 12.74zm-66.33 2502.88l0 -1235.72c-339.25,-195.79 -559.48,-322.96 -779.68,-450.11l-150.52 -86.91 930.19 1772.74zm88.5 -1235.72l0 1235.72 930.2 -1772.74 -221.48 127.89c-195.83,113.08 -394.39,227.73 -708.72,409.14zm909.8 -627.19l-954.03 -550.81 -954.05 550.82 954.02 550.81 954.05 -550.82z"/>
 </g>
</svg>
