<?xml version="1.0" encoding="UTF-8"?>
<!DOCTYPE svg PUBLIC "-//W3C//DTD SVG 1.1//EN" "http://www.w3.org/Graphics/SVG/1.1/DTD/svg11.dtd">
<!-- Creator: CorelDRAW 2018 (64-Bit) -->
<svg xmlns="http://www.w3.org/2000/svg" xml:space="preserve" width="2.76932in" height="2.76932in" version="1.1" style="shape-rendering:geometricPrecision; text-rendering:geometricPrecision; image-rendering:optimizeQuality; fill-rule:evenodd; clip-rule:evenodd"
viewBox="0 0 3642.61 3642.61"
 xmlns:xlink="http://www.w3.org/1999/xlink">
 <defs>
  <style type="text/css">
   <![CDATA[
    .fil1 {fill:#FEFEFE}
    .fil0 {fill:#FEFEFE;fill-rule:nonzero}
   ]]>
  </style>
 </defs>
 <g id="Layer_x0020_1">
  <metadata id="CorelCorpID_0Corel-Layer"/>
  <path class="fil0" d="M3288.19 354.41l0 2933.78 -2933.78 0 0 -2933.78 2933.78 0zm-255.77 255.77l-2422.24 0 0 2422.24 2422.24 0 0 -2422.24z"/>
  <path class="fil1" d="M798.68 1021.44l798.67 798.68 -798.67 798.67 -798.68 -798.67 798.68 -798.68zm1023.81 1023.82l798.68 798.67 -798.68 798.68 -798.67 -798.68 798.67 -798.67zm1021.44 -1021.44l798.68 798.67 -798.68 798.68 -798.67 -798.68 798.67 -798.67zm-1023.81 -1023.82l798.67 798.68 -798.67 798.67 -798.68 -798.67 798.68 -798.68z"/>
 </g>
</svg>
