<?xml version="1.0" encoding="UTF-8"?>
<!DOCTYPE svg PUBLIC "-//W3C//DTD SVG 1.1//EN" "http://www.w3.org/Graphics/SVG/1.1/DTD/svg11.dtd">
<!-- Creator: CorelDRAW 2018 (64-Bit) -->
<svg xmlns="http://www.w3.org/2000/svg" xml:space="preserve" width="2.76932in" height="2.76932in" version="1.1" style="shape-rendering:geometricPrecision; text-rendering:geometricPrecision; image-rendering:optimizeQuality; fill-rule:evenodd; clip-rule:evenodd"
viewBox="0 0 3436.56 3436.56"
 xmlns:xlink="http://www.w3.org/1999/xlink">
 <defs>
  <style type="text/css">
   <![CDATA[
    .fil1 {fill:#C63134}
    .fil0 {fill:#4B4B4D;fill-rule:nonzero}
   ]]>
  </style>
 </defs>
 <g id="Layer_x0020_1">
  <metadata id="CorelCorpID_0Corel-Layer"/>
  <path class="fil0" d="M3102.19 334.36l0 2767.82 -2767.82 0 0 -2767.82 2767.82 0zm-241.3 241.3l-2285.23 0 0 2285.23 2285.23 0 0 -2285.23z"/>
  <path class="fil1" d="M753.5 963.66l753.49 753.5 -753.49 753.49 -753.5 -753.49 753.5 -753.5zm965.9 965.9l753.5 753.49 -753.5 753.5 -753.49 -753.5 753.49 -753.49zm963.66 -963.66l753.5 753.49 -753.5 753.5 -753.49 -753.5 753.49 -753.49zm-965.9 -965.9l753.49 753.5 -753.49 753.49 -753.5 -753.49 753.5 -753.5z"/>
 </g>
</svg>
